<svg width="54" height="54" viewBox="0 0 54 54" fill="none" xmlns="http://www.w3.org/2000/svg">
<g clip-path="url(#clip0_135_1053)">
<path d="M42.3224 0H5.5226C3.49633 0 1.85376 1.64257 1.85376 3.66894V10.3179C1.85376 12.3442 3.49644 13.9868 5.5227 13.9868H9.07025L9.67669 14.5899H13.9745L14.6996 13.9868H42.3224C44.3487 13.9868 45.9913 12.3442 45.9913 10.3179V3.66894C45.9913 1.64257 44.3487 0 42.3224 0V0Z" fill="#95D6A4"/>
<path d="M8.45118 13.9868C8.92495 13.9868 9.28333 14.4155 9.19938 14.8818L8.37187 19.4765C8.29878 19.8821 8.78647 20.1451 9.08536 19.8614L15.0539 14.1956C15.1952 14.0616 15.3826 13.9868 15.5774 13.9868H8.45118Z" fill="#78C2A4"/>
<path d="M48.4773 0H41.6105C43.6368 0 45.2794 1.64257 45.2794 3.66894V10.3179C45.2794 12.3442 43.6369 13.9868 41.6106 13.9868H38.4226C38.6174 13.9868 38.8047 14.0616 38.9461 14.1957L44.9146 19.8615C45.2135 20.1452 45.7011 19.8821 45.6281 19.4765L44.8006 14.8819C44.7167 14.4156 45.0751 13.9868 45.5488 13.9868H48.4773C50.5035 13.9868 52.1462 12.3442 52.1462 10.3179V3.66894C52.1461 1.64257 50.5035 0 48.4773 0V0Z" fill="#78C2A4"/>
<path d="M6.0921 52.5749C5.60515 49.8652 7.60632 47.3429 10.3558 47.2012C12.7885 47.0757 14.6955 45.0645 14.6916 42.6285L14.6703 29.5699C14.6703 29.0185 14.6267 28.3744 14.5282 27.7253C14.3815 26.7631 14.1878 26.1706 14.0436 25.7112H8.8942C5.15828 25.7112 2.12964 28.7398 2.12964 32.4757V52.8942H6.14948L6.0921 52.5749Z" fill="#D5985C"/>
<path d="M22.3471 38.5307L20.9468 35.5912C20.8637 35.4167 20.8194 35.2264 20.817 35.0331L20.7904 32.8827C20.7904 30.1803 19.8541 27.6817 18.2874 25.7112H13.0732C13.0982 25.9016 13.142 26.0912 13.2065 26.2773C13.6167 27.4605 13.8399 28.7296 13.8399 30.0474L13.86 42.3906C13.8638 44.6932 12.0612 46.5942 9.76171 46.7129C7.16285 46.8469 5.27127 49.2309 5.73154 51.7922L5.92961 52.8942H12.304L11.8147 49.8009C11.649 48.7537 12.4588 47.8064 13.519 47.8071L17.5129 47.8098C18.7635 47.8117 19.7784 46.7985 19.7785 45.548L19.7788 41.804C19.7789 41.0597 20.3761 40.4303 21.1203 40.4415C22.1122 40.4563 22.773 39.4248 22.3471 38.5307Z" fill="#C38959"/>
<path d="M7.3397 41.5682V39.9145C7.3397 39.0334 7.74754 38.2018 8.44417 37.6623L11.2839 35.4635C12.3437 34.643 12.964 33.3781 12.964 32.0377C12.964 30.6505 13.6168 29.4165 14.631 28.6235C14.6078 28.331 14.5741 28.0289 14.528 27.7253C14.2939 26.1902 13.94 25.5956 13.859 24.9823H13.8597C13.8148 24.6407 13.8292 24.2968 13.8984 23.9631L13.56 23.6807H9.43409C3.46794 23.6807 -0.989804 29.1655 0.229837 35.0057L2.12943 44.1021H4.80581C6.20528 44.1021 7.3397 42.9676 7.3397 41.5682Z" fill="#73483B"/>
<path d="M20.9027 23.6807H13.56C13.046 24.4454 12.9018 25.3986 13.2064 26.2773C13.554 27.28 13.7655 28.3449 13.8225 29.4485C14.6125 28.3903 15.8745 27.705 17.2966 27.705H17.8425C19.7989 27.705 21.3847 26.1191 21.3847 24.1629C21.3849 23.8966 21.169 23.6807 20.9027 23.6807Z" fill="#925D4C"/>
<path d="M6.17851 50.5107L1.54537 50.0646C0.817742 49.9946 0.187988 50.5667 0.187988 51.2977V52.7614C0.187988 53.4454 0.742543 54.0001 1.42672 54.0001H7.33761L7.68038 53.4815V52.4954C7.68038 51.553 7.04736 50.7569 6.17851 50.5107Z" fill="#E28086"/>
<path d="M13.0844 51.1754L5.57349 50.4524C6.57481 50.5993 7.33777 51.4603 7.33777 52.4953V54.0001H12.9658C13.6499 54.0001 14.2045 53.4455 14.2045 52.7613V52.4083C14.2044 51.7702 13.7196 51.2366 13.0844 51.1754Z" fill="#DD636E"/>
<path d="M41.696 52.8944H45.7421V45.9713C45.7421 44.7286 45.8701 43.4891 46.1242 42.2727L46.9401 38.3658L47.6418 35.006C48.3801 31.4678 47.0352 27.9039 44.2766 25.7114H35.7127C34.1459 27.682 33.2097 30.1806 33.2097 32.8831L33.1831 35.0335C33.1806 35.2267 33.1363 35.4171 33.0533 35.5915L31.653 38.531C31.2271 39.4251 31.8879 40.4567 32.8799 40.4417C33.6241 40.4304 34.2213 41.06 34.2213 41.8043L34.2216 45.5482C34.2217 46.7987 35.2365 47.812 36.4872 47.8101L40.4811 47.8073C41.5413 47.8066 42.351 48.7539 42.1854 49.8011L41.696 52.8944Z" fill="#FFDDCE"/>
<path d="M45.106 25.7112H43.5383C46.2042 27.8299 47.6673 31.3481 46.9035 35.0057L45.3859 42.2724C45.1319 43.4889 45.0038 44.7284 45.0038 45.9711V52.8942H51.8706V32.4757C51.8706 28.7398 48.842 25.7112 45.106 25.7112Z" fill="#FFCBBE"/>
<path d="M46.6543 39.7345L46.9401 38.3658L47.6418 35.0059C48.3802 31.4678 47.0352 27.9039 44.2766 25.7114C42.6859 24.4471 40.6671 23.6809 38.4374 23.6809H33.0972C32.8309 23.6809 32.615 23.8968 32.615 24.1631C32.615 26.1195 34.2009 27.7053 36.1572 27.7053H36.7032C39.096 27.7053 41.0359 29.6451 41.0359 32.038C41.0359 33.3784 41.6563 34.6432 42.7161 35.4639L45.5558 37.6627C46.2049 38.165 46.6027 38.921 46.6543 39.7345Z" fill="#E49542"/>
<path d="M44.566 23.6807H37.6992C43.6654 23.6807 48.1231 29.1655 46.9035 35.0057L46.2018 38.3655C46.4972 38.8213 46.6604 39.358 46.6604 39.9145V41.5683C46.6604 42.9676 47.7948 44.1021 49.1941 44.1021H51.8705L53.7701 35.0057C54.9899 29.1655 50.5321 23.6807 44.566 23.6807Z" fill="#E27D47"/>
<path d="M45.277 50.7556L40.9159 51.1754C40.2806 51.2366 39.7959 51.7702 39.7959 52.4084V52.7614C39.7959 53.4455 40.3505 54.0002 41.0345 54.0002H46.9454L47.0333 53.72V52.6225C47.0332 51.6177 46.2463 50.8151 45.277 50.7556Z" fill="#B1E4F9"/>
<path d="M52.4548 50.0646L44.9666 50.7855C46.0333 50.7143 46.9455 51.5587 46.9455 52.6355V54.0001H52.5735C53.2576 54.0001 53.8122 53.4455 53.8122 52.7614V51.2976C53.8122 50.5667 53.1825 49.9946 52.4548 50.0646Z" fill="#90D8F9"/>
<path d="M45.9221 5.53791H8.07804C7.628 5.53791 7.26318 5.17309 7.26318 4.72305C7.26318 4.27302 7.628 3.9082 8.07804 3.9082H45.9222C46.3724 3.9082 46.7371 4.27302 46.7371 4.72305C46.7371 5.17309 46.3723 5.53791 45.9221 5.53791Z" fill="#F0F7FF"/>
<path d="M27.0001 9.63703H8.07804C7.628 9.63703 7.26318 9.27221 7.26318 8.82218C7.26318 8.37204 7.628 8.00732 8.07804 8.00732H27.0001C27.4502 8.00732 27.8149 8.37214 27.8149 8.82218C27.8149 9.27221 27.4502 9.63703 27.0001 9.63703Z" fill="#F0F7FF"/>
</g>
<defs>
<clipPath id="clip0_135_1053">
<rect width="54" height="54" fill="white"/>
</clipPath>
</defs>
</svg>
