<svg width="54" height="54" viewBox="0 0 54 54" fill="none" xmlns="http://www.w3.org/2000/svg">
<g clip-path="url(#clip0_135_1087)">
<path d="M39.5007 9.49219H31.5905V1.58203C31.5905 0.695988 30.8945 0 30.0085 0H4.74609C2.11971 0 0 2.11982 0 4.74609V49.2539C0 51.88 2.11971 54 4.74609 54H36.3366C38.963 54 41.0827 51.88 41.0827 49.2539V11.0742C41.0827 10.1882 40.3867 9.49219 39.5007 9.49219Z" fill="#FFF9E9"/>
<path d="M41.0828 11.0742V49.2539C41.0828 51.88 38.9631 54 36.3367 54H20.5164V0H30.0085C30.8946 0 31.5906 0.695988 31.5906 1.58203V9.49219H39.5007C40.3868 9.49219 41.0828 10.1882 41.0828 11.0742Z" fill="#FFF4D6"/>
<path d="M41.0828 12.6562H30.0085C29.1341 12.6562 28.4265 11.9487 28.4265 11.0742V0H31.8748C33.1169 0 34.3343 0.503613 35.212 1.3827L39.7015 5.87387C40.579 6.75454 41.0828 7.9688 41.0828 9.20784V12.6562Z" fill="#FAE19E"/>
<path d="M52.6001 16.9593C50.8285 15.1558 47.6644 15.1558 45.8923 16.9593L44.2786 18.6047L43.1396 19.7121C42.5065 20.3132 42.5065 21.3257 43.1396 21.9269L45.3859 24.1735L47.6326 26.4199C48.202 27.0527 49.2781 27.0527 49.8474 26.4199L50.9864 25.3126L52.6001 23.6671C54.4668 21.8952 54.4668 18.7311 52.6001 16.9593Z" fill="#FED23A"/>
<path d="M34.5647 34.9945L31.3056 31.7354C31.2427 31.6722 31.1793 31.6722 31.116 31.7354L31.0214 31.7988C30.8313 31.9886 30.7047 32.2101 30.6413 32.4316L28.3949 39.171C28.1732 39.8037 28.3633 40.4049 28.7746 40.7847V40.8161C29.2176 41.2275 29.8186 41.3857 30.3883 41.1643L37.1277 38.9177C37.3494 38.8543 37.5707 38.7278 37.7604 38.538L37.8238 38.4746C37.8872 38.4114 37.8872 38.3482 37.8238 38.2848C36.7798 37.2093 35.6407 36.0701 34.5647 34.9945Z" fill="#FEDBAB"/>
<path d="M30.0086 18.9844H7.91021C5.82225 18.9844 5.82225 15.8203 7.91021 15.8203H30.0086C32.0966 15.8203 32.0966 18.9844 30.0086 18.9844Z" fill="#95D6A4"/>
<path d="M23.6804 25.3125H7.91021C5.82225 25.3125 5.82225 22.1484 7.91021 22.1484H23.6804C25.7685 22.1484 25.7685 25.3125 23.6804 25.3125Z" fill="#95D6A4"/>
<path d="M23.6804 31.6406H7.91021C5.82225 31.6406 5.82225 28.4766 7.91021 28.4766H23.6804C25.7685 28.4766 25.7685 31.6406 23.6804 31.6406Z" fill="#95D6A4"/>
<path d="M23.6804 37.9688H7.91021C5.82225 37.9688 5.82225 34.8047 7.91021 34.8047H23.6804C25.7685 34.8047 25.7685 37.9688 23.6804 37.9688Z" fill="#95D6A4"/>
<path d="M30.0086 47.6719H20.5164C18.4284 47.6719 18.4284 44.5078 20.5164 44.5078H30.0086C32.0967 44.5078 32.0967 47.6719 30.0086 47.6719Z" fill="#95D6A4"/>
<path d="M34.5645 34.9946C35.6406 36.0703 36.7796 37.2095 37.8236 38.2851C37.887 38.3485 37.887 38.4118 37.8236 38.475L37.7602 38.5384C37.5706 38.7282 37.3493 38.8547 37.1275 38.9181L30.3881 41.1647C29.8183 41.3859 29.2174 41.2278 28.7744 40.8165V40.7849L34.5645 34.9946Z" fill="#FEC478"/>
<path d="M52.5999 23.667L50.9861 25.3125L49.8471 26.4198C49.2778 27.0526 48.2017 27.0526 47.6323 26.4198L45.3857 24.1734L52.5999 16.9592C54.4666 18.7311 54.4666 21.8952 52.5999 23.667Z" fill="#FED23A"/>
<path d="M50.9862 25.3124L49.8472 26.4198C43.5824 32.6531 45.6704 30.5647 40.0383 36.1968C40.0383 36.26 37.7919 38.5065 37.7603 38.5382C37.5706 38.7281 37.3493 38.8545 37.1275 38.9179L30.6411 32.4316C30.7045 32.2101 30.8312 31.9886 31.0212 31.7988C31.0529 31.7671 33.2992 29.5205 33.3626 29.5205C37.4757 25.4073 35.4506 27.464 43.1395 19.7121L44.2468 18.573L50.9862 25.3124Z" fill="#95D6A4"/>
<path d="M50.9863 25.3124L49.8472 26.4197C43.5825 32.653 45.6705 30.5646 40.0383 36.1968C40.0383 36.26 37.7919 38.5064 37.7603 38.5382C37.5707 38.728 37.3494 38.8545 37.1276 38.9179L33.9001 35.6904L47.6326 21.9585L50.9863 25.3124Z" fill="#78C2A4"/>
<path d="M23.6804 37.9688H20.5164V34.8047H23.6804C25.7685 34.8047 25.7685 37.9688 23.6804 37.9688Z" fill="#78C2A4"/>
<path d="M23.6804 31.6406H20.5164V28.4766H23.6804C25.7685 28.4766 25.7685 31.6406 23.6804 31.6406Z" fill="#78C2A4"/>
<path d="M23.6804 25.3125H20.5164V22.1484H23.6804C25.7685 22.1484 25.7685 25.3125 23.6804 25.3125Z" fill="#78C2A4"/>
<path d="M30.0085 47.6719H20.5164V44.5078H30.0085C32.0966 44.5078 32.0966 47.6719 30.0085 47.6719Z" fill="#78C2A4"/>
<path d="M30.0085 18.9844H20.5164V15.8203H30.0085C32.0966 15.8203 32.0966 18.9844 30.0085 18.9844Z" fill="#78C2A4"/>
</g>
<defs>
<clipPath id="clip0_135_1087">
<rect width="54" height="54" fill="white"/>
</clipPath>
</defs>
</svg>
