<svg width="22" height="22" viewBox="0 0 22 22" fill="none" xmlns="http://www.w3.org/2000/svg">
<g clip-path="url(#clip0_164_10)">
<path d="M18.7917 22.0001H7.79167C6.5285 22.0001 5.5 20.9725 5.5 19.7084V5.9584C5.5 4.69432 6.5285 3.66673 7.79167 3.66673H18.7917C20.0548 3.66673 21.0833 4.69432 21.0833 5.9584V19.7084C21.0833 20.9725 20.0548 22.0001 18.7917 22.0001ZM7.79167 4.5834C7.03358 4.5834 6.41667 5.20032 6.41667 5.9584V19.7084C6.41667 20.4665 7.03358 21.0834 7.79167 21.0834H18.7917C19.5498 21.0834 20.1667 20.4665 20.1667 19.7084V5.9584C20.1667 5.20032 19.5498 4.5834 18.7917 4.5834H7.79167Z" fill="#68AC4E"/>
<path d="M4.12496 19.25H3.20829C1.94513 19.25 0.916626 18.2224 0.916626 16.9583V2.29166C0.916626 1.02758 1.94513 -7.62939e-06 3.20829 -7.62939e-06H14.2083C15.4715 -7.62939e-06 16.5 1.02758 16.5 2.29166C16.5 2.54466 16.2946 2.74999 16.0416 2.74999C15.7886 2.74999 15.5833 2.54466 15.5833 2.29166C15.5833 1.53358 14.9664 0.916659 14.2083 0.916659H3.20829C2.45021 0.916659 1.83329 1.53358 1.83329 2.29166V16.9583C1.83329 17.7164 2.45021 18.3333 3.20829 18.3333H4.12496C4.37796 18.3333 4.58329 18.5387 4.58329 18.7917C4.58329 19.0447 4.37796 19.25 4.12496 19.25Z" fill="#68AC4E"/>
<path d="M16.9583 15.5834H9.62496C9.37196 15.5834 9.16663 15.3781 9.16663 15.1251C9.16663 14.8721 9.37196 14.6667 9.62496 14.6667H16.9583C17.2113 14.6667 17.4166 14.8721 17.4166 15.1251C17.4166 15.3781 17.2113 15.5834 16.9583 15.5834Z" fill="#68AC4E"/>
<path d="M16.9583 19.2502H9.62496C9.37196 19.2502 9.16663 19.0448 9.16663 18.7918C9.16663 18.5388 9.37196 18.3335 9.62496 18.3335H16.9583C17.2113 18.3335 17.4166 18.5388 17.4166 18.7918C17.4166 19.0448 17.2113 19.2502 16.9583 19.2502Z" fill="#68AC4E"/>
<path d="M16.9583 11.9167H9.62496C9.37196 11.9167 9.16663 11.7113 9.16663 11.4583C9.16663 11.2053 9.37196 11 9.62496 11H16.9583C17.2113 11 17.4166 11.2053 17.4166 11.4583C17.4166 11.7113 17.2113 11.9167 16.9583 11.9167Z" fill="#68AC4E"/>
<path d="M16.9583 8.24992H9.62496C9.37196 8.24992 9.16663 8.04459 9.16663 7.79159C9.16663 7.53859 9.37196 7.33325 9.62496 7.33325H16.9583C17.2113 7.33325 17.4166 7.53859 17.4166 7.79159C17.4166 8.04459 17.2113 8.24992 16.9583 8.24992Z" fill="#68AC4E"/>
</g>
<defs>
<clipPath id="clip0_164_10">
<rect width="22" height="22" fill="white"/>
</clipPath>
</defs>
</svg>
