<svg width="54" height="54" viewBox="0 0 54 54" fill="none" xmlns="http://www.w3.org/2000/svg">
<path d="M53.7042 27.8863L47.4542 17.053C47.0792 16.3987 46.4 16 45.6667 16H31.0833C29.9333 16 29 16.9707 29 18.1667V39.8333C29 41.0293 29.9333 42 31.0833 42H51.9167C53.0667 42 54 41.0293 54 39.8333V29C54 28.6057 53.9 28.22 53.7042 27.8863Z" fill="#78C2A4"/>
<path d="M38 21H44.4748L49 30H38V21Z" fill="#FAFAFA"/>
<path d="M30.9375 9H2.0625C0.924 9 0 9.924 0 11.0625V39.9375C0 41.076 0.924 42 2.0625 42H33V11.0625C33 9.924 32.076 9 30.9375 9Z" fill="#FAE19E"/>
<path d="M43.5 43C45.9853 43 48 41.433 48 39.5C48 37.567 45.9853 36 43.5 36C41.0147 36 39 37.567 39 39.5C39 41.433 41.0147 43 43.5 43Z" fill="#FAFAFA"/>
<path d="M44 46C40.692 46 38 43.308 38 40C38 36.692 40.692 34 44 34C47.308 34 50 36.692 50 40C50 43.308 47.308 46 44 46ZM44 38C42.9 38 42 38.9 42 40C42 41.1 42.9 42 44 42C45.1 42 46 41.1 46 40C46 38.9 45.1 38 44 38Z" fill="#455A64"/>
<path d="M14.5 43C16.433 43 18 41.433 18 39.5C18 37.567 16.433 36 14.5 36C12.567 36 11 37.567 11 39.5C11 41.433 12.567 43 14.5 43Z" fill="#FAFAFA"/>
<path d="M15 46C11.692 46 9 43.308 9 40C9 36.692 11.692 34 15 34C18.308 34 21 36.692 21 40C21 43.308 18.308 46 15 46ZM15 38C13.896 38 13 38.9 13 40C13 41.1 13.896 42 15 42C16.104 42 17 41.1 17 40C17 38.9 16.104 38 15 38Z" fill="#455A64"/>
<g clip-path="url(#clip0_135_1109)">
<path d="M9.17261 26.2973L11.1816 22.8176L13.4125 24.1057L11.1297 28.0597L9.2152 26.9543L9.17261 26.2973Z" fill="#95D6A4"/>
<path d="M14.9098 28.2295C14.9098 27.5181 14.3331 26.9415 13.6218 26.9415H10.2881V26.9414C9.82788 26.9414 9.40266 26.6959 9.17259 26.2974C8.94247 26.6959 8.94247 27.187 9.17259 27.5856L9.91619 28.8735C10.1463 29.2721 10.5715 29.5176 11.0317 29.5176H13.6218C14.3332 29.5175 14.9098 28.9409 14.9098 28.2295Z" fill="#78C2A4"/>
<path d="M10.2762 22.2925L13.0831 21.0695C13.4802 20.8965 13.9316 21.157 13.9803 21.5875L14.3246 24.6298C14.384 25.155 13.8204 25.5242 13.3626 25.26L10.2114 23.4406C9.75368 23.1763 9.79165 22.5036 10.2762 22.2925Z" fill="#78C2A4"/>
<path d="M13.0831 21.0696L10.2762 22.2925C9.79163 22.5037 9.75369 23.1764 10.2114 23.4407L13.3626 25.26C11.7403 24.3234 11.691 21.6761 13.0831 21.0696Z" fill="#79CFAC"/>
<path d="M18.861 15.9567L20.87 19.4364L18.6391 20.7244L16.3562 16.7704L18.2707 15.665L18.861 15.9567Z" fill="#95D6A4"/>
<path d="M14.3193 19.9592C14.9354 20.3148 15.7231 20.1038 16.0788 19.4877L17.7457 16.6006L17.7457 16.6006C17.9758 16.2021 18.401 15.9566 18.8612 15.9566C18.6311 15.558 18.2058 15.3125 17.7456 15.3125H16.2584C15.7982 15.3125 15.373 15.558 15.1429 15.9565L13.8478 18.1997C13.4921 18.8157 13.7032 19.6035 14.3193 19.9592Z" fill="#78C2A4"/>
<path d="M21.7821 18.9121L21.4378 21.9544C21.3891 22.3849 20.9377 22.6455 20.5406 22.4724L17.7337 21.2495C17.2492 21.0383 17.2112 20.3656 17.669 20.1013L20.8202 18.282C21.2779 18.0177 21.8415 18.3869 21.7821 18.9121Z" fill="#78C2A4"/>
<path d="M21.4378 21.9544L21.7821 18.9121C21.8415 18.3869 21.2779 18.0177 20.8201 18.282L17.6689 20.1013C19.2913 19.1646 21.6085 20.4456 21.4378 21.9544Z" fill="#79CFAC"/>
<path d="M22.9681 29.5133H18.9502V26.9373H23.5159V29.1479L22.9681 29.5133Z" fill="#95D6A4"/>
<path d="M21.7729 23.5785C21.1568 23.9342 20.9458 24.722 21.3014 25.338L22.9683 28.2251L22.9683 28.2252C23.1983 28.6237 23.1983 29.1147 22.9683 29.5132C23.4285 29.5132 23.8538 29.2677 24.0839 28.8691L24.8275 27.5812C25.0576 27.1826 25.0576 26.6916 24.8275 26.2931L23.5324 24.05C23.1767 23.4339 22.389 23.2229 21.7729 23.5785Z" fill="#78C2A4"/>
<path d="M18.948 30.5601L16.4854 28.7408C16.137 28.4834 16.137 27.9622 16.4854 27.7048L18.948 25.8855C19.3731 25.5714 19.9747 25.8749 19.9747 26.4035V30.0421C19.9747 30.5707 19.3731 30.8742 18.948 30.5601Z" fill="#78C2A4"/>
<path d="M16.4856 28.7407L18.9482 30.56C19.3733 30.8741 19.9749 30.5706 19.9749 30.042V26.4033C19.9749 28.2766 17.7069 29.6429 16.4856 28.7407Z" fill="#79CFAC"/>
</g>
<defs>
<clipPath id="clip0_135_1109">
<rect width="16" height="16" fill="white" transform="translate(9 15)"/>
</clipPath>
</defs>
</svg>
