<svg width="36" height="36" viewBox="0 0 36 36" fill="none" xmlns="http://www.w3.org/2000/svg">
<rect x="5.5166" y="10" width="24.716" height="15.8889" fill="#C1E9FA"/>
<path fill-rule="evenodd" clip-rule="evenodd" d="M5.95821 25.8889H30.233V10H30.1826C26.9118 14.2095 18.327 22.2566 5.95821 25.8889Z" fill="#A0DDF2"/>
<path fill-rule="evenodd" clip-rule="evenodd" d="M0 16.6875C0 14.0987 2.68629 12 6 12V12.75C3.21648 12.75 0.96 14.5129 0.96 16.6875V19.3125C0.96 21.4871 3.21648 23.25 6 23.25V24C2.68629 24 0 21.9013 0 19.3125V16.6875Z" fill="#78CBEC"/>
<path fill-rule="evenodd" clip-rule="evenodd" d="M36 19.3125C36 21.9013 33.3137 24 30 24L30 23.25C32.7835 23.25 35.04 21.4871 35.04 19.3125L35.04 16.6875C35.04 14.5129 32.7835 12.75 30 12.75L30 12C33.3137 12 36 14.0987 36 16.6875L36 19.3125Z" fill="#78CBEC"/>
<path fill-rule="evenodd" clip-rule="evenodd" d="M7.72363 14.855C7.72363 14.6112 7.92124 14.4136 8.16499 14.4136H27.8054C28.0492 14.4136 28.2468 14.6112 28.2468 14.855C28.2468 15.0987 28.0492 15.2964 27.8054 15.2964H8.16499C7.92124 15.2964 7.72363 15.0987 7.72363 14.855Z" fill="white"/>
<path fill-rule="evenodd" clip-rule="evenodd" d="M7.94434 18.1651C7.94434 17.9214 8.14194 17.7238 8.38569 17.7238H28.0261C28.2699 17.7238 28.4675 17.9214 28.4675 18.1651C28.4675 18.4089 28.2699 18.6065 28.0261 18.6065H8.38569C8.14194 18.6065 7.94434 18.4089 7.94434 18.1651Z" fill="white"/>
<path fill-rule="evenodd" clip-rule="evenodd" d="M7.94434 21.6961C7.94434 21.4523 8.14194 21.2547 8.38569 21.2547H28.0261C28.2699 21.2547 28.4675 21.4523 28.4675 21.6961C28.4675 21.9398 28.2699 22.1374 28.0261 22.1374H8.38569C8.14194 22.1374 7.94434 21.9398 7.94434 21.6961Z" fill="white"/>
</svg>
