<svg width="36" height="36" viewBox="0 0 36 36" fill="none" xmlns="http://www.w3.org/2000/svg">
<path d="M21.734 28.5373C21.7065 28.1629 21.3946 27.873 21.0191 27.873C20.8395 27.873 13.2016 27.873 13.0613 27.873L12.7119 32.6323H22.0346L21.734 28.5373Z" fill="#596C76"/>
<path d="M34.4055 1.96875H33.9277C33.0439 1.96875 3.03328 1.96875 2.26773 1.96875C1.17278 1.96875 0.285156 2.85637 0.285156 3.95132V22.3505L1.16443 23.5215H34.5362C34.5362 22.7449 34.5362 3.55436 34.5362 2.67702C34.5363 2.4274 34.4897 2.18876 34.4055 1.96875V1.96875Z" fill="#CBE3FA"/>
<path d="M20.7005 27.8731C21.076 27.8731 21.3878 28.163 21.4154 28.5374L21.716 32.6324H23.5426L22.9593 24.6876H13.2951L13.0613 27.8731H20.7005Z" fill="#465A61"/>
<path d="M33.9871 1.96875H33.9275C34.0118 2.18876 34.0583 2.4274 34.0583 2.6771V23.5215H34.6637L35.9696 22.3506V3.95124C35.9696 2.85637 35.082 1.96875 33.9871 1.96875V1.96875Z" fill="#BFD8EF"/>
<path d="M0.284997 22.3505C0.284997 25.3368 0.246576 25.2935 0.415797 25.7504H32.5535C33.6485 25.7504 34.5361 24.8628 34.5361 23.7679C34.5361 23.027 34.5361 22.7074 34.5361 22.3505C34.2707 22.3505 0.713577 22.3505 0.284997 22.3505V22.3505Z" fill="#8D9CA8"/>
<path d="M34.0583 22.3506V23.768C34.0583 24.8629 33.1706 25.7506 32.0757 25.7506H0.415771C0.700951 26.4955 1.42221 27.0248 2.26747 27.0248H33.987C35.0819 27.0248 35.9696 26.1372 35.9696 25.0422C35.9696 23.6711 35.9696 23.7433 35.9696 22.3506H34.0583Z" fill="#7A8C98"/>
<path d="M25.8894 32.4901C25.8894 31.6549 25.2123 30.9777 24.3771 30.9777H10.4441C9.60884 30.9777 8.93164 31.6549 8.93164 32.4901C8.93164 33.3254 9.60884 34.0026 10.4441 34.0026H24.3769C25.2122 34.0026 25.8894 33.3255 25.8894 32.4901Z" fill="#8D9CA8"/>
<path d="M25.8103 30.9777H24.2175C25.0528 30.9777 25.73 31.6549 25.73 32.4901C25.73 33.3254 25.0528 34.0026 24.2175 34.0026H25.8103C26.6456 34.0026 27.3228 33.3255 27.3228 32.4901C27.3228 31.6549 26.6456 30.9777 25.8103 30.9777Z" fill="#7A8C98"/>
</svg>
