<svg width="36" height="36" viewBox="0 0 36 36" fill="none" xmlns="http://www.w3.org/2000/svg">
<path d="M11.9622 34.9135H24.0378V36H11.9622V34.9135Z" fill="#D6A826"/>
<path d="M12.4233 35.9999H10.6731C10.0049 35.9999 9.46313 35.4582 9.46313 34.7899V32.3748H12.4233V35.9999Z" fill="#F8C52D"/>
<path d="M25.3266 35.9999H23.5764V32.3748H26.5366V34.7899C26.5366 35.4582 25.9948 35.9999 25.3266 35.9999Z" fill="#F8C52D"/>
<path d="M13.0308 0.796753H22.969V8.69784H13.0308V0.796753Z" fill="#F8C52D"/>
<path d="M20.1055 0.796753H22.9689V8.69784H20.1055V0.796753Z" fill="#D6A826"/>
<path d="M12.9455 0H13.1092C13.4008 0 13.6372 0.236391 13.6372 0.527977V8.69787H10.0205V2.925C10.0205 1.30957 11.3301 0 12.9455 0V0Z" fill="#FDE784"/>
<path d="M13.6371 0.528047V8.69794H11.8292V0.528047C11.8292 0.428063 11.8009 0.333914 11.7517 0.25425C12.116 0.0905625 12.5202 0 12.9454 0H13.1091C13.401 0 13.6371 0.236109 13.6371 0.528047V0.528047Z" fill="#FDDD45"/>
<path d="M25.9792 2.92605V8.69787H22.3625V0.527977C22.3625 0.236391 22.5989 0 22.8905 0H23.0532C24.6691 0 25.9792 1.31006 25.9792 2.92605Z" fill="#FDE784"/>
<path d="M25.9793 2.92634V8.69794H24.1706V2.92634C24.1706 1.73623 23.46 0.711281 22.4395 0.25425C22.5314 0.101391 22.6995 0 22.8907 0H23.053C24.669 0 25.9793 1.31034 25.9793 2.92634Z" fill="#FDDD45"/>
<path d="M28.0169 28.248V9.762C28.0169 8.15543 26.7145 6.85303 25.1079 6.85303H10.8919C9.28531 6.85303 7.98291 8.15543 7.98291 9.762V28.2479H28.0169V28.248Z" fill="#FDE784"/>
<path d="M7.98291 29.675V30.6051C7.98291 32.2117 9.28531 33.5141 10.8919 33.5141H25.1079C26.7145 33.5141 28.0168 32.2117 28.0168 30.6051V29.675H7.98291Z" fill="#FDE784"/>
<path d="M25.678 9.762V28.2479H28.0162V9.762C28.0162 8.15543 26.7146 6.85303 25.1079 6.85303H22.769C24.3757 6.85303 25.678 8.15543 25.678 9.762Z" fill="#FDDD45"/>
<path d="M25.678 29.675V30.6051C25.678 32.2117 24.3756 33.5134 22.769 33.5134H25.1079C26.7146 33.5134 28.0162 32.2118 28.0162 30.6051V29.675H25.678Z" fill="#FDDD45"/>
<path d="M7.98291 27.7947H28.0169V30.0315H7.98291V27.7947Z" fill="#5A5A5A"/>
<path d="M25.678 27.7947H28.0169V30.0315H25.678V27.7947Z" fill="#444444"/>
<path d="M7.98291 25.4492H28.0169V26.5358H7.98291V25.4492Z" fill="#FB6A3B"/>
<path d="M25.678 25.4492H28.0169V26.5358H25.678V25.4492Z" fill="#FB5532"/>
<path d="M11.7138 22.1485H10.5237C10.2236 22.1485 9.98047 21.9053 9.98047 21.6052C9.98047 21.3052 10.2237 21.062 10.5237 21.062H11.7138C12.0139 21.062 12.257 21.3052 12.257 21.6052C12.257 21.9053 12.0138 22.1485 11.7138 22.1485Z" fill="#5A5A5A"/>
<path d="M13.5339 23.7936H10.5237C10.2236 23.7936 9.98047 23.5504 9.98047 23.2504C9.98047 22.9504 10.2237 22.7072 10.5237 22.7072H13.5339C13.8339 22.7072 14.0771 22.9504 14.0771 23.2504C14.0771 23.5504 13.8339 23.7936 13.5339 23.7936Z" fill="#5A5A5A"/>
</svg>
