<svg width="36" height="36" viewBox="0 0 36 36" fill="none" xmlns="http://www.w3.org/2000/svg">
<g clip-path="url(#clip0_232_312)">
<path d="M5.15137 19.5655C4.86013 19.5655 4.62402 19.3295 4.62402 19.0382V13.4917C4.62402 13.2005 4.86013 12.9644 5.15137 12.9644C5.4426 12.9644 5.67871 13.2005 5.67871 13.4917V19.0382C5.67871 19.3295 5.4426 19.5655 5.15137 19.5655Z" fill="#365E7D"/>
<path d="M18.4812 25.1423H26.7447V27.5145H18.4812V25.1423Z" fill="#365E7D"/>
<path d="M22.9216 27.5145H26.7447V25.1423H23.1229L22.9216 27.5145Z" fill="#2B4D66"/>
<path d="M18.4812 35.4727H1.73877V16.5014C1.73877 16.4092 1.8313 16.3458 1.91722 16.3791L18.3973 22.7632C18.4478 22.7827 18.4811 22.8313 18.4811 22.8855V35.4727H18.4812Z" fill="#E7ECF6"/>
<path d="M1.91747 16.3792C1.83154 16.3459 1.73901 16.4093 1.73901 16.5015V18.0278L15.6309 23.4092C16.4195 23.7147 16.9392 24.4734 16.9392 25.3192V35.4727H18.4814V22.8856C18.4814 22.8314 18.4481 22.7828 18.3977 22.7633L1.91747 16.3792Z" fill="#D8E2F1"/>
<path d="M15.5152 24.2549C15.6071 24.2872 15.6684 24.374 15.6684 24.4713V27.7476C15.6684 27.8743 15.5657 27.9771 15.4389 27.9771H4.78084C4.65407 27.9771 4.55127 27.8743 4.55127 27.7476V20.7126C4.55127 20.6381 4.58741 20.5682 4.64823 20.5252C4.70905 20.4822 4.78696 20.4713 4.8572 20.4961L8.31939 21.7171L11.9004 22.9799L15.5152 24.2549Z" fill="#80B4FB"/>
<path d="M11.9004 22.9799L8.31939 21.7171L4.8572 20.4961C4.78696 20.4713 4.70905 20.4822 4.64823 20.5252C4.58741 20.5682 4.55127 20.6381 4.55127 20.7126V21.5945L6.78292 22.3816L10.3639 23.6444L13.4161 24.7208C13.845 24.8721 14.132 25.2775 14.132 25.7325V27.9771H15.4389C15.5657 27.9771 15.6684 27.8743 15.6684 27.7475V24.4713C15.6684 24.374 15.6071 24.2872 15.5152 24.2548L11.9004 22.9799Z" fill="#61A2F9"/>
<path d="M30.6696 30.323L29.5102 31.7293H25.3238L24.1643 30.323L24.9377 21.2091L25.3238 16.6522L25.3911 15.8586L26.1494 14.509C26.1601 14.3368 26.2655 14.2046 26.3919 14.2046H28.442C28.5685 14.2046 28.6739 14.3369 28.6846 14.509L29.448 15.9189L29.897 21.2091L30.283 25.7661L30.6696 30.323Z" fill="#C3D5EF"/>
<path d="M30.2829 25.7661L29.8969 21.2091L29.1492 12.3997C29.1346 12.2275 28.9906 12.0952 28.8178 12.0952H27.5339C27.7067 12.0952 27.8507 12.2275 27.8653 12.3997L28.613 21.2091L28.999 25.7661L29.3857 31.7293L30.6696 30.323L30.2829 25.7661Z" fill="#B7C8EA"/>
<path d="M29.5101 16.6522H25.3237L25.6846 12.3997C25.6993 12.2275 25.8433 12.0952 26.016 12.0952H28.8179C28.9907 12.0952 29.1347 12.2275 29.1493 12.3997L29.5101 16.6522Z" fill="#EAB14D"/>
<path d="M27.8653 12.3997L28.2262 16.6522H29.5101L29.1492 12.3997C29.1346 12.2275 28.9906 12.0952 28.8178 12.0952H27.5339C27.7067 12.0952 27.8507 12.2275 27.8653 12.3997Z" fill="#E49542"/>
<path d="M30.2829 25.7661H24.551L24.9377 21.2091H29.8969L30.2829 25.7661Z" fill="#EAB14D"/>
<path d="M30.283 25.7661L29.8969 21.2091H28.613L28.9991 25.7661H30.283Z" fill="#E49542"/>
<path d="M13.6216 35.4726H6.59888V32.1395C6.59888 32.0127 6.70167 31.9099 6.82845 31.9099H13.3921C13.5189 31.9099 13.6217 32.0127 13.6217 32.1395V35.4726H13.6216Z" fill="#80B4FB"/>
<path d="M12.1353 31.9099V35.4726H13.6215V32.1395C13.6215 32.0127 13.5187 31.9099 13.3919 31.9099H12.1353Z" fill="#61A2F9"/>
<path d="M8.31934 28.5043C8.0281 28.5043 7.79199 28.2683 7.79199 27.977V21.717C7.79199 21.4257 8.0281 21.1897 8.31934 21.1897C8.61057 21.1897 8.84668 21.4257 8.84668 21.717V27.977C8.84668 28.2683 8.61057 28.5043 8.31934 28.5043Z" fill="#365E7D"/>
<path d="M11.9004 28.5043C11.6092 28.5043 11.373 28.2683 11.373 27.977V22.9799C11.373 22.6886 11.6092 22.4525 11.9004 22.4525C12.1916 22.4525 12.4277 22.6886 12.4277 22.9799V27.977C12.4277 28.2683 12.1917 28.5043 11.9004 28.5043Z" fill="#365E7D"/>
<path d="M27.9795 10.8658C27.6882 10.8658 27.4522 10.6297 27.4522 10.3385V9.56777C27.4522 8.54304 28.2859 7.70927 29.3107 7.70927C30.0795 7.70927 30.7048 7.08384 30.7048 6.31505V5.57416C30.7048 4.80544 30.0794 4.18001 29.3107 4.18001H27.4844C26.4485 4.18001 25.6057 3.33724 25.6057 2.3014V0.527344C25.6057 0.236109 25.8418 0 26.1331 0C26.4244 0 26.6604 0.236109 26.6604 0.527344V2.30133C26.6604 2.75562 27.03 3.12525 27.4844 3.12525H29.3107C30.661 3.12525 31.7595 4.22381 31.7595 5.57409V6.31505C31.7595 7.6654 30.661 8.76396 29.3107 8.76396C28.8674 8.76396 28.5069 9.12452 28.5069 9.56777V10.3385C28.5069 10.6297 28.2708 10.8658 27.9795 10.8658V10.8658Z" fill="#C3D5EF"/>
<path d="M25.9605 10.358C25.6692 10.358 25.4332 10.1219 25.4332 9.83062V8.97273C25.4332 8.61407 25.1414 8.32227 24.7827 8.32227C23.8426 8.32227 23.0776 7.55734 23.0776 6.6172V5.47363C23.0776 5.1824 23.3137 4.94629 23.605 4.94629C23.8963 4.94629 24.1323 5.1824 24.1323 5.47363V6.6172C24.1323 6.97586 24.4241 7.26759 24.7827 7.26759C25.7229 7.26759 26.4879 8.03252 26.4879 8.97273V9.83062C26.4879 10.1219 26.2518 10.358 25.9605 10.358Z" fill="#C3D5EF"/>
<path d="M28.6826 2.06205C28.3913 2.06205 28.1553 1.82594 28.1553 1.53471V0.531982C28.1553 0.240748 28.3913 0.00463867 28.6826 0.00463867C28.9739 0.00463867 29.21 0.240748 29.21 0.531982V1.53471C29.21 1.82594 28.9739 2.06205 28.6826 2.06205Z" fill="#C3D5EF"/>
<path d="M34.2612 35.4727H18.4812V30.3231H33.2513C33.809 30.3231 34.2612 30.7753 34.2612 31.3331V35.4727Z" fill="#E7ECF6"/>
<path d="M33.2514 30.3231H31.7134C32.2712 30.3231 32.7233 30.7753 32.7233 31.3331V35.4727H34.2613V31.3331C34.2613 30.7753 33.8092 30.3231 33.2514 30.3231Z" fill="#D8E2F1"/>
<path d="M21.4309 33.3549C21.1396 33.3549 20.9036 33.1189 20.9036 32.8276V32.3298C20.9036 32.0385 21.1396 31.8025 21.4309 31.8025C21.7222 31.8025 21.9583 32.0385 21.9583 32.3298V32.8276C21.9583 33.1189 21.7221 33.3549 21.4309 33.3549Z" fill="#61A2F9"/>
<path d="M24.7244 33.3549C24.4331 33.3549 24.197 33.1189 24.197 32.8276V32.3298C24.197 32.0385 24.4331 31.8025 24.7244 31.8025C25.0157 31.8025 25.2517 32.0385 25.2517 32.3298V32.8276C25.2517 33.1189 25.0156 33.3549 24.7244 33.3549Z" fill="#61A2F9"/>
<path d="M28.0178 33.3549C27.7265 33.3549 27.4905 33.1189 27.4905 32.8276V32.3298C27.4905 32.0385 27.7265 31.8025 28.0178 31.8025C28.3091 31.8025 28.5452 32.0385 28.5452 32.3298V32.8276C28.5452 33.1189 28.3091 33.3549 28.0178 33.3549Z" fill="#61A2F9"/>
<path d="M31.311 33.3549C31.0197 33.3549 30.7837 33.1189 30.7837 32.8276V32.3298C30.7837 32.0385 31.0197 31.8025 31.311 31.8025C31.6023 31.8025 31.8384 32.0385 31.8384 32.3298V32.8276C31.8384 33.1189 31.6023 33.3549 31.311 33.3549Z" fill="#61A2F9"/>
<path d="M35.4727 36H0.527344C0.236109 36 0 35.764 0 35.4727C0 35.1814 0.236109 34.9453 0.527344 34.9453H35.4727C35.764 34.9453 36 35.1814 36 35.4727C36 35.764 35.764 36 35.4727 36Z" fill="#95D6A4"/>
</g>
<defs>
<clipPath id="clip0_232_312">
<rect width="36" height="36" fill="white"/>
</clipPath>
</defs>
</svg>
