<svg width="36" height="36" viewBox="0 0 36 36" fill="none" xmlns="http://www.w3.org/2000/svg">
<g clip-path="url(#clip0_135_1366)">
<path d="M35.3793 25.1379H0.620718C0.398527 25.1388 0.192811 25.0209 0.0813324 24.8286C-0.0301461 24.6364 -0.0303804 24.3993 0.0807181 24.2069L1.8621 21.1034C1.97341 20.9106 2.17947 20.7922 2.4021 20.7931H33.598C33.8206 20.7922 34.0266 20.9106 34.138 21.1034L35.9193 24.2069C36.0304 24.3993 36.0302 24.6364 35.9187 24.8286C35.8072 25.0209 35.6015 25.1388 35.3793 25.1379V25.1379Z" fill="#805333"/>
<path d="M27.9126 12.1035H8.08776C7.86557 12.1044 7.65985 11.9864 7.54837 11.7942C7.4369 11.602 7.43666 11.3649 7.54776 11.1725L8.26155 9.93108C8.37287 9.73827 8.57892 9.61985 8.80155 9.62073H27.1988C27.4214 9.61985 27.6275 9.73827 27.7388 9.93108L28.4526 11.1725C28.5637 11.3649 28.5635 11.602 28.452 11.7942C28.3405 11.9864 28.1348 12.1044 27.9126 12.1035V12.1035Z" fill="#805333"/>
<path d="M31.1089 17.6896H4.89098C4.66879 17.6905 4.46307 17.5726 4.3516 17.3804C4.24012 17.1882 4.23988 16.951 4.35098 16.7586L5.41857 14.8965C5.52988 14.7037 5.73594 14.5853 5.95857 14.5862H30.0413C30.264 14.5853 30.47 14.7037 30.5813 14.8965L31.6489 16.7586C31.76 16.951 31.7598 17.1882 31.6483 17.3804C31.5368 17.5726 31.3311 17.6905 31.1089 17.6896V17.6896Z" fill="#805333"/>
<path d="M30.718 28.8621H28.6635C28.1043 28.8625 27.6138 28.4889 27.4656 27.9497L26.6898 25.1379L25.4856 20.7931L23.7725 14.5862L23.0835 12.1035L22.4008 9.62071H22.3946L21.9291 7.92622C21.8767 7.73951 21.9146 7.53905 22.0316 7.38435C22.1485 7.22966 22.331 7.1385 22.5249 7.13795H23.1456C23.3984 7.13668 23.6268 7.2889 23.7229 7.52277L24.5918 9.62071L25.6222 12.1035L26.6525 14.5862L27.9435 17.6897L29.2284 20.7931L31.0346 25.1379L31.8663 27.1428C32.0263 27.5263 31.9838 27.9645 31.7529 28.3102C31.5221 28.6558 31.1336 28.8629 30.718 28.8621Z" fill="#BDC3C7"/>
<path d="M14.071 7.92622L13.6055 9.62071H13.5993L12.9165 12.1035L12.2276 14.5862L10.5145 20.7931L9.31033 25.1379L8.53447 27.9497C8.38627 28.4889 7.89579 28.8625 7.33654 28.8621H5.28206C4.86645 28.8629 4.47798 28.6558 4.24715 28.3102C4.01633 27.9645 3.97377 27.5263 4.13378 27.1428L4.96551 25.1379L6.77171 20.7931L8.05654 17.6897L9.34757 14.5862L10.3779 12.1035L11.4083 9.62071L12.2772 7.52277C12.3733 7.2889 12.6016 7.13668 12.8545 7.13795H13.4752C13.6691 7.1385 13.8516 7.22966 13.9685 7.38435C14.0855 7.53905 14.1234 7.73951 14.071 7.92622V7.92622Z" fill="#BDC3C7"/>
</g>
<defs>
<clipPath id="clip0_135_1366">
<rect width="36" height="36" fill="white"/>
</clipPath>
</defs>
</svg>
