<svg width="36" height="36" viewBox="0 0 36 36" fill="none" xmlns="http://www.w3.org/2000/svg">
<g clip-path="url(#clip0_135_1226)">
<path d="M31.6552 7.13793C32.3411 7.13793 32.8966 6.58241 32.8966 5.89655V4.34483C32.8966 3.65897 32.3411 3.10345 31.6552 3.10345H14.5087V1.24138C14.5087 0.555517 13.9532 0 13.2673 0H8.22421C7.53834 0 6.98283 0.555517 6.98283 1.24138V3.10345H4.34489C3.65903 3.10345 3.10352 3.65897 3.10352 4.34483V5.89655C3.10352 6.58241 3.65903 7.13793 4.34489 7.13793H4.65516V31.9655H4.34489C3.65903 31.9655 3.10352 32.521 3.10352 33.2069V34.7586C3.10352 35.4445 3.65903 36 4.34489 36H31.6552C32.3411 36 32.8966 35.4445 32.8966 34.7586V33.2069C32.8966 32.521 32.3411 31.9655 31.6552 31.9655H31.3449V7.13793H31.6552Z" fill="#585966"/>
<path d="M14.5088 1.24138V3.10345H6.98291V1.24138C6.98291 0.555517 7.53843 0 8.22429 0H13.2674C13.9533 0 14.5088 0.555517 14.5088 1.24138Z" fill="#CBE3FA"/>
<path d="M8.53442 7.75863V31.3448C8.53442 31.6876 8.2565 31.9655 7.91373 31.9655H4.65503V7.13794H7.91373C8.2565 7.13794 8.53442 7.41585 8.53442 7.75863Z" fill="#6E6F80"/>
<path d="M32.1209 13.6552H3.87948C3.5367 13.6552 3.25879 13.3773 3.25879 13.0345C3.25879 12.6917 3.5367 12.4138 3.87948 12.4138H32.1209C32.4636 12.4138 32.7415 12.6917 32.7415 13.0345C32.7415 13.3773 32.4636 13.6552 32.1209 13.6552Z" fill="#42434D"/>
<path d="M32.1209 26.6896H3.87948C3.5367 26.6896 3.25879 26.4117 3.25879 26.0689C3.25879 25.7262 3.5367 25.4482 3.87948 25.4482H32.1209C32.4636 25.4482 32.7415 25.7262 32.7415 26.0689C32.7415 26.4117 32.4636 26.6896 32.1209 26.6896Z" fill="#42434D"/>
<path d="M18 26.6897C21.9422 26.6897 25.1379 23.4939 25.1379 19.5517C25.1379 15.6096 21.9422 12.4138 18 12.4138C14.0578 12.4138 10.8621 15.6096 10.8621 19.5517C10.8621 23.4939 14.0578 26.6897 18 26.6897Z" fill="#CBE3FA"/>
<path d="M20.2096 18.1249C22.1585 20.1065 20.7014 23.5055 17.8796 23.3985C15.2316 23.2976 13.9251 20.1003 15.7421 18.1761C16.182 17.7106 16.5296 17.1629 16.7166 16.5499C17.0696 15.39 18.9061 15.4513 19.2816 16.5484C19.4826 17.1334 19.7758 17.6842 20.2096 18.1249Z" fill="#585966"/>
<path d="M17.4191 15.8054C18.2696 15.4589 19.0262 16.427 18.5451 17.2093C18.4949 17.2909 18.4537 17.3814 18.4236 17.4809C18.2366 18.0938 17.889 18.6416 17.4491 19.1071C17.1264 19.4488 16.9023 19.8306 16.7666 20.2281C16.3911 21.328 14.746 20.9026 14.9425 19.7571C15.0386 19.1966 15.2965 18.648 15.7422 18.1761C16.1821 17.7105 16.5297 17.1628 16.7167 16.5499C16.8254 16.1929 17.0925 15.9386 17.4191 15.8054Z" fill="#6E6F80"/>
<path d="M12.9792 22.5358C13.1851 23.2844 12.1521 23.7188 11.7719 23.0418C11.172 21.9735 10.839 20.7352 10.8633 19.4174C10.9338 15.5876 14.0763 12.4369 17.9569 12.414C18.7379 12.4093 18.8782 13.5207 18.1213 13.714C14.2218 14.7097 11.9158 18.6704 12.9792 22.5358V22.5358Z" fill="#EEF7FF"/>
<path d="M31.7389 31.9684C32.7217 32.0337 32.6467 33.5173 31.6618 33.5173H6.67248C5.98685 33.5173 5.4311 34.073 5.4311 34.7587V35.2237C5.4311 35.6525 5.08352 36 4.65477 36H4.34489C3.65927 36 3.10352 35.4443 3.10352 34.7587V33.207C3.10352 32.5213 3.65927 31.9656 4.34489 31.9656C4.34489 31.9656 31.7112 31.9665 31.7389 31.9684V31.9684Z" fill="#6E6F80"/>
<path d="M31.7389 3.10631C32.7217 3.17164 32.6467 4.65524 31.6618 4.65524H6.67248C5.98685 4.65524 5.4311 5.21099 5.4311 5.89662V6.36167C5.4311 6.79041 5.0839 7.138 4.65516 7.138H4.34489C3.65927 7.138 3.10352 6.58225 3.10352 5.89662V4.3449C3.10352 3.65927 3.65927 3.10352 4.34489 3.10352C4.34489 3.10352 31.7112 3.10445 31.7389 3.10631V3.10631Z" fill="#6E6F80"/>
<path d="M31.345 7.13794V7.75863C31.345 8.1014 31.0671 8.37932 30.7243 8.37932H5.27604C4.93326 8.37932 4.65527 8.1014 4.65527 7.75863V7.13794H31.345Z" fill="#42434D"/>
<path d="M13.2952 1.08621H10.0864C9.40073 1.08621 8.84498 1.64196 8.84498 2.32759V2.56034C8.84498 2.86029 8.60182 3.10345 8.30187 3.10345H6.98291V1.24138C6.98291 0.55575 7.53866 0 8.22429 0C8.22429 0 13.32 0.000853448 13.3459 0.00248276C14.0356 0.0455431 13.9863 1.08621 13.2952 1.08621Z" fill="#EEF7FF"/>
</g>
<defs>
<clipPath id="clip0_135_1226">
<rect width="36" height="36" fill="white"/>
</clipPath>
</defs>
</svg>
