<svg width="36" height="36" viewBox="0 0 36 36" fill="none" xmlns="http://www.w3.org/2000/svg">
<path d="M23.8655 33.75H6.50959C6.11465 33.7499 5.72416 33.6667 5.36353 33.5057C5.0029 33.3447 4.68022 33.1096 4.41649 32.8156C4.15277 32.5216 3.95391 32.1754 3.83286 31.7995C3.71182 31.4236 3.67131 31.0264 3.71396 30.6337L5.21513 16.8223C5.46866 14.4894 6.53203 12.3193 8.22022 10.6894C9.90841 9.05954 12.1146 8.07311 14.4549 7.90172C14.6968 7.88414 14.9415 7.875 15.1876 7.875C15.4336 7.875 15.6783 7.88414 15.9202 7.90172C18.2605 8.07307 20.4667 9.05949 22.1549 10.6894C23.8431 12.3192 24.9065 14.4894 25.16 16.8223L26.6612 30.6337C26.7038 31.0264 26.6633 31.4236 26.5422 31.7995C26.4212 32.1754 26.2223 32.5216 25.9586 32.8156C25.6949 33.1096 25.3722 33.3447 25.0116 33.5057C24.651 33.6667 24.2605 33.7499 23.8655 33.75V33.75Z" fill="#E3E4E2"/>
<path d="M12.8914 9.56159L10.9211 2.25H19.3586L17.2441 9.56159H12.8914Z" fill="#E3E4E2"/>
<path d="M19.125 12.9376C19.0073 13.0291 18.8581 13.0701 18.7101 13.0516C18.5622 13.0332 18.4276 12.9567 18.336 12.8391L15.75 9.51474V14.0626C15.75 14.2117 15.6907 14.3548 15.5852 14.4603C15.4797 14.5658 15.3367 14.6251 15.1875 14.6251C15.0383 14.6251 14.8952 14.5658 14.7897 14.4603C14.6842 14.3548 14.625 14.2117 14.625 14.0626V9.51474L12.0389 12.8391C11.9473 12.9567 11.8127 13.0331 11.6648 13.0516C11.5169 13.07 11.3677 13.029 11.25 12.9376C11.1324 12.8459 11.056 12.7114 11.0375 12.5635C11.0191 12.4156 11.0601 12.2664 11.1515 12.1487L14.455 7.90184C14.6968 7.88426 14.9415 7.87512 15.1876 7.87512C15.4337 7.87512 15.6784 7.88426 15.9203 7.90184L19.2237 12.1487C19.3151 12.2665 19.3561 12.4157 19.3376 12.5636C19.3191 12.7115 19.2426 12.846 19.125 12.9376Z" fill="#C9C9C7"/>
<path d="M29.5172 33.75H19.9829C19.5899 33.75 19.2013 33.6678 18.8421 33.5084C18.4829 33.3491 18.1611 33.1162 17.8974 32.8248C17.6337 32.5335 17.434 32.1901 17.3112 31.8168C17.1884 31.4435 17.1452 31.0486 17.1844 30.6576L17.9466 23.0315C18.1154 21.3444 18.905 19.7802 20.1622 18.6425C21.4194 17.5048 23.0545 16.8748 24.7501 16.8748C26.4456 16.8748 28.0807 17.5048 29.3379 18.6425C30.5951 19.7802 31.3847 21.3444 31.5535 23.0315L32.3157 30.6576C32.3549 31.0486 32.3117 31.4435 32.1889 31.8168C32.0661 32.1901 31.8664 32.5335 31.6027 32.8248C31.339 33.1162 31.0172 33.3491 30.658 33.5084C30.2988 33.6678 29.9102 33.75 29.5172 33.75V33.75Z" fill="#0093B9"/>
<path d="M23.3712 17.9556L21.9375 12.9375H27.5625L26.1288 17.9556H23.3712Z" fill="#0093B9"/>
<path d="M28.1251 20.8125C28.069 20.8606 28.004 20.8972 27.9338 20.9202C27.8636 20.9432 27.7895 20.9521 27.7158 20.9465C27.6421 20.9409 27.5703 20.9208 27.5044 20.8874C27.4385 20.8539 27.3798 20.8079 27.3317 20.7518L25.3126 18.3958V21.375C25.3126 21.5241 25.2533 21.6672 25.1478 21.7727C25.0423 21.8782 24.8993 21.9375 24.7501 21.9375C24.6009 21.9375 24.4578 21.8782 24.3523 21.7727C24.2468 21.6672 24.1876 21.5241 24.1876 21.375V18.3958L22.1682 20.7513C22.0711 20.8646 21.9331 20.9347 21.7843 20.9461C21.6356 20.9576 21.4884 20.9095 21.3751 20.8125C21.2619 20.7153 21.192 20.5773 21.1806 20.4286C21.1692 20.2799 21.2173 20.1328 21.3143 20.0196L23.9713 16.9195C24.489 16.8605 25.0117 16.8605 25.5294 16.9195L28.1864 20.0196C28.2833 20.1329 28.3314 20.2801 28.3199 20.4287C28.3084 20.5774 28.2383 20.7154 28.1251 20.8125V20.8125Z" fill="#006E87"/>
<path d="M15.4962 24.1431L14.0625 19.125H19.6875L18.2538 24.1431H15.4962Z" fill="#56C3C1"/>
<path d="M20.3336 33.75H13.4162C13.0098 33.75 12.6082 33.6619 12.239 33.4918C11.8699 33.3217 11.542 33.0735 11.278 32.7645C11.014 32.4555 10.8201 32.093 10.7096 31.7018C10.5992 31.3107 10.5748 30.9002 10.6382 30.4988L11.0228 28.0631C11.2234 26.792 11.8325 25.6207 12.7579 24.7265C13.6834 23.8323 14.8748 23.2637 16.1521 23.1068C16.6322 23.0477 17.1177 23.0477 17.5977 23.1068C18.875 23.2637 20.0665 23.8322 20.9919 24.7265C21.9173 25.6207 22.5264 26.792 22.727 28.0631L23.1116 30.4988C23.175 30.9002 23.1507 31.3107 23.0402 31.7018C22.9297 32.093 22.7358 32.4555 22.4718 32.7645C22.2078 33.0735 21.8799 33.3217 21.5108 33.4918C21.1416 33.6619 20.74 33.75 20.3336 33.75V33.75Z" fill="#56C3C1"/>
<path d="M19.6875 27C19.6274 27.0429 19.5594 27.0736 19.4874 27.0903C19.4155 27.1069 19.3409 27.1093 19.268 27.0971C19.1952 27.085 19.1254 27.0586 19.0627 27.0195C19.0001 26.9804 18.9457 26.9293 18.9028 26.8692L17.4375 24.8175V27C17.4375 27.1492 17.3782 27.2923 17.2727 27.3977C17.1672 27.5032 17.0242 27.5625 16.875 27.5625C16.7258 27.5625 16.5827 27.5032 16.4772 27.3977C16.3717 27.2923 16.3125 27.1492 16.3125 27V24.8175L14.8472 26.8692C14.8042 26.9293 14.7499 26.9804 14.6872 27.0195C14.6245 27.0586 14.5548 27.085 14.4819 27.0971C14.409 27.1093 14.3345 27.1069 14.2625 27.0903C14.1906 27.0736 14.1226 27.0429 14.0625 27C14.0024 26.9571 13.9513 26.9027 13.9122 26.84C13.8731 26.7774 13.8467 26.7076 13.8346 26.6347C13.8224 26.5619 13.8247 26.4873 13.8414 26.4154C13.8581 26.3434 13.8887 26.2754 13.9317 26.2153L16.1522 23.1068C16.6322 23.0477 17.1177 23.0477 17.5978 23.1068L19.8183 26.2153C19.8612 26.2754 19.8919 26.3434 19.9085 26.4154C19.9252 26.4873 19.9275 26.5619 19.9154 26.6347C19.9032 26.7076 19.8769 26.7774 19.8378 26.84C19.7987 26.9027 19.7476 26.9571 19.6875 27V27Z" fill="#1AA7A1"/>
</svg>
