<svg width="36" height="36" viewBox="0 0 36 36" fill="none" xmlns="http://www.w3.org/2000/svg">
<path d="M30.4759 4.65759H5.05762V29.2171C5.05762 30.874 6.40076 32.2171 8.05762 32.2171H27.4759C29.1328 32.2171 30.4759 30.874 30.4759 29.2171V4.65759Z" fill="#E6E9ED"/>
<path d="M27.8972 32.0791H7.63623L8.55718 33.0001H26.9762L27.8972 32.0791Z" fill="#CDD6E0"/>
<path d="M4.43604 4.1051V10.8051C4.43604 11.1504 4.71234 11.4958 5.12677 11.4958H5.67932C6.57727 11.4958 7.33704 12.2556 7.33704 13.1535V17.1597C7.33704 17.9194 7.95868 18.5411 8.71844 18.5411C9.47821 18.5411 10.0999 17.9194 10.0999 17.1597V15.7092C10.0999 14.9494 10.6524 14.3278 11.3431 14.2587C12.172 14.1896 12.8627 14.8112 12.8627 15.6401V17.6431C12.8627 18.4029 13.4153 19.0245 14.106 19.0936C14.9349 19.1627 15.6256 18.5411 15.6256 17.7122V13.4988C15.6256 12.7391 16.1782 12.1174 16.8689 12.0483C17.6978 11.9793 18.3885 12.6009 18.3885 13.4298V18.6792C18.3885 19.439 19.0101 20.0606 19.7699 20.0606C20.5297 20.0606 21.1513 19.439 21.1513 18.6792V13.4298C21.1513 12.3937 21.9802 11.4957 23.0853 11.4957H30.1306C30.476 11.4957 30.8214 11.2194 30.8214 10.805V4.1051H4.43604Z" fill="#585966"/>
<path d="M4.43604 5.901H4.50513H31.0286H31.0977V4.1051H4.43604V5.901Z" fill="#43444F"/>
<path d="M31.0285 3H4.50507C3.88342 3 3.3999 3.48352 3.3999 4.10517C3.3999 4.72681 3.88342 5.21033 4.50507 5.21033H31.0285C31.6502 5.21033 32.1337 4.72681 32.1337 4.10517C32.1337 3.48346 31.6502 3 31.0285 3Z" fill="#585966"/>
</svg>
