<svg width="36" height="36" viewBox="0 0 36 36" fill="none" xmlns="http://www.w3.org/2000/svg">
<g clip-path="url(#clip0_135_1306)">
<path d="M21.1664 10.871C20.551 10.1076 19.7812 9.47385 18.9045 9.01717C18.6927 8.90685 18.5627 8.68501 18.5627 8.44623V5.92911L7.79226 4.89868V8.44623C7.79226 8.68656 7.65965 8.90797 7.44661 9.0192C5.16897 10.2075 3.61401 12.5912 3.61401 15.3379L8.50122 19.5278L3.61401 31.2348V34.1225C3.61401 35.1594 4.4546 36 5.49157 36H20.8634C21.0623 36 21.2539 35.9691 21.4337 35.9118C20.8798 35.7306 21.1664 10.871 21.1664 10.871V10.871Z" fill="#CBE3FA"/>
<path d="M15.6899 5.43823V5.92051C15.6899 6.98089 15.9792 7.51583 16.4646 7.8136C17.7942 8.62916 18.8354 9.86884 19.4001 11.3443L20.3885 11.5004L21.1665 10.8709C20.551 10.1075 19.7812 9.47375 18.9046 9.01707C18.6928 8.90675 18.5628 8.68491 18.5628 8.44613V5.92908L15.6899 5.43823Z" fill="#BFD8EF"/>
<path d="M21.2238 34.042L19.2169 30.7708C18.144 33.0071 15.8585 34.5513 13.2125 34.5513H3.66333C3.85732 35.3816 4.60228 36 5.49166 36H20.8635C21.0624 36 21.254 35.969 21.4338 35.9117C20.8799 35.7305 21.3859 34.647 21.2238 34.042V34.042Z" fill="#BFD8EF"/>
<path d="M19.3738 5.9291H6.98132C6.63081 5.9291 6.34668 5.64497 6.34668 5.29446V0.634641C6.34668 0.284133 6.63081 0 6.98132 0H19.3738C19.7243 0 20.0084 0.284133 20.0084 0.634641V5.29439C20.0084 5.64497 19.7243 5.9291 19.3738 5.9291V5.9291Z" fill="#5C90B9"/>
<path d="M19.3738 0H17.111V1.66823C17.111 3.22137 15.852 4.48038 14.2988 4.48038H6.34668V5.29439C6.34668 5.6449 6.63081 5.92903 6.98132 5.92903H19.3738C19.7243 5.92903 20.0084 5.6449 20.0084 5.29439V0.634641C20.0085 0.284133 19.7243 0 19.3738 0V0Z" fill="#4A80AA"/>
<path d="M3.61401 19.4768V31.2348H10.8355C11.5737 31.2348 12.1723 30.6363 12.1723 29.898V19.4768L7.39633 17.7261L3.61401 19.4768Z" fill="#F1F1F4"/>
<path d="M32.3244 31.4452C32.5795 32.3972 32.0146 33.3756 31.0627 33.6307L22.4488 35.9387C21.4969 36.1938 20.5185 35.6289 20.2634 34.677L14.8342 14.415C14.5791 13.4631 15.1441 12.4847 16.096 12.2296L24.7098 9.92148C25.6618 9.66639 26.6402 10.2313 26.8953 11.1832L32.3244 31.4452Z" fill="#6E6F80"/>
<path d="M32.3244 31.4452L26.8952 11.1832C26.6402 10.2313 25.6617 9.66639 24.7098 9.92148L24.0923 10.0869L28.3019 25.7974C29.1784 29.0684 27.2372 32.4306 23.9662 33.3072L20.1689 34.3247L20.2634 34.6771C20.5185 35.629 21.4969 36.1939 22.4488 35.9388L31.0627 33.6307C32.0146 33.3756 32.5795 32.3972 32.3244 31.4452V31.4452Z" fill="#585966"/>
<path d="M19.5797 15.124C19.5797 15.8661 18.9781 16.4677 18.236 16.4677C17.4939 16.4677 16.8923 15.8661 16.8923 15.124C16.8923 14.3819 17.4939 13.7804 18.236 13.7804C18.9781 13.7804 19.5797 14.3819 19.5797 15.124ZM19.416 18.1841C18.6739 18.1841 18.0723 18.7857 18.0723 19.5278C18.0723 20.2698 18.6739 20.8714 19.416 20.8714C20.1581 20.8714 20.7597 20.2698 20.7597 19.5278C20.7597 18.7857 20.1581 18.1841 19.416 18.1841ZM20.596 22.5878C19.8539 22.5878 19.2523 23.1894 19.2523 23.9315C19.2523 24.6736 19.8539 25.2752 20.596 25.2752C21.3381 25.2752 21.9397 24.6736 21.9397 23.9315C21.9397 23.1894 21.3381 22.5878 20.596 22.5878ZM21.776 26.9916C21.0339 26.9916 20.4323 27.5932 20.4323 28.3353C20.4323 29.0773 21.0339 29.6789 21.776 29.6789C22.518 29.6789 23.1196 29.0773 23.1196 28.3353C23.1196 27.5932 22.518 26.9916 21.776 26.9916ZM22.9559 31.3953C22.2139 31.3953 21.6123 31.9969 21.6123 32.739C21.6123 33.4811 22.2139 34.0827 22.9559 34.0827C23.698 34.0827 24.2996 33.4811 24.2996 32.739C24.2996 31.9969 23.698 31.3953 22.9559 31.3953ZM24.2029 12.1815C23.4608 12.1815 22.8592 12.7831 22.8592 13.5252C22.8592 14.2673 23.4608 14.8689 24.2029 14.8689C24.945 14.8689 25.5465 14.2673 25.5465 13.5252C25.5466 12.7831 24.945 12.1815 24.2029 12.1815ZM25.3829 16.5853C24.6408 16.5853 24.0392 17.1869 24.0392 17.9289C24.0392 18.671 24.6408 19.2726 25.3829 19.2726C26.1249 19.2726 26.7265 18.671 26.7265 17.9289C26.7265 17.1869 26.125 16.5853 25.3829 16.5853V16.5853ZM26.5629 20.989C25.8208 20.989 25.2192 21.5906 25.2192 22.3327C25.2192 23.0748 25.8208 23.6763 26.5629 23.6763C27.305 23.6763 27.9066 23.0748 27.9066 22.3327C27.9066 21.5906 27.305 20.989 26.5629 20.989ZM27.7429 25.3927C27.0008 25.3927 26.3992 25.9943 26.3992 26.7364C26.3992 27.4785 27.0008 28.0801 27.7429 28.0801C28.485 28.0801 29.0866 27.4785 29.0866 26.7364C29.0866 25.9943 28.485 25.3927 27.7429 25.3927ZM28.9229 29.7965C28.1808 29.7965 27.5792 30.3981 27.5792 31.1402C27.5792 31.8822 28.1808 32.4838 28.9229 32.4838C29.665 32.4838 30.2666 31.8822 30.2666 31.1402C30.2666 30.3981 29.665 29.7965 28.9229 29.7965Z" fill="#56C3C1"/>
<path d="M29.0865 26.7365C29.0865 26.1611 28.7249 25.6703 28.2166 25.4788L28.302 25.7975C28.4864 26.4857 28.546 27.1779 28.4949 27.8503C28.8518 27.6086 29.0865 27.1999 29.0865 26.7365V26.7365Z" fill="#47A9A7"/>
<path d="M27.0366 21.075L27.6019 23.1847C27.7923 22.9529 27.9065 22.6561 27.9065 22.3328C27.9066 21.7574 27.545 21.2665 27.0366 21.075Z" fill="#47A9A7"/>
<path d="M25.8567 16.6712L26.422 18.781C26.6123 18.5491 26.7266 18.2524 26.7266 17.929C26.7267 17.3536 26.365 16.8627 25.8567 16.6712Z" fill="#47A9A7"/>
<path d="M30.2691 31.2915C30.3426 30.5531 29.8035 29.895 29.0652 29.8215C28.3268 29.748 27.6686 30.287 27.5952 31.0254C27.5217 31.7638 28.0607 32.4219 28.7991 32.4954C29.5375 32.5689 30.1956 32.0298 30.2691 31.2915Z" fill="#47A9A7"/>
<path d="M24.6765 12.2675L25.2418 14.3773C25.4322 14.1454 25.5464 13.8486 25.5464 13.5253C25.5465 12.9498 25.1849 12.459 24.6765 12.2675Z" fill="#47A9A7"/>
<path d="M24.2038 33.2384C24.1255 33.2627 24.0463 33.2857 23.9663 33.3071L22.1301 33.7991C22.3579 33.9768 22.6446 34.0827 22.9559 34.0827C23.5216 34.0828 24.0056 33.7333 24.2038 33.2384V33.2384Z" fill="#47A9A7"/>
<path d="M8.15139 4.66754C7.85137 4.66754 7.60815 4.42433 7.60815 4.12431V1.80477C7.60815 1.50468 7.85137 1.26154 8.15139 1.26154C8.45141 1.26154 8.69462 1.50475 8.69462 1.80477V4.12431C8.69462 4.4244 8.45141 4.66754 8.15139 4.66754ZM10.7051 4.12431V1.80477C10.7051 1.50468 10.4619 1.26154 10.1618 1.26154C9.86181 1.26154 9.6186 1.50475 9.6186 1.80477V4.12431C9.6186 4.4244 9.86181 4.66754 10.1618 4.66754C10.4619 4.66754 10.7051 4.4244 10.7051 4.12431ZM12.7155 4.12431V1.80477C12.7155 1.50468 12.4723 1.26154 12.1723 1.26154C11.8723 1.26154 11.629 1.50475 11.629 1.80477V4.12431C11.629 4.4244 11.8723 4.66754 12.1723 4.66754C12.4723 4.66754 12.7155 4.4244 12.7155 4.12431ZM14.726 4.12431V1.80477C14.726 1.50468 14.4827 1.26154 14.1827 1.26154C13.8827 1.26154 13.6395 1.50475 13.6395 1.80477V4.12431C13.6395 4.4244 13.8827 4.66754 14.1827 4.66754C14.4827 4.66754 14.726 4.4244 14.726 4.12431ZM16.7364 4.12431V1.80477C16.7364 1.50468 16.4932 1.26154 16.1932 1.26154C15.8931 1.26154 15.6499 1.50475 15.6499 1.80477V4.12431C15.6499 4.4244 15.8931 4.66754 16.1932 4.66754C16.4932 4.66754 16.7364 4.4244 16.7364 4.12431ZM18.7468 4.12431V1.80477C18.7468 1.50468 18.5036 1.26154 18.2036 1.26154C17.9036 1.26154 17.6604 1.50475 17.6604 1.80477V4.12431C17.6604 4.4244 17.9036 4.66754 18.2036 4.66754C18.5036 4.66754 18.7468 4.4244 18.7468 4.12431Z" fill="#4A80AA"/>
<path d="M12.5826 4.48035H11.762C11.8616 4.59503 12.0084 4.66752 12.1722 4.66752C12.3361 4.66752 12.4829 4.59503 12.5826 4.48035V4.48035Z" fill="#407093"/>
<path d="M18.2036 1.26154C17.9036 1.26154 17.6604 1.50475 17.6604 1.80477V4.12431C17.6604 4.4244 17.9036 4.66754 18.2036 4.66754C18.5037 4.66754 18.7469 4.42433 18.7469 4.12431V1.80477C18.7469 1.50468 18.5037 1.26154 18.2036 1.26154Z" fill="#407093"/>
<path d="M8.56158 4.48035H7.74097C7.8406 4.59503 7.98741 4.66752 8.15124 4.66752C8.31507 4.66752 8.46195 4.59503 8.56158 4.48035Z" fill="#407093"/>
<path d="M10.5721 4.48035H9.75146C9.8511 4.59503 9.99791 4.66752 10.1617 4.66752C10.3256 4.66752 10.4724 4.59503 10.5721 4.48035V4.48035Z" fill="#407093"/>
<path d="M16.7365 4.12433V3.07147C16.4791 3.51782 16.1025 3.88682 15.6501 4.13509C15.6558 4.43019 15.8968 4.66757 16.1932 4.66757C16.4933 4.66757 16.7365 4.42443 16.7365 4.12433Z" fill="#407093"/>
<path d="M14.607 4.46362C14.5058 4.47466 14.403 4.48036 14.2988 4.48036H13.7725C13.8721 4.59504 14.0189 4.66753 14.1827 4.66753C14.3544 4.66753 14.5074 4.58794 14.607 4.46362Z" fill="#407093"/>
<path d="M15.6185 8.75871H10.7363C10.4363 8.75871 10.1931 8.5155 10.1931 8.21548C10.1931 7.91538 10.4363 7.67224 10.7363 7.67224H15.6185C15.9185 7.67224 16.1617 7.91545 16.1617 8.21548C16.1617 8.51557 15.9185 8.75871 15.6185 8.75871Z" fill="#BFD8EF"/>
<path d="M8.92305 22.5083H8.07937C7.77934 22.5083 7.53613 22.2651 7.53613 21.965C7.53613 21.665 7.77934 21.4218 8.07937 21.4218H8.92305C9.22307 21.4218 9.46629 21.665 9.46629 21.965C9.46629 22.2651 9.22314 22.5083 8.92305 22.5083V22.5083Z" fill="#665E66"/>
<path d="M8.92305 24.7688H8.07937C7.77934 24.7688 7.53613 24.5256 7.53613 24.2256C7.53613 23.9255 7.77934 23.6824 8.07937 23.6824H8.92305C9.22307 23.6824 9.46629 23.9256 9.46629 24.2256C9.46636 24.5256 9.22314 24.7688 8.92305 24.7688V24.7688Z" fill="#665E66"/>
<path d="M8.92305 27.0294H8.07937C7.77934 27.0294 7.53613 26.7862 7.53613 26.4862C7.53613 26.1861 7.77934 25.9429 8.07937 25.9429H8.92305C9.22307 25.9429 9.46629 26.1861 9.46629 26.4862C9.46636 26.7862 9.22314 27.0294 8.92305 27.0294V27.0294Z" fill="#665E66"/>
<path d="M8.92305 29.2899H8.07937C7.77934 29.2899 7.53613 29.0467 7.53613 28.7467C7.53613 28.4466 7.77934 28.2034 8.07937 28.2034H8.92305C9.22307 28.2034 9.46629 28.4466 9.46629 28.7467C9.46629 29.0467 9.22314 29.2899 8.92305 29.2899V29.2899Z" fill="#665E66"/>
<path d="M6.26852 23.6823H3.61401V24.7689H6.26852C6.56855 24.7689 6.81176 24.5256 6.81176 24.2256C6.81176 23.9255 6.56855 23.6823 6.26852 23.6823Z" fill="#665E66"/>
<path d="M6.81176 26.4861C6.81176 26.186 6.56855 25.9429 6.26852 25.9429H3.61401V27.0294H6.26852C6.56855 27.0294 6.81176 26.7862 6.81176 26.4861Z" fill="#665E66"/>
<path d="M6.26852 21.4218H3.61401V22.5083H6.26852C6.56855 22.5083 6.81176 22.2651 6.81176 21.9651C6.81176 21.665 6.56855 21.4218 6.26852 21.4218Z" fill="#665E66"/>
<path d="M6.81176 28.7467C6.81176 28.4466 6.56855 28.2034 6.26852 28.2034H3.61401V29.29H6.26852C6.56855 29.2899 6.81176 29.0468 6.81176 28.7467Z" fill="#665E66"/>
<path d="M25.9635 32.5749C25.7237 32.5749 25.5042 32.4148 25.4392 32.1722L20.67 14.3735C20.5924 14.0837 20.7644 13.7857 21.0542 13.7081C21.3439 13.6301 21.6419 13.8024 21.7196 14.0922L26.4887 31.8909C26.5663 32.1808 26.3944 32.4787 26.1045 32.5563C26.0574 32.5689 26.0101 32.5749 25.9635 32.5749Z" fill="#AFAAB4"/>
<path d="M25.9636 32.5749C26.0101 32.5749 26.0575 32.5689 26.1046 32.5562C26.3817 32.482 26.5511 32.2063 26.4975 31.929C26.2593 32.1451 26.0029 32.3436 25.7297 32.5217C25.8017 32.5561 25.8815 32.5749 25.9636 32.5749V32.5749Z" fill="#A298A5"/>
<path d="M12.1723 16.6747C12.1723 15.9365 11.5738 15.3379 10.8355 15.3379H3.61401V19.4768H12.1723V16.6747Z" fill="#5C90B9"/>
</g>
<defs>
<clipPath id="clip0_135_1306">
<rect width="36" height="36" fill="white"/>
</clipPath>
</defs>
</svg>
