<svg width="36" height="36" viewBox="0 0 36 36" fill="none" xmlns="http://www.w3.org/2000/svg">
<g clip-path="url(#clip0_135_1450)">
<path d="M22.2354 5.14381V30.8563L21.6658 31.1535C19.5693 32.2462 17.2032 32.8236 14.8236 32.8236L14.252 18.3404L14.8236 3.17651C17.2032 3.17651 19.5693 3.75393 21.6658 4.84663L22.2354 5.14381Z" fill="#2D2D2D"/>
<path d="M14.8235 3.17651V32.8236C6.65012 32.8236 0 26.1735 0 18C0 9.82663 6.65012 3.17651 14.8235 3.17651Z" fill="#4B5055"/>
<path d="M23.9794 18C23.9794 23.0569 19.8804 27.156 14.8234 27.156L14.4194 18L14.8234 8.84399C19.8804 8.84399 23.9794 12.9431 23.9794 18V18Z" fill="#4B5055"/>
<path d="M14.8235 8.84399V27.156C9.76654 27.156 5.66748 23.0569 5.66748 18C5.66748 12.9431 9.76654 8.84399 14.8235 8.84399V8.84399Z" fill="#818181"/>
<path d="M14.8236 16.2353L15.1912 12.9084L14.8236 7.41174C8.98523 7.41174 4.23535 12.1616 4.23535 18C4.23535 23.8383 8.98523 28.5882 14.8236 28.5882L15.1912 25.0497L14.8236 19.7647C13.8502 19.7647 13.0589 18.9734 13.0589 18C13.0589 17.0266 13.8502 16.2353 14.8236 16.2353ZM8.05841 12.9084L11.3732 16.2233C11.2561 16.4506 11.1601 16.6906 11.0895 16.9412H6.41935C6.60712 15.4404 7.18947 14.0604 8.05841 12.9084ZM6.41935 19.0588H11.0895C11.1848 19.3941 11.3224 19.711 11.4996 20.0033L8.213 23.2899C7.25865 22.099 6.61771 20.647 6.41935 19.0588ZM13.7648 21.7341V26.4042C12.2641 26.2164 10.8841 25.6341 9.73206 24.7652L13.0469 21.4503C13.2742 21.5675 13.5142 21.6635 13.7648 21.7341V21.7341ZM12.8203 14.676L9.53371 11.3894C10.7245 10.435 12.1765 9.7941 13.7648 9.59574V14.2659C13.4295 14.3612 13.1125 14.4988 12.8203 14.676Z" fill="#D1D1D6"/>
<path d="M18.1475 20.0033C18.3247 19.711 18.4623 19.3941 18.5576 19.0588H21.1764V16.9412H18.5576C18.487 16.6906 18.391 16.4506 18.2738 16.2233L22.1858 12.312L21.0303 11.1564L21.9367 10.1569C19.9863 8.38657 17.46 7.41174 14.8235 7.41174V16.2353C15.7969 16.2353 16.5882 17.0266 16.5882 18C16.5882 18.9734 15.7969 19.7647 14.8235 19.7647V28.5882C17.4331 28.5882 19.9397 27.6303 21.8823 25.8917L21.1517 25.075L22.1858 24.0409L18.1475 20.0033ZM15.8823 14.2659V9.59574C17.4303 9.78986 18.8929 10.4068 20.1162 11.3866L16.8268 14.676C16.5345 14.4988 16.2176 14.3612 15.8823 14.2659ZM15.8823 26.4042V21.7341C16.1329 21.6635 16.3729 21.5675 16.6002 21.4503L19.9171 24.768C18.7362 25.6574 17.3463 26.22 15.8823 26.4042Z" fill="#B8B8BD"/>
<path d="M35.2858 6.16286L36 7.19366V11.0986L35.7722 12.6038L36 13.6645V17.5694L35.6716 19.0281L36 20.1353V24.0395L35.6045 25.5362L36 26.6054V30.216C36 32.8214 33.8803 34.9412 31.2749 34.9412H29.2942L28.2354 34.6106V1.34888L29.2942 1.05884H31.2749C33.5117 1.05884 35.3906 2.62131 35.8774 4.71213C35.8774 4.71213 35.2858 5.79432 35.2858 6.16286V6.16286Z" fill="#2D2D2D"/>
<path d="M28.2354 1.47467V34.6106L27.1766 34.9412H25.1959C22.5905 34.9412 20.4707 32.8214 20.4707 30.216V26.6054L21.0116 25.7543L20.4707 24.0395V20.1353L21.3639 19.5145L20.4707 17.5694V13.6645L21.4142 13.0735L20.4707 11.0986V7.19366L21.2633 6.22999C21.2633 5.86145 20.5131 5.05667 20.5934 4.71213C21.0802 2.62131 22.959 1.05884 25.1959 1.05884H27.1766L28.2354 1.47467Z" fill="#4B5055"/>
<path d="M29.2941 11.7819V15.6868L36 11.0986V13.6645L29.2941 18.2527V22.1577L36 17.5694V20.1353L29.2941 24.7235V28.6278L36 24.0395V26.6054L29.2941 31.1937V34.9412H28.2353L27.7041 13.4426L28.2353 1.05884H29.2941V9.21602L35.8757 4.71249C35.9562 5.05696 36 5.41554 36 5.78402V7.19366L29.2941 11.7819Z" fill="#4B5055"/>
<path d="M28.2354 1.05884V34.9412H27.1766V31.1937L20.4707 26.6054V24.0395L27.1766 28.6278V24.7235L20.4707 20.1353V17.5694L27.1766 22.1577V18.2527L20.4707 13.6645V11.0986L27.1766 15.6868V11.7819L20.4707 7.19366V5.78402C20.4707 5.41554 20.5145 5.05696 20.5949 4.71249L27.1766 9.21602V1.05884H28.2354Z" fill="#818181"/>
</g>
<defs>
<clipPath id="clip0_135_1450">
<rect width="36" height="36" fill="white"/>
</clipPath>
</defs>
</svg>
