<svg width="36" height="36" viewBox="0 0 36 36" fill="none" xmlns="http://www.w3.org/2000/svg">
<path d="M15.5429 17.3464C17.796 15.8404 19.9104 14.127 21.8508 12.2348C22.7481 11.3598 23.5511 11.3418 24.4667 12.2346C26.4073 14.1269 28.5217 15.8404 30.7749 17.3464C30.7749 17.3464 33.4767 19.0467 35.2885 20.0566C35.7284 20.3019 36 20.7673 36 21.271V28.1806H21.6276C21.6276 28.1806 14.9006 21.3385 13.6538 18.8909L15.5429 17.3464Z" fill="#5F6071"/>
<path d="M35.9997 21.2707V28.1802H34.5361V22.2127C34.5361 21.7084 34.2644 21.2432 33.8246 20.9983C32.0124 19.9883 29.3105 18.2877 29.3105 18.2877C27.0579 16.782 24.9428 15.0684 23.0024 13.1758C22.4973 12.6832 22.0257 12.4679 21.554 12.5208C21.6539 12.4259 21.7525 12.331 21.851 12.2346C22.7481 11.3601 23.5509 11.3419 24.4667 12.2346C26.4071 14.1272 28.5214 15.8401 30.7749 17.3465C30.7749 17.3465 33.4768 19.0464 35.2882 20.0564C35.728 20.3019 35.9997 20.7671 35.9997 21.2707V21.2707Z" fill="#43444F"/>
<path d="M29.1918 22.5973C29.4956 22.5973 29.5781 22.1783 29.2966 22.0642C27.1939 21.2122 25.291 19.869 23.6199 18.3213C21.54 16.395 19.7858 14.1493 18.0415 11.9145C17.0111 10.5942 16.1574 8.42331 14.3956 7.98618C11.7844 7.33832 10.5972 9.66496 9.02672 11.2614C8.15801 12.1444 7.23888 12.9764 6.31969 13.8057C4.45233 15.4904 2.52415 17.1064 0.539719 18.6499C0.200391 18.9139 0.00028125 19.3177 0.000210938 19.7476C0.000140625 20.9022 0 23.1193 0 23.1193V28.1806L17.9282 22.5973H29.1918V22.5973Z" fill="#585966"/>
<path d="M29.1916 22.5974H27.7554C27.7482 22.5938 27.7403 22.5902 27.7322 22.5873C25.5868 21.7178 23.6457 20.3476 21.9414 18.7688C19.8192 16.8038 18.0302 14.5127 16.2506 12.2332C15.1992 10.8862 14.3291 8.67195 12.5314 8.22561C12.435 8.2017 12.3401 8.18138 12.2473 8.16619C12.8552 7.87854 13.5508 7.77708 14.3949 7.98647C16.1571 8.4234 17.0106 10.5942 18.041 11.9144C19.7858 14.1497 21.54 16.3951 23.6194 18.3211C25.2903 19.8688 27.1938 21.2121 29.2965 22.0642C29.5778 22.1786 29.4952 22.5974 29.1916 22.5974V22.5974Z" fill="#43444F"/>
<path d="M26.19 28.1805C22.3159 25.5911 18.6803 22.645 15.3437 19.3913C14.6162 18.682 13.616 17.7181 12.5079 18.1534C12.2783 18.2436 12.0656 18.3758 11.8647 18.5178C11.4989 18.7762 11.1664 19.0791 10.8463 19.3913C7.50973 22.645 3.87408 25.5911 0 28.1805H26.19Z" fill="#5F6071"/>
<path d="M26.1897 28.1803H23.774C20.1642 25.7088 16.7666 22.9242 13.6336 19.8687C13.2756 19.5194 12.4612 18.7449 11.7903 18.571C12.0077 18.4115 12.2387 18.2621 12.4895 18.1607C13.6007 17.7114 14.6154 18.6811 15.3436 19.3912C18.6802 22.6453 22.3154 25.5913 26.1897 28.1803V28.1803Z" fill="#43444F"/>
<path d="M11.7905 13.373C12.1095 13.373 12.3681 13.1144 12.3681 12.7954C12.3681 12.4764 12.1095 12.2178 11.7905 12.2178C11.4715 12.2178 11.2129 12.4764 11.2129 12.7954C11.2129 13.1144 11.4715 13.373 11.7905 13.373Z" fill="#43444F"/>
<path d="M9.77732 14.8221C10.0963 14.8221 10.3549 14.5635 10.3549 14.2445C10.3549 13.9255 10.0963 13.6669 9.77732 13.6669C9.45831 13.6669 9.19971 13.9255 9.19971 14.2445C9.19971 14.5635 9.45831 14.8221 9.77732 14.8221Z" fill="#43444F"/>
<path d="M20.8584 21.1151C21.1774 21.1151 21.436 20.8565 21.436 20.5375C21.436 20.2184 21.1774 19.9598 20.8584 19.9598C20.5394 19.9598 20.2808 20.2184 20.2808 20.5375C20.2808 20.8565 20.5394 21.1151 20.8584 21.1151Z" fill="#43444F"/>
<path d="M33.2558 25.7627C33.5748 25.7627 33.8335 25.5041 33.8335 25.185C33.8335 24.866 33.5748 24.6074 33.2558 24.6074C32.9368 24.6074 32.6782 24.866 32.6782 25.185C32.6782 25.5041 32.9368 25.7627 33.2558 25.7627Z" fill="#43444F"/>
<path d="M32.1006 23.1751C32.4196 23.1751 32.6782 22.9165 32.6782 22.5975C32.6782 22.2785 32.4196 22.0199 32.1006 22.0199C31.7816 22.0199 31.5229 22.2785 31.5229 22.5975C31.5229 22.9165 31.7816 23.1751 32.1006 23.1751Z" fill="#43444F"/>
</svg>
