<svg width="36" height="36" viewBox="0 0 36 36" fill="none" xmlns="http://www.w3.org/2000/svg">
<g clip-path="url(#clip0_135_1184)">
<path d="M13.054 21.5508H18V2.47302C18 1.10715 16.8929 0 15.527 0C14.1611 0 13.054 1.10715 13.054 2.47302V21.5508Z" fill="#FFF35C"/>
<path d="M18 21.5508H22.946V2.47302C22.946 1.10715 21.8389 0 20.473 0C19.1071 0 18 1.10715 18 2.47302V21.5508Z" fill="#FFD236"/>
<path d="M20.8085 33.2307C20.7901 34.7784 19.5206 36.0182 17.9729 35.9998L17.9531 35.9995C16.4054 35.9814 15.1656 34.7116 15.184 33.1639L15.225 29.709L20.8494 29.7757L20.8085 33.2307Z" fill="#82A0D2"/>
<path d="M18.0151 35.9992C19.5433 35.9948 20.7903 34.7643 20.8084 33.2306L20.8493 29.7757L18.0151 29.7419V35.9992Z" fill="#5877A6"/>
<path d="M14.0625 29.6367V25.4784H21.9375V29.6364C21.9375 30.8015 20.9932 31.7458 19.8281 31.7458H16.1719C15.0068 31.7461 14.0625 30.8015 14.0625 29.6367Z" fill="#C9DFF7"/>
<path d="M18.0151 31.7461H19.8282C20.993 31.7461 21.9375 30.8015 21.9375 29.6367V25.4784H18.0151V31.7461Z" fill="#9EBBDB"/>
<path d="M21.8941 26.4627H14.1058C13.6779 26.4627 13.2934 26.2012 13.136 25.8033L11.4672 21.584C11.34 21.2626 11.3804 20.8995 11.5746 20.6139C11.7685 20.3282 12.0918 20.1571 12.437 20.1571H23.5631C23.9084 20.1571 24.2314 20.3282 24.4256 20.6139C24.6198 20.8995 24.6601 21.2626 24.533 21.584L22.8641 25.8033C22.7065 26.2012 22.322 26.4627 21.8941 26.4627V26.4627Z" fill="#DFEEFA"/>
<path d="M23.563 20.1575H18.0151V26.4628H21.8941C22.3221 26.4628 22.7066 26.2016 22.864 25.8036L24.5328 21.584C24.6599 21.263 24.6198 20.8996 24.4257 20.614C24.2315 20.3283 23.9085 20.1575 23.563 20.1575V20.1575Z" fill="#C9DFF7"/>
<path d="M6.65305 12.1691H3.51563C2.93308 12.1691 2.46094 11.6969 2.46094 11.1144C2.46094 10.5318 2.93308 10.0597 3.51563 10.0597H6.65305C7.2356 10.0597 7.70773 10.5318 7.70773 11.1144C7.70773 11.6969 7.2356 12.1691 6.65305 12.1691Z" fill="#FFF35C"/>
<path d="M8.70277 5.81232C8.43278 5.81232 8.16279 5.7096 7.95679 5.5036L5.84687 3.39368C5.43516 2.98169 5.43516 2.314 5.84687 1.90201C6.25886 1.49002 6.92655 1.49002 7.33854 1.90201L9.44846 4.01193C9.86045 4.42392 9.86045 5.09161 9.44846 5.5036C9.24247 5.7096 8.97248 5.81232 8.70277 5.81232Z" fill="#FFF35C"/>
<path d="M6.58378 20.7194C6.31406 20.7194 6.04408 20.6164 5.83808 20.4104C5.42637 19.9987 5.42637 19.3307 5.83808 18.919L7.9763 16.7808C8.38828 16.3688 9.05598 16.3688 9.46796 16.7808C9.87968 17.1925 9.87968 17.8605 9.46796 18.2722L7.32975 20.4104C7.12376 20.6164 6.85377 20.7194 6.58378 20.7194Z" fill="#FFF35C"/>
<path d="M32.4844 12.2528H29.3467C28.7644 12.2528 28.292 11.7807 28.292 11.1981C28.292 10.6158 28.7644 10.1434 29.3467 10.1434H32.4844C33.0669 10.1434 33.5391 10.6158 33.5391 11.1981C33.5391 11.7807 33.0669 12.2528 32.4844 12.2528Z" fill="#FFD236"/>
<path d="M29.407 20.7194C29.1373 20.7194 28.8673 20.6164 28.6613 20.4104L26.5514 18.3005C26.1394 17.8885 26.1394 17.2208 26.5514 16.8088C26.9634 16.3971 27.6311 16.3971 28.0428 16.8088L30.153 18.919C30.5647 19.3307 30.5647 19.9987 30.153 20.4104C29.947 20.6164 29.677 20.7194 29.407 20.7194Z" fill="#FFD236"/>
<path d="M27.2781 5.84061C27.0081 5.84061 26.7381 5.73789 26.5324 5.53189C26.1204 5.1199 26.1204 4.45221 26.5324 4.04022L28.6706 1.90201C29.0823 1.49002 29.75 1.49002 30.162 1.90201C30.574 2.314 30.574 2.98169 30.162 3.39368L28.0238 5.53189C27.8178 5.73761 27.5478 5.84061 27.2781 5.84061V5.84061Z" fill="#FFD236"/>
</g>
<defs>
<clipPath id="clip0_135_1184">
<rect width="36" height="36" fill="white"/>
</clipPath>
</defs>
</svg>
