<svg width="36" height="36" viewBox="0 0 36 36" fill="none" xmlns="http://www.w3.org/2000/svg">
<g clip-path="url(#clip0_135_1213)">
<path d="M23.3312 4.2564V2.23186C23.3312 0.999247 22.332 0 21.0993 0H14.9003C13.6677 0 12.6685 0.999247 12.6685 2.23186V4.2564H23.3312Z" fill="#8B7E8A"/>
<path d="M21.0994 0H18.2744C19.507 0 20.5063 0.999247 20.5063 2.23186V4.2564H23.3312V2.23186C23.3313 0.999247 22.332 0 21.0994 0Z" fill="#7A707A"/>
<path d="M26.3678 3.9032H9.63201C8.39939 3.9032 7.40015 4.76127 7.40015 5.99388V33.7681C7.40015 35.0007 8.39939 36 9.63201 36H26.3678C27.6004 36 28.5996 35.0007 28.5996 33.7681V5.99388C28.5996 4.76127 27.6004 3.9032 26.3678 3.9032V3.9032Z" fill="#049962"/>
<path d="M26.3677 3.76196H23.5427C24.7753 3.76196 25.7746 4.76121 25.7746 5.99382V33.768C25.7746 35.0006 24.7753 35.9999 23.5427 35.9999H26.3677C27.6003 35.9999 28.5995 35.0006 28.5995 33.768V5.99382C28.5995 4.76121 27.6003 3.76196 26.3677 3.76196V3.76196Z" fill="#04794D"/>
<path d="M28.5994 31.9058V33.7679C28.5994 35.0004 27.6006 35.9999 26.3681 35.9999H9.63168C8.39921 35.9999 7.40039 35.0004 7.40039 33.7679V31.9058H28.5994Z" fill="#968A96"/>
<path d="M28.5994 5.99366V7.85578H7.40039V5.99366C7.40039 4.76119 8.39921 3.76166 9.63168 3.76166H26.3681C27.6006 3.76166 28.5994 4.76119 28.5994 5.99366V5.99366Z" fill="#9C909C"/>
<path d="M28.5993 33.7679V31.9058H25.7746V33.7681C25.7746 35.0007 24.7753 35.9999 23.5427 35.9999H26.368C27.6005 35.9999 28.5993 35.0004 28.5993 33.7679Z" fill="#7A707A"/>
<path d="M26.368 3.76166H23.5435L23.5427 3.76201C24.7753 3.76201 25.7746 4.76126 25.7746 5.99387V7.85578H28.5993V5.99366C28.5993 4.76119 27.6005 3.76166 26.368 3.76166V3.76166Z" fill="#7A707A"/>
<path d="M23.064 17.4333H20.1989C19.4498 17.4333 18.9093 16.7157 19.1161 15.9957L20.3818 11.5886C20.6035 10.8166 19.588 10.3141 19.1088 10.9587L12.0163 20.4997C11.4545 21.2555 11.994 22.3287 12.9357 22.3287H15.8008C16.5499 22.3287 17.0904 23.0463 16.8836 23.7663L15.6179 28.1734C15.3962 28.9454 16.4117 29.4479 16.891 28.8032L23.9834 19.2622C24.5451 18.5065 24.0057 17.4333 23.064 17.4333V17.4333Z" fill="url(#paint0_linear_135_1213)"/>
<path d="M23.064 17.4333H20.8236C19.4609 20.0241 16.7435 21.7913 13.6128 21.7913C13.0148 21.7913 12.432 21.7262 11.8706 21.6038C12.0333 22.013 12.4251 22.3287 12.9356 22.3287H15.8007C16.5499 22.3287 17.0904 23.0463 16.8836 23.7663L15.6179 28.1734C15.3961 28.9454 16.4117 29.448 16.8909 28.8033L23.9834 19.2622C24.5451 18.5065 24.0056 17.4333 23.064 17.4333V17.4333Z" fill="url(#paint1_linear_135_1213)"/>
</g>
<defs>
<linearGradient id="paint0_linear_135_1213" x1="12.3293" y1="19.881" x2="21.8393" y2="19.881" gradientUnits="userSpaceOnUse">
<stop stop-color="#FFF9DF"/>
<stop offset="0.593" stop-color="#FFE177"/>
<stop offset="1" stop-color="#FEB137"/>
</linearGradient>
<linearGradient id="paint1_linear_135_1213" x1="15.8115" y1="23.2659" x2="23.2873" y2="23.2659" gradientUnits="userSpaceOnUse">
<stop stop-color="#FFE177"/>
<stop offset="1" stop-color="#FEB137"/>
</linearGradient>
<clipPath id="clip0_135_1213">
<rect width="36" height="36" fill="white"/>
</clipPath>
</defs>
</svg>
