<svg width="36" height="36" viewBox="0 0 36 36" fill="none" xmlns="http://www.w3.org/2000/svg">
<rect x="6.15381" y="4" width="23.6923" height="29.0769" rx="4" fill="#CBE3FA"/>
<path fill-rule="evenodd" clip-rule="evenodd" d="M21.5383 33.0769H25.8462C28.0553 33.0769 29.8462 31.2861 29.8462 29.0769V8C29.8462 7.73688 29.8207 7.4797 29.7723 7.23077H31C31.5523 7.23077 32 6.78305 32 6.23077V5C32 4.44772 31.5523 4 31 4H26.6922C27.2445 4 27.6922 4.44772 27.6922 5V6.23077C27.6922 6.78305 27.2445 7.23077 26.6922 7.23077H25.4644C25.5129 7.4797 25.5383 7.73688 25.5383 8V29.0769C25.5383 31.2861 23.7475 33.0769 21.5383 33.0769Z" fill="#BFD8EF"/>
<path fill-rule="evenodd" clip-rule="evenodd" d="M6.15383 14.7693V29.0769C6.15383 31.2861 7.94468 33.0769 10.1538 33.0769H25.8461C28.0553 33.0769 29.8461 31.2861 29.8461 29.0769V17.4616L6.15383 14.7693Z" fill="#56C3C1"/>
<path fill-rule="evenodd" clip-rule="evenodd" d="M21.5386 33.0281H25.8464C28.0555 33.0281 29.8464 31.2372 29.8464 29.0281V17.4126L25.5386 16.9231L25.5386 29.0281C25.5386 31.2372 23.7477 33.0281 21.5386 33.0281Z" fill="#1AA7A1"/>
<path d="M15.4448 14.894H12.7117V13.2923C12.7117 12.9419 12.4491 12.6577 12.1251 12.6577C11.8012 12.6577 11.5386 12.9419 11.5386 13.2923V22.7506H12.7117V20.7701H13.9637C14.2876 20.7701 14.5502 20.4859 14.5502 20.1355C14.5502 19.785 14.2876 19.5009 13.9637 19.5009H12.7117V16.1632H15.4448C15.7687 16.1632 16.0313 15.879 16.0313 15.5286C16.0313 15.1781 15.7687 14.894 15.4448 14.894V14.894Z" fill="white"/>
<path d="M15.4202 24.0566H12.7117V22.2916H11.5386V27.7929C11.5386 28.1434 11.8012 28.4275 12.1251 28.4275C12.4491 28.4275 12.7117 28.1434 12.7117 27.7929V25.3258H15.4448C15.7747 25.3258 16.041 25.0311 16.031 24.6717C16.0214 24.3244 15.7414 24.0566 15.4202 24.0566V24.0566Z" fill="white"/>
<rect x="4" y="4" width="28" height="3.23077" rx="1" fill="#CBE3FA"/>
</svg>
