<svg width="36" height="36" viewBox="0 0 36 36" fill="none" xmlns="http://www.w3.org/2000/svg">
<path d="M4.448 3.22974V30.8037C4.448 32.5874 7.9053 34.0335 12.1702 34.0335C16.4351 34.0335 19.8924 32.5874 19.8924 30.8037V3.22974H4.448Z" fill="#EFD8BC"/>
<path d="M17.4678 23.0355C17.4678 23.468 17.5887 23.892 17.8169 24.2594C18.286 25.0147 18.3719 25.9468 18.0489 26.7752C17.3492 28.5696 17.4678 27.8822 17.4678 30.8036C17.4678 32.3937 14.7206 33.7153 11.103 33.9836C15.3768 34.3009 19.8923 32.8729 19.8923 30.8037V3.22974H17.4678V23.0355H17.4678Z" fill="#E1C6A4"/>
<path d="M12.1702 6.45953C16.4351 6.45953 19.8924 5.01352 19.8924 3.22977C19.8924 1.44602 16.4351 0 12.1702 0C7.90535 0 4.448 1.44602 4.448 3.22977C4.448 5.01352 7.90535 6.45953 12.1702 6.45953Z" fill="#E1C6A4"/>
<path d="M12.1701 4.22562C13.6695 4.22562 14.8849 3.72223 14.8849 3.10128C14.8849 2.48032 13.6695 1.97693 12.1701 1.97693C10.6708 1.97693 9.45532 2.48032 9.45532 3.10128C9.45532 3.72223 10.6708 4.22562 12.1701 4.22562Z" fill="#C19A68"/>
<path d="M15.6397 17.0858H13.3754V14.8178C13.3754 14.4348 13.0654 14.1243 12.683 14.1243H11.5912C11.2088 14.1243 10.8988 14.4348 10.8988 14.8178V17.0858H8.63456C8.25213 17.0858 7.94214 17.3963 7.94214 17.7794V18.8729C7.94214 19.256 8.25213 19.5665 8.63456 19.5665H10.8988V21.8345C10.8988 22.2176 11.2088 22.5281 11.5912 22.5281H12.683C13.0654 22.5281 13.3754 22.2176 13.3754 21.8345V19.5665H15.6397C16.0221 19.5665 16.3321 19.256 16.3321 18.8729V17.7794C16.3322 17.3964 16.0221 17.0858 15.6397 17.0858V17.0858Z" fill="#FF5A7F"/>
<path d="M27.2461 8.71813C21.5552 6.88475 19.8923 3.22974 19.8923 3.22974V30.7774C19.8923 30.7774 21.3482 33.9773 26.1971 35.8908C27.2094 36.2903 28.3063 35.5443 28.3063 34.4544V10.1851C28.3063 9.51812 27.88 8.92238 27.2461 8.71813V8.71813Z" fill="#EFD8BC"/>
<path d="M25.1275 12.6496C27.3409 14.5531 31.2981 13.1247 31.2981 13.1247L30.563 15.2574L31.5521 16.3902L30.747 17.9328L31.3707 19.4981C31.3707 19.4981 27.2776 20.8944 24.6136 18.7582C24.5181 18.6816 24.4622 18.5658 24.4622 18.4434V12.9478C24.4621 12.6029 24.8659 12.4246 25.1275 12.6496V12.6496Z" fill="#D4DEFF"/>
<path d="M26.2366 13.3025C25.8401 13.1505 25.4637 12.9387 25.1276 12.6496C24.866 12.4246 24.4622 12.6029 24.4622 12.9479V18.4435C24.4622 18.5659 24.5181 18.6817 24.6136 18.7583C25.1161 19.1612 25.6695 19.4383 26.2365 19.623V13.3025H26.2366Z" fill="#ABB8FF"/>
<path d="M25.1275 24.1703C27.3409 26.0739 31.2981 24.6455 31.2981 24.6455L30.563 26.7055L31.4069 27.9109L30.747 29.3809L31.3707 31.0188C31.3707 31.0188 27.2776 32.4151 24.6136 30.2789C24.5181 30.2023 24.4622 30.0865 24.4622 29.9641V24.4686C24.4621 24.1237 24.8659 23.9454 25.1275 24.1703V24.1703Z" fill="#D4DEFF"/>
<path d="M26.2366 24.8232C25.8401 24.6712 25.4637 24.4593 25.1276 24.1703C24.866 23.9454 24.4622 24.1236 24.4622 24.4687V29.9642C24.4622 30.0867 24.5181 30.2024 24.6136 30.279C25.1161 30.6819 25.6695 30.959 26.2365 31.1437V24.8232H26.2366Z" fill="#ABB8FF"/>
</svg>
