<svg width="154" height="32" viewBox="0 0 154 32" fill="none" xmlns="http://www.w3.org/2000/svg">
<path d="M84.8752 11.8791V13.1205H78.9065V5.14806H84.716V6.38948H80.3845V8.46231H84.2272V9.68095H80.3845V11.8791H84.8752Z" fill="#222222"/>
<path d="M89.456 9.76067H87.978V13.1205H86.5228V5.14806H87.978V8.48508H89.5015L91.7866 5.14806H93.3555L90.6383 9.00899L93.4578 13.1205H91.7866L89.456 9.76067Z" fill="#222222"/>
<path d="M98.1224 13.2344C97.3114 13.2344 96.58 13.0597 95.9282 12.7105C95.2764 12.3536 94.7648 11.8639 94.3934 11.2413C94.022 10.6111 93.8363 9.90873 93.8363 9.13427C93.8363 8.3598 94.022 7.66127 94.3934 7.03866C94.7648 6.40846 95.2764 5.91873 95.9282 5.56946C96.58 5.2126 97.3114 5.03417 98.1224 5.03417C98.9334 5.03417 99.6648 5.2126 100.317 5.56946C100.968 5.91873 101.48 6.40466 101.851 7.02727C102.223 7.64988 102.408 8.35221 102.408 9.13427C102.408 9.91632 102.223 10.6187 101.851 11.2413C101.48 11.8639 100.968 12.3536 100.317 12.7105C99.6648 13.0597 98.9334 13.2344 98.1224 13.2344ZM98.1224 11.936C98.6529 11.936 99.1304 11.8183 99.5549 11.5829C99.9793 11.34 100.313 11.0059 100.555 10.5807C100.798 10.1479 100.919 9.66576 100.919 9.13427C100.919 8.60277 100.798 8.12443 100.555 7.69923C100.313 7.26644 99.9793 6.93236 99.5549 6.69699C99.1304 6.45402 98.6529 6.33253 98.1224 6.33253C97.5918 6.33253 97.1143 6.45402 96.6899 6.69699C96.2655 6.93236 95.932 7.26644 95.6894 7.69923C95.4469 8.12443 95.3256 8.60277 95.3256 9.13427C95.3256 9.66576 95.4469 10.1479 95.6894 10.5807C95.932 11.0059 96.2655 11.34 96.6899 11.5829C97.1143 11.8183 97.5918 11.936 98.1224 11.936Z" fill="#222222"/>
<path d="M111.368 8.96343C111.846 9.11528 112.217 9.36205 112.482 9.70373C112.755 10.0378 112.892 10.4326 112.892 10.8882C112.892 11.3665 112.736 11.7841 112.426 12.141C112.115 12.4903 111.698 12.7598 111.175 12.9496C110.66 13.1395 110.095 13.2344 109.481 13.2344C108.95 13.2344 108.416 13.1622 107.878 13.018C107.347 12.8661 106.855 12.6421 106.4 12.346L106.878 11.264C107.226 11.4994 107.613 11.6816 108.037 11.8107C108.462 11.9322 108.882 11.9929 109.299 11.9929C109.898 11.9929 110.394 11.8753 110.788 11.6399C111.19 11.4045 111.391 11.0818 111.391 10.6718C111.391 10.3225 111.247 10.0568 110.959 9.87456C110.671 9.69234 110.273 9.60122 109.765 9.60122H107.912V8.43953H109.652C110.091 8.43953 110.436 8.34841 110.686 8.16619C110.936 7.98396 111.061 7.7372 111.061 7.42589C111.061 7.05385 110.891 6.76532 110.55 6.56032C110.216 6.35531 109.788 6.25281 109.265 6.25281C108.909 6.25281 108.541 6.30596 108.162 6.41226C107.783 6.51096 107.427 6.65902 107.094 6.85643L106.627 5.66057C107.037 5.44038 107.469 5.27714 107.923 5.17084C108.386 5.05695 108.844 5 109.299 5C109.89 5 110.432 5.09111 110.925 5.27334C111.425 5.45557 111.823 5.71752 112.119 6.05919C112.414 6.39327 112.562 6.7881 112.562 7.24367C112.562 7.63849 112.456 7.98396 112.244 8.28008C112.031 8.5762 111.74 8.80398 111.368 8.96343Z" fill="#222222"/>
<path d="M119.843 11.2754H115.864L115.079 13.1205H113.556L117.137 5.14806H118.592L122.185 13.1205H120.639L119.843 11.2754ZM119.354 10.1137L117.853 6.62865L116.364 10.1137H119.354Z" fill="#222222"/>
<path d="M123.926 5.14806L125.802 7.81312L127.678 5.14806H129.406L126.735 8.97482L129.622 13.1205H127.871L125.802 10.2162L123.745 13.1205H122.039L124.916 9.03176L122.221 5.14806H123.926Z" fill="#222222"/>
<path d="M130.622 5.14806H132.077V10.8085L136.352 5.14806H137.728V13.1205H136.272V7.47145L131.998 13.1205H130.622V5.14806Z" fill="#222222"/>
<path d="M143.62 13.2344C142.816 13.2344 142.089 13.0597 141.437 12.7105C140.793 12.3536 140.285 11.8639 139.914 11.2413C139.55 10.6187 139.368 9.91632 139.368 9.13427C139.368 8.35221 139.554 7.64988 139.925 7.02727C140.296 6.40466 140.804 5.91873 141.448 5.56946C142.1 5.2126 142.828 5.03417 143.631 5.03417C144.283 5.03417 144.878 5.14806 145.416 5.37584C145.954 5.60363 146.409 5.93391 146.78 6.3667L145.825 7.26644C145.249 6.64384 144.541 6.33253 143.699 6.33253C143.154 6.33253 142.665 6.45402 142.233 6.69699C141.801 6.93236 141.463 7.26265 141.221 7.68784C140.978 8.11304 140.857 8.59518 140.857 9.13427C140.857 9.67335 140.978 10.1555 141.221 10.5807C141.463 11.0059 141.801 11.34 142.233 11.5829C142.665 11.8183 143.154 11.936 143.699 11.936C144.541 11.936 145.249 11.6209 145.825 10.9907L146.78 11.9018C146.409 12.3346 145.95 12.6649 145.405 12.8927C144.867 13.1205 144.272 13.2344 143.62 13.2344Z" fill="#222222"/>
<path d="M153.839 6.40087H151.202V13.1205H149.735V6.40087H147.109V5.14806H153.839V6.40087Z" fill="#222222"/>
<path d="M48.2632 21.8568L45.8908 26.9143C45.8068 27.0904 45.7175 27.2353 45.6227 27.349C45.5279 27.4627 45.425 27.5521 45.3139 27.6171C45.2056 27.6821 45.0878 27.7268 44.9605 27.7512C44.8359 27.7782 44.7019 27.7918 44.5584 27.7918C44.3634 27.7918 44.2212 27.7742 44.1318 27.739C44.0424 27.7038 43.9978 27.6523 43.9978 27.5846V26.9021H44.3146C44.3742 26.9021 44.4351 26.8967 44.4974 26.8859C44.5597 26.8751 44.6206 26.8534 44.6802 26.8209C44.7425 26.7884 44.8021 26.7424 44.859 26.6828C44.9158 26.6232 44.9687 26.5447 45.0174 26.4472L45.2489 25.9759L42.8928 21.8568H43.9165C44.0113 21.8568 44.0871 21.8798 44.144 21.9258C44.2009 21.9719 44.2483 22.0301 44.2862 22.1005L45.4277 24.2535C45.49 24.3727 45.5455 24.4905 45.5942 24.607C45.6457 24.7234 45.6904 24.8426 45.7283 24.9644C45.7987 24.7207 45.8894 24.4837 46.0005 24.2535L46.9957 22.1005C47.0255 22.0409 47.0702 21.9854 47.1298 21.934C47.1894 21.8825 47.2652 21.8568 47.3573 21.8568H48.2632Z" fill="#222222"/>
<path d="M66.4178 27.7309H65.4266C65.3237 27.7309 65.237 27.7038 65.1666 27.6496C65.0989 27.5954 65.0352 27.5156 64.9757 27.4099L63.7245 25.4357C63.692 25.3788 63.6568 25.3328 63.6189 25.2975C63.5837 25.2596 63.5444 25.2298 63.5011 25.2082C63.4604 25.1838 63.413 25.1676 63.3589 25.1594C63.3074 25.1513 63.2478 25.1472 63.1801 25.1472H62.5261V27.7309H61.4334V21.8568H62.5261V24.3185H63.0786C63.1896 24.3185 63.2858 24.2996 63.367 24.2617C63.4482 24.2237 63.5241 24.1533 63.5945 24.0504L64.8822 22.1493C64.9364 22.0626 65 21.9922 65.0732 21.938C65.1463 21.8839 65.2343 21.8568 65.3372 21.8568H66.2715L64.6751 24.2129C64.6074 24.3158 64.5288 24.4011 64.4394 24.4688C64.3501 24.5365 64.2512 24.5894 64.1429 24.6273C64.3054 24.6733 64.4422 24.7464 64.5532 24.8466C64.6669 24.9441 64.7753 25.0795 64.8782 25.2529L66.4178 27.7309Z" fill="#222222"/>
<path d="M81.5928 24.8101C81.7932 24.8101 81.9679 24.7857 82.1168 24.737C82.2658 24.6855 82.389 24.6137 82.4865 24.5216C82.5867 24.4269 82.6612 24.3131 82.7099 24.1804C82.7586 24.045 82.783 23.8947 82.783 23.7295C82.783 23.5724 82.7586 23.4302 82.7099 23.303C82.6612 23.1757 82.588 23.0673 82.4905 22.978C82.393 22.8886 82.2698 22.8209 82.1209 22.7749C81.9719 22.7261 81.7959 22.7017 81.5928 22.7017H80.7763V24.8101H81.5928ZM81.5928 21.8568C81.9855 21.8568 82.3253 21.9028 82.6124 21.9949C82.8995 22.087 83.1364 22.2156 83.3233 22.3808C83.5102 22.546 83.6483 22.7437 83.7377 22.9739C83.8297 23.2041 83.8758 23.456 83.8758 23.7295C83.8758 24.0139 83.8284 24.2752 83.7336 24.5135C83.6388 24.7491 83.4966 24.9523 83.3071 25.1229C83.1175 25.2935 82.8792 25.4262 82.5921 25.521C82.3077 25.6158 81.9746 25.6632 81.5928 25.6632H80.7763V27.7309H79.6835V21.8568H81.5928Z" fill="#222222"/>
<path d="M100.002 25.5128L99.2866 23.5589C99.2514 23.4722 99.2148 23.3693 99.1769 23.2502C99.139 23.131 99.1011 23.0024 99.0631 22.8642C99.0279 23.0024 98.9914 23.1323 98.9535 23.2542C98.9155 23.3734 98.879 23.4776 98.8438 23.567L98.1329 25.5128H100.002ZM101.931 27.7309H101.086C100.991 27.7309 100.914 27.7078 100.855 27.6618C100.795 27.613 100.75 27.5535 100.721 27.4831L100.282 26.2847H97.8485L97.4098 27.4831C97.3881 27.5453 97.3461 27.6022 97.2839 27.6537C97.2216 27.7051 97.143 27.7309 97.0482 27.7309H96.1992L98.5066 21.8568H99.6237L101.931 27.7309Z" fill="#222222"/>
<path d="M116.217 27.7309H115.121V21.8568H116.217V27.7309ZM115.336 20.959C115.336 21.0321 115.321 21.1012 115.291 21.1662C115.261 21.2312 115.221 21.2881 115.169 21.3368C115.121 21.3856 115.062 21.4235 114.995 21.4506C114.927 21.4776 114.855 21.4912 114.779 21.4912C114.709 21.4912 114.641 21.4776 114.576 21.4506C114.514 21.4235 114.458 21.3856 114.41 21.3368C114.361 21.2881 114.322 21.2312 114.292 21.1662C114.262 21.1012 114.247 21.0321 114.247 20.959C114.247 20.8859 114.262 20.8168 114.292 20.7518C114.322 20.6841 114.361 20.6259 114.41 20.5772C114.458 20.5257 114.514 20.4851 114.576 20.4553C114.641 20.4255 114.709 20.4106 114.779 20.4106C114.855 20.4106 114.927 20.4255 114.995 20.4553C115.062 20.4851 115.121 20.5257 115.169 20.5772C115.221 20.6259 115.261 20.6841 115.291 20.7518C115.321 20.8168 115.336 20.8859 115.336 20.959ZM117.123 20.959C117.123 21.0321 117.108 21.1012 117.079 21.1662C117.052 21.2312 117.012 21.2881 116.961 21.3368C116.912 21.3856 116.854 21.4235 116.786 21.4506C116.721 21.4776 116.652 21.4912 116.579 21.4912C116.503 21.4912 116.431 21.4776 116.364 21.4506C116.299 21.4235 116.242 21.3856 116.193 21.3368C116.144 21.2881 116.105 21.2312 116.075 21.1662C116.048 21.1012 116.035 21.0321 116.035 20.959C116.035 20.8859 116.048 20.8168 116.075 20.7518C116.105 20.6841 116.144 20.6259 116.193 20.5772C116.242 20.5257 116.299 20.4851 116.364 20.4553C116.431 20.4255 116.503 20.4106 116.579 20.4106C116.652 20.4106 116.721 20.4255 116.786 20.4553C116.854 20.4851 116.912 20.5257 116.961 20.5772C117.012 20.6259 117.052 20.6841 117.079 20.7518C117.108 20.8168 117.123 20.8859 117.123 20.959Z" fill="#222222"/>
<path d="M135.078 21.8568V27.7309H133.981V25.1635H131.222V27.7309H130.126V21.8568H131.222V24.3835H133.981V21.8568H135.078Z" fill="#222222"/>
<path d="M152.07 25.5128L151.355 23.5589C151.32 23.4722 151.283 23.3693 151.246 23.2502C151.208 23.131 151.17 23.0024 151.132 22.8642C151.097 23.0024 151.06 23.1323 151.022 23.2542C150.984 23.3734 150.948 23.4776 150.912 23.567L150.202 25.5128H152.07ZM154 27.7309H153.155C153.06 27.7309 152.983 27.7078 152.923 27.6618C152.864 27.613 152.819 27.5535 152.789 27.4831L152.351 26.2847H149.917L149.478 27.4831C149.457 27.5453 149.415 27.6022 149.353 27.6537C149.29 27.7051 149.212 27.7309 149.117 27.7309H148.268L150.575 21.8568H151.692L154 27.7309Z" fill="#222222"/>
<path d="M48.8378 6.43281H46.1633V13.2344H44.6762V6.43281H42.0132V5.16472H48.8378V6.43281Z" fill="#222222"/>
<path d="M53.7529 13.3497C52.9305 13.3497 52.1889 13.1729 51.5279 12.8194C50.867 12.4582 50.3482 11.9625 49.9716 11.3323C49.595 10.6944 49.4068 9.98347 49.4068 9.19956C49.4068 8.41565 49.595 7.70859 49.9716 7.07839C50.3482 6.4405 50.867 5.94479 51.5279 5.59126C52.1889 5.23005 52.9305 5.04944 53.7529 5.04944C54.5752 5.04944 55.3168 5.23005 55.9778 5.59126C56.6387 5.94479 57.1575 6.43665 57.5341 7.06686C57.9107 7.69706 58.099 8.40796 58.099 9.19956C58.099 9.99116 57.9107 10.7021 57.5341 11.3323C57.1575 11.9625 56.6387 12.4582 55.9778 12.8194C55.3168 13.1729 54.5752 13.3497 53.7529 13.3497ZM53.7529 12.0355C54.2908 12.0355 54.775 11.9164 55.2054 11.6781C55.6358 11.4322 55.9739 11.094 56.2199 10.6636C56.4658 10.2256 56.5888 9.73754 56.5888 9.19956C56.5888 8.66158 56.4658 8.1774 56.2199 7.74702C55.9739 7.30895 55.6358 6.97079 55.2054 6.73254C54.775 6.48661 54.2908 6.36364 53.7529 6.36364C53.2149 6.36364 52.7307 6.48661 52.3003 6.73254C51.8699 6.97079 51.5318 7.30895 51.2858 7.74702C51.0399 8.1774 50.9169 8.66158 50.9169 9.19956C50.9169 9.73754 51.0399 10.2256 51.2858 10.6636C51.5318 11.094 51.8699 11.4322 52.3003 11.6781C52.7307 11.9164 53.2149 12.0355 53.7529 12.0355Z" fill="#222222"/>
<path d="M65.0703 9.03817C65.5852 9.1765 65.9772 9.41475 66.2462 9.75291C66.5152 10.0834 66.6497 10.4984 66.6497 10.9979C66.6497 11.705 66.3884 12.2545 65.8658 12.6465C65.3431 13.0384 64.5861 13.2344 63.5947 13.2344H59.7674V5.16472H63.3757C64.2826 5.16472 64.9896 5.34533 65.4969 5.70654C66.0041 6.06776 66.2577 6.57883 66.2577 7.23978C66.2577 7.66248 66.154 8.02753 65.9464 8.33495C65.7466 8.64237 65.4546 8.87677 65.0703 9.03817ZM61.243 8.61163H63.2489C63.7331 8.61163 64.1019 8.51556 64.3556 8.32342C64.6092 8.13129 64.736 7.84693 64.736 7.47034C64.736 7.09376 64.6092 6.8094 64.3556 6.61726C64.1019 6.41744 63.7331 6.31753 63.2489 6.31753H61.243V8.61163ZM63.5486 12.0816C64.6092 12.0816 65.1395 11.6819 65.1395 10.8827C65.1395 10.0988 64.6092 9.7068 63.5486 9.7068H61.243V12.0816H63.5486Z" fill="#222222"/>
<path d="M12.0042 30.6257C-1.48459 21.8137 2.28274 3.46418 2.22861 0.822723C-0.48863 7.41554 0.0418265 14.2249 0.0418265 16.0003C0.0418265 23.5782 5.30309 29.9112 12.3614 31.5676C12.2532 31.2969 12.0583 30.7773 12.0042 30.6257Z" fill="url(#paint0_linear_135_1506)"/>
<path d="M24.7894 2.60901C25.5472 13.1748 10.6728 20.5038 13.6499 29.7814C17.7528 26.4579 23.9883 20.6121 25.7962 14.6255C24.8761 18.5335 22.3212 25.4619 15.2196 31.979C24.4106 32.4445 32.0318 25.1155 32.0318 16.0003C32.0318 10.3926 29.1522 5.46698 24.7894 2.60901Z" fill="url(#paint1_linear_135_1506)"/>
<path d="M16.0421 0C12.7187 0 9.74161 1.50476 8.07447 2.46825C5.46548 0.822749 4.09063 0.822749 2.97559 0.530457C3.94989 1.65632 15.2519 7.41557 12.1341 15.3508C10.5968 19.2588 10.9974 23.1019 10.9974 25.6784C6.24493 19.7027 5.38971 14.3115 5.38971 14.3115C5.27062 20.1249 9.21116 26.0898 11.5603 29.0452C10.9108 15.3616 23.934 7.87025 24.2155 2.25173C21.823 0.822749 19.03 0 16.0421 0Z" fill="url(#paint2_linear_135_1506)"/>
<defs>
<linearGradient id="paint0_linear_135_1506" x1="6.18137" y1="-0.872483" x2="6.18137" y2="35.6115" gradientUnits="userSpaceOnUse">
<stop offset="0.109375" stop-color="#B4EA6F"/>
<stop offset="1" stop-color="#225B20"/>
</linearGradient>
<linearGradient id="paint1_linear_135_1506" x1="22.6446" y1="0.988451" x2="22.6446" y2="35.8658" gradientUnits="userSpaceOnUse">
<stop offset="0.109375" stop-color="#B4EA6F"/>
<stop offset="1" stop-color="#225B20"/>
</linearGradient>
<linearGradient id="paint2_linear_135_1506" x1="13.5967" y1="-1.60149" x2="13.5967" y2="32.8656" gradientUnits="userSpaceOnUse">
<stop offset="0.109375" stop-color="#B4EA6F"/>
<stop offset="1" stop-color="#225B20"/>
</linearGradient>
</defs>
</svg>
