<svg width="36" height="36" viewBox="0 0 36 36" fill="none" xmlns="http://www.w3.org/2000/svg">
<g clip-path="url(#clip0_135_1023)">
<path d="M32.6589 4.86164C32.4903 4.77997 32.2933 4.7817 32.1261 4.86644L29.5404 6.1779L27.5168 2.70187C26.8241 1.40354 25.4697 0.595277 23.9982 0.602101H13.9985C12.5054 0.605701 11.1223 1.38742 10.3491 2.66468L8.48925 5.68715C8.31737 5.96642 8.40151 6.33193 8.67823 6.50786L15.2775 10.7074C15.3737 10.7685 15.4852 10.8009 15.5991 10.801C15.6489 10.8011 15.6984 10.7948 15.7467 10.7824C15.9068 10.7418 16.0431 10.637 16.1234 10.4926L18.6432 5.95892L21.4029 11.1784L18.8903 12.686C18.6697 12.8183 18.558 13.0765 18.6126 13.3279C18.6669 13.5792 18.8754 13.7679 19.1309 13.7971L28.0597 14.8122C28.0822 14.8146 28.1049 14.8158 28.1275 14.8158C28.3575 14.8158 28.5672 14.6844 28.6675 14.4774L32.9372 5.66315C33.0816 5.36491 32.9571 5.00607 32.6589 4.86164ZM15.3837 9.35268L9.82051 5.81306L11.3743 3.28854C11.9294 2.36861 12.9241 1.80505 13.9985 1.8019H16.4342L17.9208 4.78657L15.3837 9.35268ZM27.773 13.572L21.0249 12.8047L22.5073 11.915C22.7802 11.7509 22.8774 11.4023 22.7287 11.1207L17.8014 1.8019H23.9982C25.0402 1.8004 25.9966 2.37843 26.4795 3.30173L28.7881 7.2691C28.9483 7.54327 29.2944 7.64504 29.5776 7.50128L31.081 6.73936L27.773 13.572Z" fill="#609B44"/>
<path d="M35.4748 17.4026L33.5358 13.5294C33.3877 13.233 33.0274 13.1128 32.731 13.2608C32.719 13.2667 32.7073 13.2731 32.6959 13.2799L25.4966 17.4794C25.2145 17.6439 25.1159 18.0039 25.2747 18.2893L27.7776 22.7996H22.1982V20.3999C22.1984 20.0686 21.9298 19.7999 21.5985 19.7997C21.4294 19.7997 21.2681 19.871 21.1543 19.9961L15.155 26.5954C14.9595 26.8106 14.9463 27.1349 15.1238 27.3651L21.1231 35.1643C21.3254 35.4267 21.7021 35.4754 21.9645 35.2732C22.1118 35.1596 22.1981 34.9843 22.1982 34.7983V32.9985H26.3977C27.877 33.035 29.2457 32.2181 29.9158 30.8988L34.1153 23.7031L35.3632 21.6874C36.1703 20.3838 36.213 18.7465 35.4748 17.4026ZM28.8725 30.3084C28.4102 31.2466 27.4432 31.8289 26.3977 31.7987H21.5983C21.267 31.7987 20.9983 32.0673 20.9983 32.3986V33.0345L16.3788 27.0316L20.9983 21.9513V23.3996C20.9983 23.7309 21.267 23.9995 21.5983 23.9995H32.5525L28.8725 30.3084ZM34.3403 21.0586L33.2604 22.7984H29.1502L26.6077 18.2227L32.7469 14.6405L34.4117 17.9642C34.9491 18.9327 34.9218 20.1159 34.3403 21.0586Z" fill="#609B44"/>
<path d="M14.3439 18.3487L10.7443 10.5496C10.6408 10.3241 10.4093 10.1855 10.1617 10.201L0.562789 10.8009C0.232075 10.8215 -0.019373 11.1061 0.0011748 11.4369C0.0132485 11.6309 0.118537 11.8072 0.283819 11.9096L0.284419 11.9108L3.2505 13.7502L1.27071 17.7146C0.553115 19.0183 0.55724 20.5997 1.28151 21.8997L4.62015 27.6651L6.44575 30.8274C7.22979 32.1592 8.65411 32.9831 10.1995 32.9985H12.5993C12.9306 32.9985 13.1992 32.7299 13.1992 32.3986V23.9995C13.1992 23.6682 12.9306 23.3996 12.5993 23.3996H8.11717L11.1096 18.2071L13.5838 19.1598C13.893 19.2787 14.2402 19.1243 14.359 18.8151C14.4172 18.664 14.4117 18.4958 14.3439 18.3487ZM11.9993 24.5994V31.7987H10.1995C9.08156 31.7879 8.05095 31.192 7.48364 30.2286L5.83682 27.3753L7.53583 24.5994H11.9993ZM11.0617 16.9029C10.786 16.797 10.4742 16.9074 10.3267 17.1632L5.13729 26.1671L2.32 21.2998C1.8021 20.3535 1.80983 19.2069 2.3404 18.2677L4.57155 13.7958C4.71126 13.5179 4.61542 13.1793 4.35078 13.0159L2.51558 11.8808L9.82698 11.4255L12.6347 17.5088L11.0617 16.9029Z" fill="#609B44"/>
</g>
<defs>
<clipPath id="clip0_135_1023">
<rect width="36" height="36" fill="white"/>
</clipPath>
</defs>
</svg>
