<svg width="16" height="16" viewBox="0 0 16 16" fill="none" xmlns="http://www.w3.org/2000/svg">
<g clip-path="url(#clip0_238_954)">
<path d="M7.88593 7.70724C8.94476 7.70724 9.86163 7.32748 10.6108 6.57822C11.3599 5.82908 11.7397 4.91246 11.7397 3.8535C11.7397 2.79491 11.3599 1.87817 10.6107 1.12878C9.86139 0.379759 8.94464 0 7.88593 0C6.82697 0 5.91034 0.379759 5.16119 1.1289C4.41205 1.87804 4.03217 2.79479 4.03217 3.8535C4.03217 4.91246 4.41205 5.8292 5.16132 6.57834C5.91058 7.32736 6.82733 7.70724 7.88593 7.70724V7.70724Z" fill="#46515B"/>
<path d="M14.629 12.3031C14.6074 11.9914 14.5637 11.6513 14.4994 11.2922C14.4344 10.9303 14.3508 10.5883 14.2507 10.2757C14.1473 9.95257 14.0067 9.63348 13.8329 9.32769C13.6525 9.01031 13.4406 8.73394 13.2028 8.50653C12.9541 8.26861 12.6497 8.07733 12.2976 7.9378C11.9468 7.79901 11.558 7.7287 11.1421 7.7287C10.9788 7.7287 10.8208 7.79572 10.5157 7.99432C10.328 8.11676 10.1084 8.25836 9.86328 8.41498C9.65369 8.54852 9.36975 8.67364 9.01904 8.78692C8.67688 8.89764 8.32947 8.95379 7.98657 8.95379C7.64368 8.95379 7.29639 8.89764 6.95386 8.78692C6.60352 8.67376 6.31958 8.54864 6.11023 8.4151C5.86743 8.25995 5.64771 8.11835 5.45715 7.9942C5.15247 7.79559 4.99438 7.72858 4.83105 7.72858C4.41504 7.72858 4.02637 7.79901 3.67566 7.93793C3.32385 8.07721 3.01929 8.26849 2.77039 8.50665C2.53271 8.73419 2.32068 9.01043 2.1405 9.32769C1.9668 9.63348 1.82617 9.95244 1.72266 10.2758C1.62268 10.5884 1.53906 10.9303 1.47412 11.2922C1.40979 11.6508 1.36609 11.991 1.34448 12.3035C1.32324 12.6097 1.3125 12.9274 1.3125 13.2483C1.3125 14.0835 1.578 14.7597 2.10156 15.2583C2.61865 15.7504 3.30286 16 4.13489 16H11.839C12.671 16 13.355 15.7505 13.8722 15.2583C14.3959 14.76 14.6614 14.0838 14.6614 13.2482C14.6613 12.9258 14.6504 12.6078 14.629 12.3031V12.3031Z" fill="#46515B"/>
</g>
<defs>
<clipPath id="clip0_238_954">
<rect width="16" height="16" fill="white"/>
</clipPath>
</defs>
</svg>
