<svg width="47" height="47" viewBox="0 0 47 47" fill="none" xmlns="http://www.w3.org/2000/svg">
<path d="M43.9248 7.66504H8.58301C6.88734 7.66504 5.50781 9.04456 5.50781 10.7402V17.3037H0.688477C0.308254 17.3037 0 17.6119 0 17.9922C0 18.3725 0.308254 18.6807 0.688477 18.6807H8.9502C9.33042 18.6807 9.63867 18.3725 9.63867 17.9922C9.63867 17.6119 9.33042 17.3037 8.9502 17.3037H6.88477V10.7402C6.88477 10.5252 6.92653 10.3202 6.99979 10.1307L20.3691 23.5L6.99979 36.8693C6.92653 36.6798 6.88477 36.4748 6.88477 36.2598V31.7617C6.88477 31.3814 6.57651 31.0732 6.19629 31.0732C5.81607 31.0732 5.50781 31.3814 5.50781 31.7617V36.2598C5.50781 37.9554 6.88734 39.335 8.58301 39.335H43.9248C45.6205 39.335 47 37.9554 47 36.2598V10.7402C47 9.04456 45.6205 7.66504 43.9248 7.66504ZM32.1387 23.5L45.508 10.1307C45.5813 10.3202 45.623 10.5252 45.623 10.7402V36.2598C45.623 36.4748 45.5813 36.6798 45.508 36.8693L32.1387 23.5ZM43.9248 9.04199C44.1398 9.04199 44.3449 9.08376 44.5343 9.15701L29.1749 24.5165C27.5643 26.1272 24.9436 26.1272 23.3329 24.5165L7.97348 9.15701C8.16295 9.08376 8.36802 9.04199 8.58301 9.04199H43.9248ZM8.58301 37.958C8.36802 37.958 8.16295 37.9162 7.97348 37.843L21.3428 24.4737L22.3593 25.4902C23.4331 26.5639 24.8435 27.1008 26.254 27.1008C27.6645 27.1008 29.0748 26.5639 30.1486 25.4902L31.1651 24.4737L44.5344 37.843C44.345 37.9162 44.1399 37.958 43.9249 37.958H8.58301Z" fill="#68AC4E"/>
<path d="M6.19629 20.0576C5.81607 20.0576 5.50781 20.3658 5.50781 20.7461V22.8115H0.688477C0.308254 22.8115 0 23.1197 0 23.5C0 23.8803 0.308254 24.1885 0.688477 24.1885H11.7041C12.0843 24.1885 12.3926 23.8803 12.3926 23.5C12.3926 23.1197 12.0843 22.8115 11.7041 22.8115H6.88477V20.7461C6.88477 20.3658 6.57651 20.0576 6.19629 20.0576Z" fill="#68AC4E"/>
<path d="M8.9502 29.6963C9.33042 29.6963 9.63867 29.3881 9.63867 29.0078C9.63867 28.6275 9.33042 28.3193 8.9502 28.3193H6.88477V26.2539C6.88477 25.8736 6.57651 25.5654 6.19629 25.5654C5.81607 25.5654 5.50781 25.8736 5.50781 26.2539V28.3193H0.688477C0.308254 28.3193 0 28.6275 0 29.0078C0 29.3881 0.308254 29.6963 0.688477 29.6963H8.9502Z" fill="#68AC4E"/>
</svg>
