<svg width="0" height="0" class="hidden">
  <symbol fill="none" xmlns="http://www.w3.org/2000/svg" viewBox="0 0 54 54" id="chat">
    <g clip-path="url(#clip0_135_1053)">
      <path d="M42.3224 0H5.5226C3.49633 0 1.85376 1.64257 1.85376 3.66894V10.3179C1.85376 12.3442 3.49644 13.9868 5.5227 13.9868H9.07025L9.67669 14.5899H13.9745L14.6996 13.9868H42.3224C44.3487 13.9868 45.9913 12.3442 45.9913 10.3179V3.66894C45.9913 1.64257 44.3487 0 42.3224 0V0Z" fill="#95D6A4"></path>
      <path d="M8.45118 13.9868C8.92495 13.9868 9.28333 14.4155 9.19938 14.8818L8.37187 19.4765C8.29878 19.8821 8.78647 20.1451 9.08536 19.8614L15.0539 14.1956C15.1952 14.0616 15.3826 13.9868 15.5774 13.9868H8.45118Z" fill="#78C2A4"></path>
      <path d="M48.4773 0H41.6105C43.6368 0 45.2794 1.64257 45.2794 3.66894V10.3179C45.2794 12.3442 43.6369 13.9868 41.6106 13.9868H38.4226C38.6174 13.9868 38.8047 14.0616 38.9461 14.1957L44.9146 19.8615C45.2135 20.1452 45.7011 19.8821 45.6281 19.4765L44.8006 14.8819C44.7167 14.4156 45.0751 13.9868 45.5488 13.9868H48.4773C50.5035 13.9868 52.1462 12.3442 52.1462 10.3179V3.66894C52.1461 1.64257 50.5035 0 48.4773 0V0Z" fill="#78C2A4"></path>
      <path d="M6.0921 52.5749C5.60515 49.8652 7.60632 47.3429 10.3558 47.2012C12.7885 47.0757 14.6955 45.0645 14.6916 42.6285L14.6703 29.5699C14.6703 29.0185 14.6267 28.3744 14.5282 27.7253C14.3815 26.7631 14.1878 26.1706 14.0436 25.7112H8.8942C5.15828 25.7112 2.12964 28.7398 2.12964 32.4757V52.8942H6.14948L6.0921 52.5749Z" fill="#D5985C"></path>
      <path d="M22.3471 38.5307L20.9468 35.5912C20.8637 35.4167 20.8194 35.2264 20.817 35.0331L20.7904 32.8827C20.7904 30.1803 19.8541 27.6817 18.2874 25.7112H13.0732C13.0982 25.9016 13.142 26.0912 13.2065 26.2773C13.6167 27.4605 13.8399 28.7296 13.8399 30.0474L13.86 42.3906C13.8638 44.6932 12.0612 46.5942 9.76171 46.7129C7.16285 46.8469 5.27127 49.2309 5.73154 51.7922L5.92961 52.8942H12.304L11.8147 49.8009C11.649 48.7537 12.4588 47.8064 13.519 47.8071L17.5129 47.8098C18.7635 47.8117 19.7784 46.7985 19.7785 45.548L19.7788 41.804C19.7789 41.0597 20.3761 40.4303 21.1203 40.4415C22.1122 40.4563 22.773 39.4248 22.3471 38.5307Z" fill="#C38959"></path>
      <path d="M7.3397 41.5682V39.9145C7.3397 39.0334 7.74754 38.2018 8.44417 37.6623L11.2839 35.4635C12.3437 34.643 12.964 33.3781 12.964 32.0377C12.964 30.6505 13.6168 29.4165 14.631 28.6235C14.6078 28.331 14.5741 28.0289 14.528 27.7253C14.2939 26.1902 13.94 25.5956 13.859 24.9823H13.8597C13.8148 24.6407 13.8292 24.2968 13.8984 23.9631L13.56 23.6807H9.43409C3.46794 23.6807 -0.989804 29.1655 0.229837 35.0057L2.12943 44.1021H4.80581C6.20528 44.1021 7.3397 42.9676 7.3397 41.5682Z" fill="#73483B"></path>
      <path d="M20.9027 23.6807H13.56C13.046 24.4454 12.9018 25.3986 13.2064 26.2773C13.554 27.28 13.7655 28.3449 13.8225 29.4485C14.6125 28.3903 15.8745 27.705 17.2966 27.705H17.8425C19.7989 27.705 21.3847 26.1191 21.3847 24.1629C21.3849 23.8966 21.169 23.6807 20.9027 23.6807Z" fill="#925D4C"></path>
      <path d="M6.17851 50.5107L1.54537 50.0646C0.817742 49.9946 0.187988 50.5667 0.187988 51.2977V52.7614C0.187988 53.4454 0.742543 54.0001 1.42672 54.0001H7.33761L7.68038 53.4815V52.4954C7.68038 51.553 7.04736 50.7569 6.17851 50.5107Z" fill="#E28086"></path>
      <path d="M13.0844 51.1754L5.57349 50.4524C6.57481 50.5993 7.33777 51.4603 7.33777 52.4953V54.0001H12.9658C13.6499 54.0001 14.2045 53.4455 14.2045 52.7613V52.4083C14.2044 51.7702 13.7196 51.2366 13.0844 51.1754Z" fill="#DD636E"></path>
      <path d="M41.696 52.8944H45.7421V45.9713C45.7421 44.7286 45.8701 43.4891 46.1242 42.2727L46.9401 38.3658L47.6418 35.006C48.3801 31.4678 47.0352 27.9039 44.2766 25.7114H35.7127C34.1459 27.682 33.2097 30.1806 33.2097 32.8831L33.1831 35.0335C33.1806 35.2267 33.1363 35.4171 33.0533 35.5915L31.653 38.531C31.2271 39.4251 31.8879 40.4567 32.8799 40.4417C33.6241 40.4304 34.2213 41.06 34.2213 41.8043L34.2216 45.5482C34.2217 46.7987 35.2365 47.812 36.4872 47.8101L40.4811 47.8073C41.5413 47.8066 42.351 48.7539 42.1854 49.8011L41.696 52.8944Z" fill="#FFDDCE"></path>
      <path d="M45.106 25.7112H43.5383C46.2042 27.8299 47.6673 31.3481 46.9035 35.0057L45.3859 42.2724C45.1319 43.4889 45.0038 44.7284 45.0038 45.9711V52.8942H51.8706V32.4757C51.8706 28.7398 48.842 25.7112 45.106 25.7112Z" fill="#FFCBBE"></path>
      <path d="M46.6543 39.7345L46.9401 38.3658L47.6418 35.0059C48.3802 31.4678 47.0352 27.9039 44.2766 25.7114C42.6859 24.4471 40.6671 23.6809 38.4374 23.6809H33.0972C32.8309 23.6809 32.615 23.8968 32.615 24.1631C32.615 26.1195 34.2009 27.7053 36.1572 27.7053H36.7032C39.096 27.7053 41.0359 29.6451 41.0359 32.038C41.0359 33.3784 41.6563 34.6432 42.7161 35.4639L45.5558 37.6627C46.2049 38.165 46.6027 38.921 46.6543 39.7345Z" fill="#E49542"></path>
      <path d="M44.566 23.6807H37.6992C43.6654 23.6807 48.1231 29.1655 46.9035 35.0057L46.2018 38.3655C46.4972 38.8213 46.6604 39.358 46.6604 39.9145V41.5683C46.6604 42.9676 47.7948 44.1021 49.1941 44.1021H51.8705L53.7701 35.0057C54.9899 29.1655 50.5321 23.6807 44.566 23.6807Z" fill="#E27D47"></path>
      <path d="M45.277 50.7556L40.9159 51.1754C40.2806 51.2366 39.7959 51.7702 39.7959 52.4084V52.7614C39.7959 53.4455 40.3505 54.0002 41.0345 54.0002H46.9454L47.0333 53.72V52.6225C47.0332 51.6177 46.2463 50.8151 45.277 50.7556Z" fill="#B1E4F9"></path>
      <path d="M52.4548 50.0646L44.9666 50.7855C46.0333 50.7143 46.9455 51.5587 46.9455 52.6355V54.0001H52.5735C53.2576 54.0001 53.8122 53.4455 53.8122 52.7614V51.2976C53.8122 50.5667 53.1825 49.9946 52.4548 50.0646Z" fill="#90D8F9"></path>
      <path d="M45.9221 5.53791H8.07804C7.628 5.53791 7.26318 5.17309 7.26318 4.72305C7.26318 4.27302 7.628 3.9082 8.07804 3.9082H45.9222C46.3724 3.9082 46.7371 4.27302 46.7371 4.72305C46.7371 5.17309 46.3723 5.53791 45.9221 5.53791Z" fill="#F0F7FF"></path>
      <path d="M27.0001 9.63703H8.07804C7.628 9.63703 7.26318 9.27221 7.26318 8.82218C7.26318 8.37204 7.628 8.00732 8.07804 8.00732H27.0001C27.4502 8.00732 27.8149 8.37214 27.8149 8.82218C27.8149 9.27221 27.4502 9.63703 27.0001 9.63703Z" fill="#F0F7FF"></path>
    </g>
    <defs>
      <clipPath id="clip0_135_1053">
        <rect width="54" height="54" fill="white"></rect>
      </clipPath>
    </defs>
  </symbol>
  <symbol fill="none" xmlns="http://www.w3.org/2000/svg" viewBox="0 0 54 54" id="contract">
    <g clip-path="url(#clip0_135_1087)">
      <path d="M39.5007 9.49219H31.5905V1.58203C31.5905 0.695988 30.8945 0 30.0085 0H4.74609C2.11971 0 0 2.11982 0 4.74609V49.2539C0 51.88 2.11971 54 4.74609 54H36.3366C38.963 54 41.0827 51.88 41.0827 49.2539V11.0742C41.0827 10.1882 40.3867 9.49219 39.5007 9.49219Z" fill="#FFF9E9"></path>
      <path d="M41.0828 11.0742V49.2539C41.0828 51.88 38.9631 54 36.3367 54H20.5164V0H30.0085C30.8946 0 31.5906 0.695988 31.5906 1.58203V9.49219H39.5007C40.3868 9.49219 41.0828 10.1882 41.0828 11.0742Z" fill="#FFF4D6"></path>
      <path d="M41.0828 12.6562H30.0085C29.1341 12.6562 28.4265 11.9487 28.4265 11.0742V0H31.8748C33.1169 0 34.3343 0.503613 35.212 1.3827L39.7015 5.87387C40.579 6.75454 41.0828 7.9688 41.0828 9.20784V12.6562Z" fill="#FAE19E"></path>
      <path d="M52.6001 16.9593C50.8285 15.1558 47.6644 15.1558 45.8923 16.9593L44.2786 18.6047L43.1396 19.7121C42.5065 20.3132 42.5065 21.3257 43.1396 21.9269L45.3859 24.1735L47.6326 26.4199C48.202 27.0527 49.2781 27.0527 49.8474 26.4199L50.9864 25.3126L52.6001 23.6671C54.4668 21.8952 54.4668 18.7311 52.6001 16.9593Z" fill="#FED23A"></path>
      <path d="M34.5647 34.9945L31.3056 31.7354C31.2427 31.6722 31.1793 31.6722 31.116 31.7354L31.0214 31.7988C30.8313 31.9886 30.7047 32.2101 30.6413 32.4316L28.3949 39.171C28.1732 39.8037 28.3633 40.4049 28.7746 40.7847V40.8161C29.2176 41.2275 29.8186 41.3857 30.3883 41.1643L37.1277 38.9177C37.3494 38.8543 37.5707 38.7278 37.7604 38.538L37.8238 38.4746C37.8872 38.4114 37.8872 38.3482 37.8238 38.2848C36.7798 37.2093 35.6407 36.0701 34.5647 34.9945Z" fill="#FEDBAB"></path>
      <path d="M30.0086 18.9844H7.91021C5.82225 18.9844 5.82225 15.8203 7.91021 15.8203H30.0086C32.0966 15.8203 32.0966 18.9844 30.0086 18.9844Z" fill="#95D6A4"></path>
      <path d="M23.6804 25.3125H7.91021C5.82225 25.3125 5.82225 22.1484 7.91021 22.1484H23.6804C25.7685 22.1484 25.7685 25.3125 23.6804 25.3125Z" fill="#95D6A4"></path>
      <path d="M23.6804 31.6406H7.91021C5.82225 31.6406 5.82225 28.4766 7.91021 28.4766H23.6804C25.7685 28.4766 25.7685 31.6406 23.6804 31.6406Z" fill="#95D6A4"></path>
      <path d="M23.6804 37.9688H7.91021C5.82225 37.9688 5.82225 34.8047 7.91021 34.8047H23.6804C25.7685 34.8047 25.7685 37.9688 23.6804 37.9688Z" fill="#95D6A4"></path>
      <path d="M30.0086 47.6719H20.5164C18.4284 47.6719 18.4284 44.5078 20.5164 44.5078H30.0086C32.0967 44.5078 32.0967 47.6719 30.0086 47.6719Z" fill="#95D6A4"></path>
      <path d="M34.5645 34.9946C35.6406 36.0703 36.7796 37.2095 37.8236 38.2851C37.887 38.3485 37.887 38.4118 37.8236 38.475L37.7602 38.5384C37.5706 38.7282 37.3493 38.8547 37.1275 38.9181L30.3881 41.1647C29.8183 41.3859 29.2174 41.2278 28.7744 40.8165V40.7849L34.5645 34.9946Z" fill="#FEC478"></path>
      <path d="M52.5999 23.667L50.9861 25.3125L49.8471 26.4198C49.2778 27.0526 48.2017 27.0526 47.6323 26.4198L45.3857 24.1734L52.5999 16.9592C54.4666 18.7311 54.4666 21.8952 52.5999 23.667Z" fill="#FED23A"></path>
      <path d="M50.9862 25.3124L49.8472 26.4198C43.5824 32.6531 45.6704 30.5647 40.0383 36.1968C40.0383 36.26 37.7919 38.5065 37.7603 38.5382C37.5706 38.7281 37.3493 38.8545 37.1275 38.9179L30.6411 32.4316C30.7045 32.2101 30.8312 31.9886 31.0212 31.7988C31.0529 31.7671 33.2992 29.5205 33.3626 29.5205C37.4757 25.4073 35.4506 27.464 43.1395 19.7121L44.2468 18.573L50.9862 25.3124Z" fill="#95D6A4"></path>
      <path d="M50.9863 25.3124L49.8472 26.4197C43.5825 32.653 45.6705 30.5646 40.0383 36.1968C40.0383 36.26 37.7919 38.5064 37.7603 38.5382C37.5707 38.728 37.3494 38.8545 37.1276 38.9179L33.9001 35.6904L47.6326 21.9585L50.9863 25.3124Z" fill="#78C2A4"></path>
      <path d="M23.6804 37.9688H20.5164V34.8047H23.6804C25.7685 34.8047 25.7685 37.9688 23.6804 37.9688Z" fill="#78C2A4"></path>
      <path d="M23.6804 31.6406H20.5164V28.4766H23.6804C25.7685 28.4766 25.7685 31.6406 23.6804 31.6406Z" fill="#78C2A4"></path>
      <path d="M23.6804 25.3125H20.5164V22.1484H23.6804C25.7685 22.1484 25.7685 25.3125 23.6804 25.3125Z" fill="#78C2A4"></path>
      <path d="M30.0085 47.6719H20.5164V44.5078H30.0085C32.0966 44.5078 32.0966 47.6719 30.0085 47.6719Z" fill="#78C2A4"></path>
      <path d="M30.0085 18.9844H20.5164V15.8203H30.0085C32.0966 15.8203 32.0966 18.9844 30.0085 18.9844Z" fill="#78C2A4"></path>
    </g>
    <defs>
      <clipPath id="clip0_135_1087">
        <rect width="54" height="54" fill="white"></rect>
      </clipPath>
    </defs>
  </symbol>
  <symbol fill="none" xmlns="http://www.w3.org/2000/svg" viewBox="0 0 22 22" id="copy">
    <g clip-path="url(#clip0_164_10)">
      <path d="M18.7917 22.0001H7.79167C6.5285 22.0001 5.5 20.9725 5.5 19.7084V5.9584C5.5 4.69432 6.5285 3.66673 7.79167 3.66673H18.7917C20.0548 3.66673 21.0833 4.69432 21.0833 5.9584V19.7084C21.0833 20.9725 20.0548 22.0001 18.7917 22.0001ZM7.79167 4.5834C7.03358 4.5834 6.41667 5.20032 6.41667 5.9584V19.7084C6.41667 20.4665 7.03358 21.0834 7.79167 21.0834H18.7917C19.5498 21.0834 20.1667 20.4665 20.1667 19.7084V5.9584C20.1667 5.20032 19.5498 4.5834 18.7917 4.5834H7.79167Z" fill="#68AC4E"></path>
      <path d="M4.12496 19.25H3.20829C1.94513 19.25 0.916626 18.2224 0.916626 16.9583V2.29166C0.916626 1.02758 1.94513 -7.62939e-06 3.20829 -7.62939e-06H14.2083C15.4715 -7.62939e-06 16.5 1.02758 16.5 2.29166C16.5 2.54466 16.2946 2.74999 16.0416 2.74999C15.7886 2.74999 15.5833 2.54466 15.5833 2.29166C15.5833 1.53358 14.9664 0.916659 14.2083 0.916659H3.20829C2.45021 0.916659 1.83329 1.53358 1.83329 2.29166V16.9583C1.83329 17.7164 2.45021 18.3333 3.20829 18.3333H4.12496C4.37796 18.3333 4.58329 18.5387 4.58329 18.7917C4.58329 19.0447 4.37796 19.25 4.12496 19.25Z" fill="#68AC4E"></path>
      <path d="M16.9583 15.5834H9.62496C9.37196 15.5834 9.16663 15.3781 9.16663 15.1251C9.16663 14.8721 9.37196 14.6667 9.62496 14.6667H16.9583C17.2113 14.6667 17.4166 14.8721 17.4166 15.1251C17.4166 15.3781 17.2113 15.5834 16.9583 15.5834Z" fill="#68AC4E"></path>
      <path d="M16.9583 19.2502H9.62496C9.37196 19.2502 9.16663 19.0448 9.16663 18.7918C9.16663 18.5388 9.37196 18.3335 9.62496 18.3335H16.9583C17.2113 18.3335 17.4166 18.5388 17.4166 18.7918C17.4166 19.0448 17.2113 19.2502 16.9583 19.2502Z" fill="#68AC4E"></path>
      <path d="M16.9583 11.9167H9.62496C9.37196 11.9167 9.16663 11.7113 9.16663 11.4583C9.16663 11.2053 9.37196 11 9.62496 11H16.9583C17.2113 11 17.4166 11.2053 17.4166 11.4583C17.4166 11.7113 17.2113 11.9167 16.9583 11.9167Z" fill="#68AC4E"></path>
      <path d="M16.9583 8.24992H9.62496C9.37196 8.24992 9.16663 8.04459 9.16663 7.79159C9.16663 7.53859 9.37196 7.33325 9.62496 7.33325H16.9583C17.2113 7.33325 17.4166 7.53859 17.4166 7.79159C17.4166 8.04459 17.2113 8.24992 16.9583 8.24992Z" fill="#68AC4E"></path>
    </g>
    <defs>
      <clipPath id="clip0_164_10">
        <rect width="22" height="22" fill="white"></rect>
      </clipPath>
    </defs>
  </symbol>
  <symbol fill="none" xmlns="http://www.w3.org/2000/svg" viewBox="0 0 54 54" id="delivery-truck">
    <path d="M53.7042 27.8863L47.4542 17.053C47.0792 16.3987 46.4 16 45.6667 16H31.0833C29.9333 16 29 16.9707 29 18.1667V39.8333C29 41.0293 29.9333 42 31.0833 42H51.9167C53.0667 42 54 41.0293 54 39.8333V29C54 28.6057 53.9 28.22 53.7042 27.8863Z" fill="#78C2A4"></path>
    <path d="M38 21H44.4748L49 30H38V21Z" fill="#FAFAFA"></path>
    <path d="M30.9375 9H2.0625C0.924 9 0 9.924 0 11.0625V39.9375C0 41.076 0.924 42 2.0625 42H33V11.0625C33 9.924 32.076 9 30.9375 9Z" fill="#FAE19E"></path>
    <path d="M43.5 43C45.9853 43 48 41.433 48 39.5C48 37.567 45.9853 36 43.5 36C41.0147 36 39 37.567 39 39.5C39 41.433 41.0147 43 43.5 43Z" fill="#FAFAFA"></path>
    <path d="M44 46C40.692 46 38 43.308 38 40C38 36.692 40.692 34 44 34C47.308 34 50 36.692 50 40C50 43.308 47.308 46 44 46ZM44 38C42.9 38 42 38.9 42 40C42 41.1 42.9 42 44 42C45.1 42 46 41.1 46 40C46 38.9 45.1 38 44 38Z" fill="#455A64"></path>
    <path d="M14.5 43C16.433 43 18 41.433 18 39.5C18 37.567 16.433 36 14.5 36C12.567 36 11 37.567 11 39.5C11 41.433 12.567 43 14.5 43Z" fill="#FAFAFA"></path>
    <path d="M15 46C11.692 46 9 43.308 9 40C9 36.692 11.692 34 15 34C18.308 34 21 36.692 21 40C21 43.308 18.308 46 15 46ZM15 38C13.896 38 13 38.9 13 40C13 41.1 13.896 42 15 42C16.104 42 17 41.1 17 40C17 38.9 16.104 38 15 38Z" fill="#455A64"></path>
    <g clip-path="url(#clip0_135_1109)">
      <path d="M9.17261 26.2973L11.1816 22.8176L13.4125 24.1057L11.1297 28.0597L9.2152 26.9543L9.17261 26.2973Z" fill="#95D6A4"></path>
      <path d="M14.9098 28.2295C14.9098 27.5181 14.3331 26.9415 13.6218 26.9415H10.2881V26.9414C9.82788 26.9414 9.40266 26.6959 9.17259 26.2974C8.94247 26.6959 8.94247 27.187 9.17259 27.5856L9.91619 28.8735C10.1463 29.2721 10.5715 29.5176 11.0317 29.5176H13.6218C14.3332 29.5175 14.9098 28.9409 14.9098 28.2295Z" fill="#78C2A4"></path>
      <path d="M10.2762 22.2925L13.0831 21.0695C13.4802 20.8965 13.9316 21.157 13.9803 21.5875L14.3246 24.6298C14.384 25.155 13.8204 25.5242 13.3626 25.26L10.2114 23.4406C9.75368 23.1763 9.79165 22.5036 10.2762 22.2925Z" fill="#78C2A4"></path>
      <path d="M13.0831 21.0696L10.2762 22.2925C9.79163 22.5037 9.75369 23.1764 10.2114 23.4407L13.3626 25.26C11.7403 24.3234 11.691 21.6761 13.0831 21.0696Z" fill="#79CFAC"></path>
      <path d="M18.861 15.9567L20.87 19.4364L18.6391 20.7244L16.3562 16.7704L18.2707 15.665L18.861 15.9567Z" fill="#95D6A4"></path>
      <path d="M14.3193 19.9592C14.9354 20.3148 15.7231 20.1038 16.0788 19.4877L17.7457 16.6006L17.7457 16.6006C17.9758 16.2021 18.401 15.9566 18.8612 15.9566C18.6311 15.558 18.2058 15.3125 17.7456 15.3125H16.2584C15.7982 15.3125 15.373 15.558 15.1429 15.9565L13.8478 18.1997C13.4921 18.8157 13.7032 19.6035 14.3193 19.9592Z" fill="#78C2A4"></path>
      <path d="M21.7821 18.9121L21.4378 21.9544C21.3891 22.3849 20.9377 22.6455 20.5406 22.4724L17.7337 21.2495C17.2492 21.0383 17.2112 20.3656 17.669 20.1013L20.8202 18.282C21.2779 18.0177 21.8415 18.3869 21.7821 18.9121Z" fill="#78C2A4"></path>
      <path d="M21.4378 21.9544L21.7821 18.9121C21.8415 18.3869 21.2779 18.0177 20.8201 18.282L17.6689 20.1013C19.2913 19.1646 21.6085 20.4456 21.4378 21.9544Z" fill="#79CFAC"></path>
      <path d="M22.9681 29.5133H18.9502V26.9373H23.5159V29.1479L22.9681 29.5133Z" fill="#95D6A4"></path>
      <path d="M21.7729 23.5785C21.1568 23.9342 20.9458 24.722 21.3014 25.338L22.9683 28.2251L22.9683 28.2252C23.1983 28.6237 23.1983 29.1147 22.9683 29.5132C23.4285 29.5132 23.8538 29.2677 24.0839 28.8691L24.8275 27.5812C25.0576 27.1826 25.0576 26.6916 24.8275 26.2931L23.5324 24.05C23.1767 23.4339 22.389 23.2229 21.7729 23.5785Z" fill="#78C2A4"></path>
      <path d="M18.948 30.5601L16.4854 28.7408C16.137 28.4834 16.137 27.9622 16.4854 27.7048L18.948 25.8855C19.3731 25.5714 19.9747 25.8749 19.9747 26.4035V30.0421C19.9747 30.5707 19.3731 30.8742 18.948 30.5601Z" fill="#78C2A4"></path>
      <path d="M16.4856 28.7407L18.9482 30.56C19.3733 30.8741 19.9749 30.5706 19.9749 30.042V26.4033C19.9749 28.2766 17.7069 29.6429 16.4856 28.7407Z" fill="#79CFAC"></path>
    </g>
    <defs>
      <clipPath id="clip0_135_1109">
        <rect width="16" height="16" fill="white" transform="translate(9 15)"></rect>
      </clipPath>
    </defs>
  </symbol>
  <symbol fill="none" xmlns="http://www.w3.org/2000/svg" viewBox="0 0 36 36" id="icon_1">
    <rect x="5.5166" y="10" width="24.716" height="15.8889" fill="#C1E9FA"></rect>
    <path fill-rule="evenodd" clip-rule="evenodd" d="M5.95821 25.8889H30.233V10H30.1826C26.9118 14.2095 18.327 22.2566 5.95821 25.8889Z" fill="#A0DDF2"></path>
    <path fill-rule="evenodd" clip-rule="evenodd" d="M0 16.6875C0 14.0987 2.68629 12 6 12V12.75C3.21648 12.75 0.96 14.5129 0.96 16.6875V19.3125C0.96 21.4871 3.21648 23.25 6 23.25V24C2.68629 24 0 21.9013 0 19.3125V16.6875Z" fill="#78CBEC"></path>
    <path fill-rule="evenodd" clip-rule="evenodd" d="M36 19.3125C36 21.9013 33.3137 24 30 24L30 23.25C32.7835 23.25 35.04 21.4871 35.04 19.3125L35.04 16.6875C35.04 14.5129 32.7835 12.75 30 12.75L30 12C33.3137 12 36 14.0987 36 16.6875L36 19.3125Z" fill="#78CBEC"></path>
    <path fill-rule="evenodd" clip-rule="evenodd" d="M7.72363 14.855C7.72363 14.6112 7.92124 14.4136 8.16499 14.4136H27.8054C28.0492 14.4136 28.2468 14.6112 28.2468 14.855C28.2468 15.0987 28.0492 15.2964 27.8054 15.2964H8.16499C7.92124 15.2964 7.72363 15.0987 7.72363 14.855Z" fill="white"></path>
    <path fill-rule="evenodd" clip-rule="evenodd" d="M7.94434 18.1651C7.94434 17.9214 8.14194 17.7238 8.38569 17.7238H28.0261C28.2699 17.7238 28.4675 17.9214 28.4675 18.1651C28.4675 18.4089 28.2699 18.6065 28.0261 18.6065H8.38569C8.14194 18.6065 7.94434 18.4089 7.94434 18.1651Z" fill="white"></path>
    <path fill-rule="evenodd" clip-rule="evenodd" d="M7.94434 21.6961C7.94434 21.4523 8.14194 21.2547 8.38569 21.2547H28.0261C28.2699 21.2547 28.4675 21.4523 28.4675 21.6961C28.4675 21.9398 28.2699 22.1374 28.0261 22.1374H8.38569C8.14194 22.1374 7.94434 21.9398 7.94434 21.6961Z" fill="white"></path>
  </symbol>
  <symbol fill="none" xmlns="http://www.w3.org/2000/svg" viewBox="0 0 36 36" id="icon_2">
    <g clip-path="url(#clip0_135_1306)">
      <path d="M21.1664 10.871C20.551 10.1076 19.7812 9.47385 18.9045 9.01717C18.6927 8.90685 18.5627 8.68501 18.5627 8.44623V5.92911L7.79226 4.89868V8.44623C7.79226 8.68656 7.65965 8.90797 7.44661 9.0192C5.16897 10.2075 3.61401 12.5912 3.61401 15.3379L8.50122 19.5278L3.61401 31.2348V34.1225C3.61401 35.1594 4.4546 36 5.49157 36H20.8634C21.0623 36 21.2539 35.9691 21.4337 35.9118C20.8798 35.7306 21.1664 10.871 21.1664 10.871V10.871Z" fill="#CBE3FA"></path>
      <path d="M15.6899 5.43823V5.92051C15.6899 6.98089 15.9792 7.51583 16.4646 7.8136C17.7942 8.62916 18.8354 9.86884 19.4001 11.3443L20.3885 11.5004L21.1665 10.8709C20.551 10.1075 19.7812 9.47375 18.9046 9.01707C18.6928 8.90675 18.5628 8.68491 18.5628 8.44613V5.92908L15.6899 5.43823Z" fill="#BFD8EF"></path>
      <path d="M21.2238 34.042L19.2169 30.7708C18.144 33.0071 15.8585 34.5513 13.2125 34.5513H3.66333C3.85732 35.3816 4.60228 36 5.49166 36H20.8635C21.0624 36 21.254 35.969 21.4338 35.9117C20.8799 35.7305 21.3859 34.647 21.2238 34.042V34.042Z" fill="#BFD8EF"></path>
      <path d="M19.3738 5.9291H6.98132C6.63081 5.9291 6.34668 5.64497 6.34668 5.29446V0.634641C6.34668 0.284133 6.63081 0 6.98132 0H19.3738C19.7243 0 20.0084 0.284133 20.0084 0.634641V5.29439C20.0084 5.64497 19.7243 5.9291 19.3738 5.9291V5.9291Z" fill="#5C90B9"></path>
      <path d="M19.3738 0H17.111V1.66823C17.111 3.22137 15.852 4.48038 14.2988 4.48038H6.34668V5.29439C6.34668 5.6449 6.63081 5.92903 6.98132 5.92903H19.3738C19.7243 5.92903 20.0084 5.6449 20.0084 5.29439V0.634641C20.0085 0.284133 19.7243 0 19.3738 0V0Z" fill="#4A80AA"></path>
      <path d="M3.61401 19.4768V31.2348H10.8355C11.5737 31.2348 12.1723 30.6363 12.1723 29.898V19.4768L7.39633 17.7261L3.61401 19.4768Z" fill="#F1F1F4"></path>
      <path d="M32.3244 31.4452C32.5795 32.3972 32.0146 33.3756 31.0627 33.6307L22.4488 35.9387C21.4969 36.1938 20.5185 35.6289 20.2634 34.677L14.8342 14.415C14.5791 13.4631 15.1441 12.4847 16.096 12.2296L24.7098 9.92148C25.6618 9.66639 26.6402 10.2313 26.8953 11.1832L32.3244 31.4452Z" fill="#6E6F80"></path>
      <path d="M32.3244 31.4452L26.8952 11.1832C26.6402 10.2313 25.6617 9.66639 24.7098 9.92148L24.0923 10.0869L28.3019 25.7974C29.1784 29.0684 27.2372 32.4306 23.9662 33.3072L20.1689 34.3247L20.2634 34.6771C20.5185 35.629 21.4969 36.1939 22.4488 35.9388L31.0627 33.6307C32.0146 33.3756 32.5795 32.3972 32.3244 31.4452V31.4452Z" fill="#585966"></path>
      <path d="M19.5797 15.124C19.5797 15.8661 18.9781 16.4677 18.236 16.4677C17.4939 16.4677 16.8923 15.8661 16.8923 15.124C16.8923 14.3819 17.4939 13.7804 18.236 13.7804C18.9781 13.7804 19.5797 14.3819 19.5797 15.124ZM19.416 18.1841C18.6739 18.1841 18.0723 18.7857 18.0723 19.5278C18.0723 20.2698 18.6739 20.8714 19.416 20.8714C20.1581 20.8714 20.7597 20.2698 20.7597 19.5278C20.7597 18.7857 20.1581 18.1841 19.416 18.1841ZM20.596 22.5878C19.8539 22.5878 19.2523 23.1894 19.2523 23.9315C19.2523 24.6736 19.8539 25.2752 20.596 25.2752C21.3381 25.2752 21.9397 24.6736 21.9397 23.9315C21.9397 23.1894 21.3381 22.5878 20.596 22.5878ZM21.776 26.9916C21.0339 26.9916 20.4323 27.5932 20.4323 28.3353C20.4323 29.0773 21.0339 29.6789 21.776 29.6789C22.518 29.6789 23.1196 29.0773 23.1196 28.3353C23.1196 27.5932 22.518 26.9916 21.776 26.9916ZM22.9559 31.3953C22.2139 31.3953 21.6123 31.9969 21.6123 32.739C21.6123 33.4811 22.2139 34.0827 22.9559 34.0827C23.698 34.0827 24.2996 33.4811 24.2996 32.739C24.2996 31.9969 23.698 31.3953 22.9559 31.3953ZM24.2029 12.1815C23.4608 12.1815 22.8592 12.7831 22.8592 13.5252C22.8592 14.2673 23.4608 14.8689 24.2029 14.8689C24.945 14.8689 25.5465 14.2673 25.5465 13.5252C25.5466 12.7831 24.945 12.1815 24.2029 12.1815ZM25.3829 16.5853C24.6408 16.5853 24.0392 17.1869 24.0392 17.9289C24.0392 18.671 24.6408 19.2726 25.3829 19.2726C26.1249 19.2726 26.7265 18.671 26.7265 17.9289C26.7265 17.1869 26.125 16.5853 25.3829 16.5853V16.5853ZM26.5629 20.989C25.8208 20.989 25.2192 21.5906 25.2192 22.3327C25.2192 23.0748 25.8208 23.6763 26.5629 23.6763C27.305 23.6763 27.9066 23.0748 27.9066 22.3327C27.9066 21.5906 27.305 20.989 26.5629 20.989ZM27.7429 25.3927C27.0008 25.3927 26.3992 25.9943 26.3992 26.7364C26.3992 27.4785 27.0008 28.0801 27.7429 28.0801C28.485 28.0801 29.0866 27.4785 29.0866 26.7364C29.0866 25.9943 28.485 25.3927 27.7429 25.3927ZM28.9229 29.7965C28.1808 29.7965 27.5792 30.3981 27.5792 31.1402C27.5792 31.8822 28.1808 32.4838 28.9229 32.4838C29.665 32.4838 30.2666 31.8822 30.2666 31.1402C30.2666 30.3981 29.665 29.7965 28.9229 29.7965Z" fill="#56C3C1"></path>
      <path d="M29.0865 26.7365C29.0865 26.1611 28.7249 25.6703 28.2166 25.4788L28.302 25.7975C28.4864 26.4857 28.546 27.1779 28.4949 27.8503C28.8518 27.6086 29.0865 27.1999 29.0865 26.7365V26.7365Z" fill="#47A9A7"></path>
      <path d="M27.0366 21.075L27.6019 23.1847C27.7923 22.9529 27.9065 22.6561 27.9065 22.3328C27.9066 21.7574 27.545 21.2665 27.0366 21.075Z" fill="#47A9A7"></path>
      <path d="M25.8567 16.6712L26.422 18.781C26.6123 18.5491 26.7266 18.2524 26.7266 17.929C26.7267 17.3536 26.365 16.8627 25.8567 16.6712Z" fill="#47A9A7"></path>
      <path d="M30.2691 31.2915C30.3426 30.5531 29.8035 29.895 29.0652 29.8215C28.3268 29.748 27.6686 30.287 27.5952 31.0254C27.5217 31.7638 28.0607 32.4219 28.7991 32.4954C29.5375 32.5689 30.1956 32.0298 30.2691 31.2915Z" fill="#47A9A7"></path>
      <path d="M24.6765 12.2675L25.2418 14.3773C25.4322 14.1454 25.5464 13.8486 25.5464 13.5253C25.5465 12.9498 25.1849 12.459 24.6765 12.2675Z" fill="#47A9A7"></path>
      <path d="M24.2038 33.2384C24.1255 33.2627 24.0463 33.2857 23.9663 33.3071L22.1301 33.7991C22.3579 33.9768 22.6446 34.0827 22.9559 34.0827C23.5216 34.0828 24.0056 33.7333 24.2038 33.2384V33.2384Z" fill="#47A9A7"></path>
      <path d="M8.15139 4.66754C7.85137 4.66754 7.60815 4.42433 7.60815 4.12431V1.80477C7.60815 1.50468 7.85137 1.26154 8.15139 1.26154C8.45141 1.26154 8.69462 1.50475 8.69462 1.80477V4.12431C8.69462 4.4244 8.45141 4.66754 8.15139 4.66754ZM10.7051 4.12431V1.80477C10.7051 1.50468 10.4619 1.26154 10.1618 1.26154C9.86181 1.26154 9.6186 1.50475 9.6186 1.80477V4.12431C9.6186 4.4244 9.86181 4.66754 10.1618 4.66754C10.4619 4.66754 10.7051 4.4244 10.7051 4.12431ZM12.7155 4.12431V1.80477C12.7155 1.50468 12.4723 1.26154 12.1723 1.26154C11.8723 1.26154 11.629 1.50475 11.629 1.80477V4.12431C11.629 4.4244 11.8723 4.66754 12.1723 4.66754C12.4723 4.66754 12.7155 4.4244 12.7155 4.12431ZM14.726 4.12431V1.80477C14.726 1.50468 14.4827 1.26154 14.1827 1.26154C13.8827 1.26154 13.6395 1.50475 13.6395 1.80477V4.12431C13.6395 4.4244 13.8827 4.66754 14.1827 4.66754C14.4827 4.66754 14.726 4.4244 14.726 4.12431ZM16.7364 4.12431V1.80477C16.7364 1.50468 16.4932 1.26154 16.1932 1.26154C15.8931 1.26154 15.6499 1.50475 15.6499 1.80477V4.12431C15.6499 4.4244 15.8931 4.66754 16.1932 4.66754C16.4932 4.66754 16.7364 4.4244 16.7364 4.12431ZM18.7468 4.12431V1.80477C18.7468 1.50468 18.5036 1.26154 18.2036 1.26154C17.9036 1.26154 17.6604 1.50475 17.6604 1.80477V4.12431C17.6604 4.4244 17.9036 4.66754 18.2036 4.66754C18.5036 4.66754 18.7468 4.4244 18.7468 4.12431Z" fill="#4A80AA"></path>
      <path d="M12.5826 4.48035H11.762C11.8616 4.59503 12.0084 4.66752 12.1722 4.66752C12.3361 4.66752 12.4829 4.59503 12.5826 4.48035V4.48035Z" fill="#407093"></path>
      <path d="M18.2036 1.26154C17.9036 1.26154 17.6604 1.50475 17.6604 1.80477V4.12431C17.6604 4.4244 17.9036 4.66754 18.2036 4.66754C18.5037 4.66754 18.7469 4.42433 18.7469 4.12431V1.80477C18.7469 1.50468 18.5037 1.26154 18.2036 1.26154Z" fill="#407093"></path>
      <path d="M8.56158 4.48035H7.74097C7.8406 4.59503 7.98741 4.66752 8.15124 4.66752C8.31507 4.66752 8.46195 4.59503 8.56158 4.48035Z" fill="#407093"></path>
      <path d="M10.5721 4.48035H9.75146C9.8511 4.59503 9.99791 4.66752 10.1617 4.66752C10.3256 4.66752 10.4724 4.59503 10.5721 4.48035V4.48035Z" fill="#407093"></path>
      <path d="M16.7365 4.12433V3.07147C16.4791 3.51782 16.1025 3.88682 15.6501 4.13509C15.6558 4.43019 15.8968 4.66757 16.1932 4.66757C16.4933 4.66757 16.7365 4.42443 16.7365 4.12433Z" fill="#407093"></path>
      <path d="M14.607 4.46362C14.5058 4.47466 14.403 4.48036 14.2988 4.48036H13.7725C13.8721 4.59504 14.0189 4.66753 14.1827 4.66753C14.3544 4.66753 14.5074 4.58794 14.607 4.46362Z" fill="#407093"></path>
      <path d="M15.6185 8.75871H10.7363C10.4363 8.75871 10.1931 8.5155 10.1931 8.21548C10.1931 7.91538 10.4363 7.67224 10.7363 7.67224H15.6185C15.9185 7.67224 16.1617 7.91545 16.1617 8.21548C16.1617 8.51557 15.9185 8.75871 15.6185 8.75871Z" fill="#BFD8EF"></path>
      <path d="M8.92305 22.5083H8.07937C7.77934 22.5083 7.53613 22.2651 7.53613 21.965C7.53613 21.665 7.77934 21.4218 8.07937 21.4218H8.92305C9.22307 21.4218 9.46629 21.665 9.46629 21.965C9.46629 22.2651 9.22314 22.5083 8.92305 22.5083V22.5083Z" fill="#665E66"></path>
      <path d="M8.92305 24.7688H8.07937C7.77934 24.7688 7.53613 24.5256 7.53613 24.2256C7.53613 23.9255 7.77934 23.6824 8.07937 23.6824H8.92305C9.22307 23.6824 9.46629 23.9256 9.46629 24.2256C9.46636 24.5256 9.22314 24.7688 8.92305 24.7688V24.7688Z" fill="#665E66"></path>
      <path d="M8.92305 27.0294H8.07937C7.77934 27.0294 7.53613 26.7862 7.53613 26.4862C7.53613 26.1861 7.77934 25.9429 8.07937 25.9429H8.92305C9.22307 25.9429 9.46629 26.1861 9.46629 26.4862C9.46636 26.7862 9.22314 27.0294 8.92305 27.0294V27.0294Z" fill="#665E66"></path>
      <path d="M8.92305 29.2899H8.07937C7.77934 29.2899 7.53613 29.0467 7.53613 28.7467C7.53613 28.4466 7.77934 28.2034 8.07937 28.2034H8.92305C9.22307 28.2034 9.46629 28.4466 9.46629 28.7467C9.46629 29.0467 9.22314 29.2899 8.92305 29.2899V29.2899Z" fill="#665E66"></path>
      <path d="M6.26852 23.6823H3.61401V24.7689H6.26852C6.56855 24.7689 6.81176 24.5256 6.81176 24.2256C6.81176 23.9255 6.56855 23.6823 6.26852 23.6823Z" fill="#665E66"></path>
      <path d="M6.81176 26.4861C6.81176 26.186 6.56855 25.9429 6.26852 25.9429H3.61401V27.0294H6.26852C6.56855 27.0294 6.81176 26.7862 6.81176 26.4861Z" fill="#665E66"></path>
      <path d="M6.26852 21.4218H3.61401V22.5083H6.26852C6.56855 22.5083 6.81176 22.2651 6.81176 21.9651C6.81176 21.665 6.56855 21.4218 6.26852 21.4218Z" fill="#665E66"></path>
      <path d="M6.81176 28.7467C6.81176 28.4466 6.56855 28.2034 6.26852 28.2034H3.61401V29.29H6.26852C6.56855 29.2899 6.81176 29.0468 6.81176 28.7467Z" fill="#665E66"></path>
      <path d="M25.9635 32.5749C25.7237 32.5749 25.5042 32.4148 25.4392 32.1722L20.67 14.3735C20.5924 14.0837 20.7644 13.7857 21.0542 13.7081C21.3439 13.6301 21.6419 13.8024 21.7196 14.0922L26.4887 31.8909C26.5663 32.1808 26.3944 32.4787 26.1045 32.5563C26.0574 32.5689 26.0101 32.5749 25.9635 32.5749Z" fill="#AFAAB4"></path>
      <path d="M25.9636 32.5749C26.0101 32.5749 26.0575 32.5689 26.1046 32.5562C26.3817 32.482 26.5511 32.2063 26.4975 31.929C26.2593 32.1451 26.0029 32.3436 25.7297 32.5217C25.8017 32.5561 25.8815 32.5749 25.9636 32.5749V32.5749Z" fill="#A298A5"></path>
      <path d="M12.1723 16.6747C12.1723 15.9365 11.5738 15.3379 10.8355 15.3379H3.61401V19.4768H12.1723V16.6747Z" fill="#5C90B9"></path>
    </g>
    <defs>
      <clipPath id="clip0_135_1306">
        <rect width="36" height="36" fill="white"></rect>
      </clipPath>
    </defs>
  </symbol>
  <symbol fill="none" xmlns="http://www.w3.org/2000/svg" viewBox="0 0 36 36" id="icon_3">
    <g clip-path="url(#clip0_135_1213)">
      <path d="M23.3312 4.2564V2.23186C23.3312 0.999247 22.332 0 21.0993 0H14.9003C13.6677 0 12.6685 0.999247 12.6685 2.23186V4.2564H23.3312Z" fill="#8B7E8A"></path>
      <path d="M21.0994 0H18.2744C19.507 0 20.5063 0.999247 20.5063 2.23186V4.2564H23.3312V2.23186C23.3313 0.999247 22.332 0 21.0994 0Z" fill="#7A707A"></path>
      <path d="M26.3678 3.9032H9.63201C8.39939 3.9032 7.40015 4.76127 7.40015 5.99388V33.7681C7.40015 35.0007 8.39939 36 9.63201 36H26.3678C27.6004 36 28.5996 35.0007 28.5996 33.7681V5.99388C28.5996 4.76127 27.6004 3.9032 26.3678 3.9032V3.9032Z" fill="#049962"></path>
      <path d="M26.3677 3.76196H23.5427C24.7753 3.76196 25.7746 4.76121 25.7746 5.99382V33.768C25.7746 35.0006 24.7753 35.9999 23.5427 35.9999H26.3677C27.6003 35.9999 28.5995 35.0006 28.5995 33.768V5.99382C28.5995 4.76121 27.6003 3.76196 26.3677 3.76196V3.76196Z" fill="#04794D"></path>
      <path d="M28.5994 31.9058V33.7679C28.5994 35.0004 27.6006 35.9999 26.3681 35.9999H9.63168C8.39921 35.9999 7.40039 35.0004 7.40039 33.7679V31.9058H28.5994Z" fill="#968A96"></path>
      <path d="M28.5994 5.99366V7.85578H7.40039V5.99366C7.40039 4.76119 8.39921 3.76166 9.63168 3.76166H26.3681C27.6006 3.76166 28.5994 4.76119 28.5994 5.99366V5.99366Z" fill="#9C909C"></path>
      <path d="M28.5993 33.7679V31.9058H25.7746V33.7681C25.7746 35.0007 24.7753 35.9999 23.5427 35.9999H26.368C27.6005 35.9999 28.5993 35.0004 28.5993 33.7679Z" fill="#7A707A"></path>
      <path d="M26.368 3.76166H23.5435L23.5427 3.76201C24.7753 3.76201 25.7746 4.76126 25.7746 5.99387V7.85578H28.5993V5.99366C28.5993 4.76119 27.6005 3.76166 26.368 3.76166V3.76166Z" fill="#7A707A"></path>
      <path d="M23.064 17.4333H20.1989C19.4498 17.4333 18.9093 16.7157 19.1161 15.9957L20.3818 11.5886C20.6035 10.8166 19.588 10.3141 19.1088 10.9587L12.0163 20.4997C11.4545 21.2555 11.994 22.3287 12.9357 22.3287H15.8008C16.5499 22.3287 17.0904 23.0463 16.8836 23.7663L15.6179 28.1734C15.3962 28.9454 16.4117 29.4479 16.891 28.8032L23.9834 19.2622C24.5451 18.5065 24.0057 17.4333 23.064 17.4333V17.4333Z" fill="url(#paint0_linear_135_1213)"></path>
      <path d="M23.064 17.4333H20.8236C19.4609 20.0241 16.7435 21.7913 13.6128 21.7913C13.0148 21.7913 12.432 21.7262 11.8706 21.6038C12.0333 22.013 12.4251 22.3287 12.9356 22.3287H15.8007C16.5499 22.3287 17.0904 23.0463 16.8836 23.7663L15.6179 28.1734C15.3961 28.9454 16.4117 29.448 16.8909 28.8033L23.9834 19.2622C24.5451 18.5065 24.0056 17.4333 23.064 17.4333V17.4333Z" fill="url(#paint1_linear_135_1213)"></path>
    </g>
    <defs>
      <linearGradient id="paint0_linear_135_1213" x1="12.3293" y1="19.881" x2="21.8393" y2="19.881" gradientUnits="userSpaceOnUse">
        <stop stop-color="#FFF9DF"></stop>
        <stop offset="0.593" stop-color="#FFE177"></stop>
        <stop offset="1" stop-color="#FEB137"></stop>
      </linearGradient>
      <linearGradient id="paint1_linear_135_1213" x1="15.8115" y1="23.2659" x2="23.2873" y2="23.2659" gradientUnits="userSpaceOnUse">
        <stop stop-color="#FFE177"></stop>
        <stop offset="1" stop-color="#FEB137"></stop>
      </linearGradient>
      <clipPath id="clip0_135_1213">
        <rect width="36" height="36" fill="white"></rect>
      </clipPath>
    </defs>
  </symbol>
  <symbol fill="none" xmlns="http://www.w3.org/2000/svg" viewBox="0 0 36 36" id="icon_4">
    <rect x="6.15381" y="4" width="23.6923" height="29.0769" rx="4" fill="#CBE3FA"></rect>
    <path fill-rule="evenodd" clip-rule="evenodd" d="M21.5383 33.0769H25.8462C28.0553 33.0769 29.8462 31.2861 29.8462 29.0769V8C29.8462 7.73688 29.8207 7.4797 29.7723 7.23077H31C31.5523 7.23077 32 6.78305 32 6.23077V5C32 4.44772 31.5523 4 31 4H26.6922C27.2445 4 27.6922 4.44772 27.6922 5V6.23077C27.6922 6.78305 27.2445 7.23077 26.6922 7.23077H25.4644C25.5129 7.4797 25.5383 7.73688 25.5383 8V29.0769C25.5383 31.2861 23.7475 33.0769 21.5383 33.0769Z" fill="#BFD8EF"></path>
    <path fill-rule="evenodd" clip-rule="evenodd" d="M6.15383 14.7693V29.0769C6.15383 31.2861 7.94468 33.0769 10.1538 33.0769H25.8461C28.0553 33.0769 29.8461 31.2861 29.8461 29.0769V17.4616L6.15383 14.7693Z" fill="#56C3C1"></path>
    <path fill-rule="evenodd" clip-rule="evenodd" d="M21.5386 33.0281H25.8464C28.0555 33.0281 29.8464 31.2372 29.8464 29.0281V17.4126L25.5386 16.9231L25.5386 29.0281C25.5386 31.2372 23.7477 33.0281 21.5386 33.0281Z" fill="#1AA7A1"></path>
    <path d="M15.4448 14.894H12.7117V13.2923C12.7117 12.9419 12.4491 12.6577 12.1251 12.6577C11.8012 12.6577 11.5386 12.9419 11.5386 13.2923V22.7506H12.7117V20.7701H13.9637C14.2876 20.7701 14.5502 20.4859 14.5502 20.1355C14.5502 19.785 14.2876 19.5009 13.9637 19.5009H12.7117V16.1632H15.4448C15.7687 16.1632 16.0313 15.879 16.0313 15.5286C16.0313 15.1781 15.7687 14.894 15.4448 14.894V14.894Z" fill="white"></path>
    <path d="M15.4202 24.0566H12.7117V22.2916H11.5386V27.7929C11.5386 28.1434 11.8012 28.4275 12.1251 28.4275C12.4491 28.4275 12.7117 28.1434 12.7117 27.7929V25.3258H15.4448C15.7747 25.3258 16.041 25.0311 16.031 24.6717C16.0214 24.3244 15.7414 24.0566 15.4202 24.0566V24.0566Z" fill="white"></path>
    <rect x="4" y="4" width="28" height="3.23077" rx="1" fill="#CBE3FA"></rect>
  </symbol>
  <symbol fill="none" xmlns="http://www.w3.org/2000/svg" viewBox="0 0 36 36" id="icon_5">
    <path d="M15.5429 17.3464C17.796 15.8404 19.9104 14.127 21.8508 12.2348C22.7481 11.3598 23.5511 11.3418 24.4667 12.2346C26.4073 14.1269 28.5217 15.8404 30.7749 17.3464C30.7749 17.3464 33.4767 19.0467 35.2885 20.0566C35.7284 20.3019 36 20.7673 36 21.271V28.1806H21.6276C21.6276 28.1806 14.9006 21.3385 13.6538 18.8909L15.5429 17.3464Z" fill="#5F6071"></path>
    <path d="M35.9997 21.2707V28.1802H34.5361V22.2127C34.5361 21.7084 34.2644 21.2432 33.8246 20.9983C32.0124 19.9883 29.3105 18.2877 29.3105 18.2877C27.0579 16.782 24.9428 15.0684 23.0024 13.1758C22.4973 12.6832 22.0257 12.4679 21.554 12.5208C21.6539 12.4259 21.7525 12.331 21.851 12.2346C22.7481 11.3601 23.5509 11.3419 24.4667 12.2346C26.4071 14.1272 28.5214 15.8401 30.7749 17.3465C30.7749 17.3465 33.4768 19.0464 35.2882 20.0564C35.728 20.3019 35.9997 20.7671 35.9997 21.2707V21.2707Z" fill="#43444F"></path>
    <path d="M29.1918 22.5973C29.4956 22.5973 29.5781 22.1783 29.2966 22.0642C27.1939 21.2122 25.291 19.869 23.6199 18.3213C21.54 16.395 19.7858 14.1493 18.0415 11.9145C17.0111 10.5942 16.1574 8.42331 14.3956 7.98618C11.7844 7.33832 10.5972 9.66496 9.02672 11.2614C8.15801 12.1444 7.23888 12.9764 6.31969 13.8057C4.45233 15.4904 2.52415 17.1064 0.539719 18.6499C0.200391 18.9139 0.00028125 19.3177 0.000210938 19.7476C0.000140625 20.9022 0 23.1193 0 23.1193V28.1806L17.9282 22.5973H29.1918V22.5973Z" fill="#585966"></path>
    <path d="M29.1916 22.5974H27.7554C27.7482 22.5938 27.7403 22.5902 27.7322 22.5873C25.5868 21.7178 23.6457 20.3476 21.9414 18.7688C19.8192 16.8038 18.0302 14.5127 16.2506 12.2332C15.1992 10.8862 14.3291 8.67195 12.5314 8.22561C12.435 8.2017 12.3401 8.18138 12.2473 8.16619C12.8552 7.87854 13.5508 7.77708 14.3949 7.98647C16.1571 8.4234 17.0106 10.5942 18.041 11.9144C19.7858 14.1497 21.54 16.3951 23.6194 18.3211C25.2903 19.8688 27.1938 21.2121 29.2965 22.0642C29.5778 22.1786 29.4952 22.5974 29.1916 22.5974V22.5974Z" fill="#43444F"></path>
    <path d="M26.19 28.1805C22.3159 25.5911 18.6803 22.645 15.3437 19.3913C14.6162 18.682 13.616 17.7181 12.5079 18.1534C12.2783 18.2436 12.0656 18.3758 11.8647 18.5178C11.4989 18.7762 11.1664 19.0791 10.8463 19.3913C7.50973 22.645 3.87408 25.5911 0 28.1805H26.19Z" fill="#5F6071"></path>
    <path d="M26.1897 28.1803H23.774C20.1642 25.7088 16.7666 22.9242 13.6336 19.8687C13.2756 19.5194 12.4612 18.7449 11.7903 18.571C12.0077 18.4115 12.2387 18.2621 12.4895 18.1607C13.6007 17.7114 14.6154 18.6811 15.3436 19.3912C18.6802 22.6453 22.3154 25.5913 26.1897 28.1803V28.1803Z" fill="#43444F"></path>
    <path d="M11.7905 13.373C12.1095 13.373 12.3681 13.1144 12.3681 12.7954C12.3681 12.4764 12.1095 12.2178 11.7905 12.2178C11.4715 12.2178 11.2129 12.4764 11.2129 12.7954C11.2129 13.1144 11.4715 13.373 11.7905 13.373Z" fill="#43444F"></path>
    <path d="M9.77732 14.8221C10.0963 14.8221 10.3549 14.5635 10.3549 14.2445C10.3549 13.9255 10.0963 13.6669 9.77732 13.6669C9.45831 13.6669 9.19971 13.9255 9.19971 14.2445C9.19971 14.5635 9.45831 14.8221 9.77732 14.8221Z" fill="#43444F"></path>
    <path d="M20.8584 21.1151C21.1774 21.1151 21.436 20.8565 21.436 20.5375C21.436 20.2184 21.1774 19.9598 20.8584 19.9598C20.5394 19.9598 20.2808 20.2184 20.2808 20.5375C20.2808 20.8565 20.5394 21.1151 20.8584 21.1151Z" fill="#43444F"></path>
    <path d="M33.2558 25.7627C33.5748 25.7627 33.8335 25.5041 33.8335 25.185C33.8335 24.866 33.5748 24.6074 33.2558 24.6074C32.9368 24.6074 32.6782 24.866 32.6782 25.185C32.6782 25.5041 32.9368 25.7627 33.2558 25.7627Z" fill="#43444F"></path>
    <path d="M32.1006 23.1751C32.4196 23.1751 32.6782 22.9165 32.6782 22.5975C32.6782 22.2785 32.4196 22.0199 32.1006 22.0199C31.7816 22.0199 31.5229 22.2785 31.5229 22.5975C31.5229 22.9165 31.7816 23.1751 32.1006 23.1751Z" fill="#43444F"></path>
  </symbol>
  <symbol fill="none" xmlns="http://www.w3.org/2000/svg" viewBox="0 0 36 36" id="icon_7">
    <g clip-path="url(#clip0_232_312)">
      <path d="M5.15137 19.5655C4.86013 19.5655 4.62402 19.3295 4.62402 19.0382V13.4917C4.62402 13.2005 4.86013 12.9644 5.15137 12.9644C5.4426 12.9644 5.67871 13.2005 5.67871 13.4917V19.0382C5.67871 19.3295 5.4426 19.5655 5.15137 19.5655Z" fill="#365E7D"></path>
      <path d="M18.4812 25.1423H26.7447V27.5145H18.4812V25.1423Z" fill="#365E7D"></path>
      <path d="M22.9216 27.5145H26.7447V25.1423H23.1229L22.9216 27.5145Z" fill="#2B4D66"></path>
      <path d="M18.4812 35.4727H1.73877V16.5014C1.73877 16.4092 1.8313 16.3458 1.91722 16.3791L18.3973 22.7632C18.4478 22.7827 18.4811 22.8313 18.4811 22.8855V35.4727H18.4812Z" fill="#E7ECF6"></path>
      <path d="M1.91747 16.3792C1.83154 16.3459 1.73901 16.4093 1.73901 16.5015V18.0278L15.6309 23.4092C16.4195 23.7147 16.9392 24.4734 16.9392 25.3192V35.4727H18.4814V22.8856C18.4814 22.8314 18.4481 22.7828 18.3977 22.7633L1.91747 16.3792Z" fill="#D8E2F1"></path>
      <path d="M15.5152 24.2549C15.6071 24.2872 15.6684 24.374 15.6684 24.4713V27.7476C15.6684 27.8743 15.5657 27.9771 15.4389 27.9771H4.78084C4.65407 27.9771 4.55127 27.8743 4.55127 27.7476V20.7126C4.55127 20.6381 4.58741 20.5682 4.64823 20.5252C4.70905 20.4822 4.78696 20.4713 4.8572 20.4961L8.31939 21.7171L11.9004 22.9799L15.5152 24.2549Z" fill="#80B4FB"></path>
      <path d="M11.9004 22.9799L8.31939 21.7171L4.8572 20.4961C4.78696 20.4713 4.70905 20.4822 4.64823 20.5252C4.58741 20.5682 4.55127 20.6381 4.55127 20.7126V21.5945L6.78292 22.3816L10.3639 23.6444L13.4161 24.7208C13.845 24.8721 14.132 25.2775 14.132 25.7325V27.9771H15.4389C15.5657 27.9771 15.6684 27.8743 15.6684 27.7475V24.4713C15.6684 24.374 15.6071 24.2872 15.5152 24.2548L11.9004 22.9799Z" fill="#61A2F9"></path>
      <path d="M30.6696 30.323L29.5102 31.7293H25.3238L24.1643 30.323L24.9377 21.2091L25.3238 16.6522L25.3911 15.8586L26.1494 14.509C26.1601 14.3368 26.2655 14.2046 26.3919 14.2046H28.442C28.5685 14.2046 28.6739 14.3369 28.6846 14.509L29.448 15.9189L29.897 21.2091L30.283 25.7661L30.6696 30.323Z" fill="#C3D5EF"></path>
      <path d="M30.2829 25.7661L29.8969 21.2091L29.1492 12.3997C29.1346 12.2275 28.9906 12.0952 28.8178 12.0952H27.5339C27.7067 12.0952 27.8507 12.2275 27.8653 12.3997L28.613 21.2091L28.999 25.7661L29.3857 31.7293L30.6696 30.323L30.2829 25.7661Z" fill="#B7C8EA"></path>
      <path d="M29.5101 16.6522H25.3237L25.6846 12.3997C25.6993 12.2275 25.8433 12.0952 26.016 12.0952H28.8179C28.9907 12.0952 29.1347 12.2275 29.1493 12.3997L29.5101 16.6522Z" fill="#EAB14D"></path>
      <path d="M27.8653 12.3997L28.2262 16.6522H29.5101L29.1492 12.3997C29.1346 12.2275 28.9906 12.0952 28.8178 12.0952H27.5339C27.7067 12.0952 27.8507 12.2275 27.8653 12.3997Z" fill="#E49542"></path>
      <path d="M30.2829 25.7661H24.551L24.9377 21.2091H29.8969L30.2829 25.7661Z" fill="#EAB14D"></path>
      <path d="M30.283 25.7661L29.8969 21.2091H28.613L28.9991 25.7661H30.283Z" fill="#E49542"></path>
      <path d="M13.6216 35.4726H6.59888V32.1395C6.59888 32.0127 6.70167 31.9099 6.82845 31.9099H13.3921C13.5189 31.9099 13.6217 32.0127 13.6217 32.1395V35.4726H13.6216Z" fill="#80B4FB"></path>
      <path d="M12.1353 31.9099V35.4726H13.6215V32.1395C13.6215 32.0127 13.5187 31.9099 13.3919 31.9099H12.1353Z" fill="#61A2F9"></path>
      <path d="M8.31934 28.5043C8.0281 28.5043 7.79199 28.2683 7.79199 27.977V21.717C7.79199 21.4257 8.0281 21.1897 8.31934 21.1897C8.61057 21.1897 8.84668 21.4257 8.84668 21.717V27.977C8.84668 28.2683 8.61057 28.5043 8.31934 28.5043Z" fill="#365E7D"></path>
      <path d="M11.9004 28.5043C11.6092 28.5043 11.373 28.2683 11.373 27.977V22.9799C11.373 22.6886 11.6092 22.4525 11.9004 22.4525C12.1916 22.4525 12.4277 22.6886 12.4277 22.9799V27.977C12.4277 28.2683 12.1917 28.5043 11.9004 28.5043Z" fill="#365E7D"></path>
      <path d="M27.9795 10.8658C27.6882 10.8658 27.4522 10.6297 27.4522 10.3385V9.56777C27.4522 8.54304 28.2859 7.70927 29.3107 7.70927C30.0795 7.70927 30.7048 7.08384 30.7048 6.31505V5.57416C30.7048 4.80544 30.0794 4.18001 29.3107 4.18001H27.4844C26.4485 4.18001 25.6057 3.33724 25.6057 2.3014V0.527344C25.6057 0.236109 25.8418 0 26.1331 0C26.4244 0 26.6604 0.236109 26.6604 0.527344V2.30133C26.6604 2.75562 27.03 3.12525 27.4844 3.12525H29.3107C30.661 3.12525 31.7595 4.22381 31.7595 5.57409V6.31505C31.7595 7.6654 30.661 8.76396 29.3107 8.76396C28.8674 8.76396 28.5069 9.12452 28.5069 9.56777V10.3385C28.5069 10.6297 28.2708 10.8658 27.9795 10.8658V10.8658Z" fill="#C3D5EF"></path>
      <path d="M25.9605 10.358C25.6692 10.358 25.4332 10.1219 25.4332 9.83062V8.97273C25.4332 8.61407 25.1414 8.32227 24.7827 8.32227C23.8426 8.32227 23.0776 7.55734 23.0776 6.6172V5.47363C23.0776 5.1824 23.3137 4.94629 23.605 4.94629C23.8963 4.94629 24.1323 5.1824 24.1323 5.47363V6.6172C24.1323 6.97586 24.4241 7.26759 24.7827 7.26759C25.7229 7.26759 26.4879 8.03252 26.4879 8.97273V9.83062C26.4879 10.1219 26.2518 10.358 25.9605 10.358Z" fill="#C3D5EF"></path>
      <path d="M28.6826 2.06205C28.3913 2.06205 28.1553 1.82594 28.1553 1.53471V0.531982C28.1553 0.240748 28.3913 0.00463867 28.6826 0.00463867C28.9739 0.00463867 29.21 0.240748 29.21 0.531982V1.53471C29.21 1.82594 28.9739 2.06205 28.6826 2.06205Z" fill="#C3D5EF"></path>
      <path d="M34.2612 35.4727H18.4812V30.3231H33.2513C33.809 30.3231 34.2612 30.7753 34.2612 31.3331V35.4727Z" fill="#E7ECF6"></path>
      <path d="M33.2514 30.3231H31.7134C32.2712 30.3231 32.7233 30.7753 32.7233 31.3331V35.4727H34.2613V31.3331C34.2613 30.7753 33.8092 30.3231 33.2514 30.3231Z" fill="#D8E2F1"></path>
      <path d="M21.4309 33.3549C21.1396 33.3549 20.9036 33.1189 20.9036 32.8276V32.3298C20.9036 32.0385 21.1396 31.8025 21.4309 31.8025C21.7222 31.8025 21.9583 32.0385 21.9583 32.3298V32.8276C21.9583 33.1189 21.7221 33.3549 21.4309 33.3549Z" fill="#61A2F9"></path>
      <path d="M24.7244 33.3549C24.4331 33.3549 24.197 33.1189 24.197 32.8276V32.3298C24.197 32.0385 24.4331 31.8025 24.7244 31.8025C25.0157 31.8025 25.2517 32.0385 25.2517 32.3298V32.8276C25.2517 33.1189 25.0156 33.3549 24.7244 33.3549Z" fill="#61A2F9"></path>
      <path d="M28.0178 33.3549C27.7265 33.3549 27.4905 33.1189 27.4905 32.8276V32.3298C27.4905 32.0385 27.7265 31.8025 28.0178 31.8025C28.3091 31.8025 28.5452 32.0385 28.5452 32.3298V32.8276C28.5452 33.1189 28.3091 33.3549 28.0178 33.3549Z" fill="#61A2F9"></path>
      <path d="M31.311 33.3549C31.0197 33.3549 30.7837 33.1189 30.7837 32.8276V32.3298C30.7837 32.0385 31.0197 31.8025 31.311 31.8025C31.6023 31.8025 31.8384 32.0385 31.8384 32.3298V32.8276C31.8384 33.1189 31.6023 33.3549 31.311 33.3549Z" fill="#61A2F9"></path>
      <path d="M35.4727 36H0.527344C0.236109 36 0 35.764 0 35.4727C0 35.1814 0.236109 34.9453 0.527344 34.9453H35.4727C35.764 34.9453 36 35.1814 36 35.4727C36 35.764 35.764 36 35.4727 36Z" fill="#95D6A4"></path>
    </g>
    <defs>
      <clipPath id="clip0_232_312">
        <rect width="36" height="36" fill="white"></rect>
      </clipPath>
    </defs>
  </symbol>
  <symbol fill="none" xmlns="http://www.w3.org/2000/svg" viewBox="0 0 36 36" id="icon_6">
    <g clip-path="url(#clip0_135_1450)">
      <path d="M22.2354 5.14381V30.8563L21.6658 31.1535C19.5693 32.2462 17.2032 32.8236 14.8236 32.8236L14.252 18.3404L14.8236 3.17651C17.2032 3.17651 19.5693 3.75393 21.6658 4.84663L22.2354 5.14381Z" fill="#2D2D2D"></path>
      <path d="M14.8235 3.17651V32.8236C6.65012 32.8236 0 26.1735 0 18C0 9.82663 6.65012 3.17651 14.8235 3.17651Z" fill="#4B5055"></path>
      <path d="M23.9794 18C23.9794 23.0569 19.8804 27.156 14.8234 27.156L14.4194 18L14.8234 8.84399C19.8804 8.84399 23.9794 12.9431 23.9794 18V18Z" fill="#4B5055"></path>
      <path d="M14.8235 8.84399V27.156C9.76654 27.156 5.66748 23.0569 5.66748 18C5.66748 12.9431 9.76654 8.84399 14.8235 8.84399V8.84399Z" fill="#818181"></path>
      <path d="M14.8236 16.2353L15.1912 12.9084L14.8236 7.41174C8.98523 7.41174 4.23535 12.1616 4.23535 18C4.23535 23.8383 8.98523 28.5882 14.8236 28.5882L15.1912 25.0497L14.8236 19.7647C13.8502 19.7647 13.0589 18.9734 13.0589 18C13.0589 17.0266 13.8502 16.2353 14.8236 16.2353ZM8.05841 12.9084L11.3732 16.2233C11.2561 16.4506 11.1601 16.6906 11.0895 16.9412H6.41935C6.60712 15.4404 7.18947 14.0604 8.05841 12.9084ZM6.41935 19.0588H11.0895C11.1848 19.3941 11.3224 19.711 11.4996 20.0033L8.213 23.2899C7.25865 22.099 6.61771 20.647 6.41935 19.0588ZM13.7648 21.7341V26.4042C12.2641 26.2164 10.8841 25.6341 9.73206 24.7652L13.0469 21.4503C13.2742 21.5675 13.5142 21.6635 13.7648 21.7341V21.7341ZM12.8203 14.676L9.53371 11.3894C10.7245 10.435 12.1765 9.7941 13.7648 9.59574V14.2659C13.4295 14.3612 13.1125 14.4988 12.8203 14.676Z" fill="#D1D1D6"></path>
      <path d="M18.1475 20.0033C18.3247 19.711 18.4623 19.3941 18.5576 19.0588H21.1764V16.9412H18.5576C18.487 16.6906 18.391 16.4506 18.2738 16.2233L22.1858 12.312L21.0303 11.1564L21.9367 10.1569C19.9863 8.38657 17.46 7.41174 14.8235 7.41174V16.2353C15.7969 16.2353 16.5882 17.0266 16.5882 18C16.5882 18.9734 15.7969 19.7647 14.8235 19.7647V28.5882C17.4331 28.5882 19.9397 27.6303 21.8823 25.8917L21.1517 25.075L22.1858 24.0409L18.1475 20.0033ZM15.8823 14.2659V9.59574C17.4303 9.78986 18.8929 10.4068 20.1162 11.3866L16.8268 14.676C16.5345 14.4988 16.2176 14.3612 15.8823 14.2659ZM15.8823 26.4042V21.7341C16.1329 21.6635 16.3729 21.5675 16.6002 21.4503L19.9171 24.768C18.7362 25.6574 17.3463 26.22 15.8823 26.4042Z" fill="#B8B8BD"></path>
      <path d="M35.2858 6.16286L36 7.19366V11.0986L35.7722 12.6038L36 13.6645V17.5694L35.6716 19.0281L36 20.1353V24.0395L35.6045 25.5362L36 26.6054V30.216C36 32.8214 33.8803 34.9412 31.2749 34.9412H29.2942L28.2354 34.6106V1.34888L29.2942 1.05884H31.2749C33.5117 1.05884 35.3906 2.62131 35.8774 4.71213C35.8774 4.71213 35.2858 5.79432 35.2858 6.16286V6.16286Z" fill="#2D2D2D"></path>
      <path d="M28.2354 1.47467V34.6106L27.1766 34.9412H25.1959C22.5905 34.9412 20.4707 32.8214 20.4707 30.216V26.6054L21.0116 25.7543L20.4707 24.0395V20.1353L21.3639 19.5145L20.4707 17.5694V13.6645L21.4142 13.0735L20.4707 11.0986V7.19366L21.2633 6.22999C21.2633 5.86145 20.5131 5.05667 20.5934 4.71213C21.0802 2.62131 22.959 1.05884 25.1959 1.05884H27.1766L28.2354 1.47467Z" fill="#4B5055"></path>
      <path d="M29.2941 11.7819V15.6868L36 11.0986V13.6645L29.2941 18.2527V22.1577L36 17.5694V20.1353L29.2941 24.7235V28.6278L36 24.0395V26.6054L29.2941 31.1937V34.9412H28.2353L27.7041 13.4426L28.2353 1.05884H29.2941V9.21602L35.8757 4.71249C35.9562 5.05696 36 5.41554 36 5.78402V7.19366L29.2941 11.7819Z" fill="#4B5055"></path>
      <path d="M28.2354 1.05884V34.9412H27.1766V31.1937L20.4707 26.6054V24.0395L27.1766 28.6278V24.7235L20.4707 20.1353V17.5694L27.1766 22.1577V18.2527L20.4707 13.6645V11.0986L27.1766 15.6868V11.7819L20.4707 7.19366V5.78402C20.4707 5.41554 20.5145 5.05696 20.5949 4.71249L27.1766 9.21602V1.05884H28.2354Z" fill="#818181"></path>
    </g>
    <defs>
      <clipPath id="clip0_135_1450">
        <rect width="36" height="36" fill="white"></rect>
      </clipPath>
    </defs>
  </symbol>
  <symbol fill="none" xmlns="http://www.w3.org/2000/svg" viewBox="0 0 36 36" id="icon_8">
    <path d="M21.734 28.5373C21.7065 28.1629 21.3946 27.873 21.0191 27.873C20.8395 27.873 13.2016 27.873 13.0613 27.873L12.7119 32.6323H22.0346L21.734 28.5373Z" fill="#596C76"></path>
    <path d="M34.4055 1.96875H33.9277C33.0439 1.96875 3.03328 1.96875 2.26773 1.96875C1.17278 1.96875 0.285156 2.85637 0.285156 3.95132V22.3505L1.16443 23.5215H34.5362C34.5362 22.7449 34.5362 3.55436 34.5362 2.67702C34.5363 2.4274 34.4897 2.18876 34.4055 1.96875V1.96875Z" fill="#CBE3FA"></path>
    <path d="M20.7005 27.8731C21.076 27.8731 21.3878 28.163 21.4154 28.5374L21.716 32.6324H23.5426L22.9593 24.6876H13.2951L13.0613 27.8731H20.7005Z" fill="#465A61"></path>
    <path d="M33.9871 1.96875H33.9275C34.0118 2.18876 34.0583 2.4274 34.0583 2.6771V23.5215H34.6637L35.9696 22.3506V3.95124C35.9696 2.85637 35.082 1.96875 33.9871 1.96875V1.96875Z" fill="#BFD8EF"></path>
    <path d="M0.284997 22.3505C0.284997 25.3368 0.246576 25.2935 0.415797 25.7504H32.5535C33.6485 25.7504 34.5361 24.8628 34.5361 23.7679C34.5361 23.027 34.5361 22.7074 34.5361 22.3505C34.2707 22.3505 0.713577 22.3505 0.284997 22.3505V22.3505Z" fill="#8D9CA8"></path>
    <path d="M34.0583 22.3506V23.768C34.0583 24.8629 33.1706 25.7506 32.0757 25.7506H0.415771C0.700951 26.4955 1.42221 27.0248 2.26747 27.0248H33.987C35.0819 27.0248 35.9696 26.1372 35.9696 25.0422C35.9696 23.6711 35.9696 23.7433 35.9696 22.3506H34.0583Z" fill="#7A8C98"></path>
    <path d="M25.8894 32.4901C25.8894 31.6549 25.2123 30.9777 24.3771 30.9777H10.4441C9.60884 30.9777 8.93164 31.6549 8.93164 32.4901C8.93164 33.3254 9.60884 34.0026 10.4441 34.0026H24.3769C25.2122 34.0026 25.8894 33.3255 25.8894 32.4901Z" fill="#8D9CA8"></path>
    <path d="M25.8103 30.9777H24.2175C25.0528 30.9777 25.73 31.6549 25.73 32.4901C25.73 33.3254 25.0528 34.0026 24.2175 34.0026H25.8103C26.6456 34.0026 27.3228 33.3255 27.3228 32.4901C27.3228 31.6549 26.6456 30.9777 25.8103 30.9777Z" fill="#7A8C98"></path>
  </symbol>
  <symbol fill="none" xmlns="http://www.w3.org/2000/svg" viewBox="0 0 36 36" id="icon_9">
    <path d="M30.4759 4.65759H5.05762V29.2171C5.05762 30.874 6.40076 32.2171 8.05762 32.2171H27.4759C29.1328 32.2171 30.4759 30.874 30.4759 29.2171V4.65759Z" fill="#E6E9ED"></path>
    <path d="M27.8972 32.0791H7.63623L8.55718 33.0001H26.9762L27.8972 32.0791Z" fill="#CDD6E0"></path>
    <path d="M4.43604 4.1051V10.8051C4.43604 11.1504 4.71234 11.4958 5.12677 11.4958H5.67932C6.57727 11.4958 7.33704 12.2556 7.33704 13.1535V17.1597C7.33704 17.9194 7.95868 18.5411 8.71844 18.5411C9.47821 18.5411 10.0999 17.9194 10.0999 17.1597V15.7092C10.0999 14.9494 10.6524 14.3278 11.3431 14.2587C12.172 14.1896 12.8627 14.8112 12.8627 15.6401V17.6431C12.8627 18.4029 13.4153 19.0245 14.106 19.0936C14.9349 19.1627 15.6256 18.5411 15.6256 17.7122V13.4988C15.6256 12.7391 16.1782 12.1174 16.8689 12.0483C17.6978 11.9793 18.3885 12.6009 18.3885 13.4298V18.6792C18.3885 19.439 19.0101 20.0606 19.7699 20.0606C20.5297 20.0606 21.1513 19.439 21.1513 18.6792V13.4298C21.1513 12.3937 21.9802 11.4957 23.0853 11.4957H30.1306C30.476 11.4957 30.8214 11.2194 30.8214 10.805V4.1051H4.43604Z" fill="#585966"></path>
    <path d="M4.43604 5.901H4.50513H31.0286H31.0977V4.1051H4.43604V5.901Z" fill="#43444F"></path>
    <path d="M31.0285 3H4.50507C3.88342 3 3.3999 3.48352 3.3999 4.10517C3.3999 4.72681 3.88342 5.21033 4.50507 5.21033H31.0285C31.6502 5.21033 32.1337 4.72681 32.1337 4.10517C32.1337 3.48346 31.6502 3 31.0285 3Z" fill="#585966"></path>
  </symbol>
  <symbol fill="none" xmlns="http://www.w3.org/2000/svg" viewBox="0 0 36 36" id="icon_10">
    <g clip-path="url(#clip0_135_1226)">
      <path d="M31.6552 7.13793C32.3411 7.13793 32.8966 6.58241 32.8966 5.89655V4.34483C32.8966 3.65897 32.3411 3.10345 31.6552 3.10345H14.5087V1.24138C14.5087 0.555517 13.9532 0 13.2673 0H8.22421C7.53834 0 6.98283 0.555517 6.98283 1.24138V3.10345H4.34489C3.65903 3.10345 3.10352 3.65897 3.10352 4.34483V5.89655C3.10352 6.58241 3.65903 7.13793 4.34489 7.13793H4.65516V31.9655H4.34489C3.65903 31.9655 3.10352 32.521 3.10352 33.2069V34.7586C3.10352 35.4445 3.65903 36 4.34489 36H31.6552C32.3411 36 32.8966 35.4445 32.8966 34.7586V33.2069C32.8966 32.521 32.3411 31.9655 31.6552 31.9655H31.3449V7.13793H31.6552Z" fill="#585966"></path>
      <path d="M14.5088 1.24138V3.10345H6.98291V1.24138C6.98291 0.555517 7.53843 0 8.22429 0H13.2674C13.9533 0 14.5088 0.555517 14.5088 1.24138Z" fill="#CBE3FA"></path>
      <path d="M8.53442 7.75863V31.3448C8.53442 31.6876 8.2565 31.9655 7.91373 31.9655H4.65503V7.13794H7.91373C8.2565 7.13794 8.53442 7.41585 8.53442 7.75863Z" fill="#6E6F80"></path>
      <path d="M32.1209 13.6552H3.87948C3.5367 13.6552 3.25879 13.3773 3.25879 13.0345C3.25879 12.6917 3.5367 12.4138 3.87948 12.4138H32.1209C32.4636 12.4138 32.7415 12.6917 32.7415 13.0345C32.7415 13.3773 32.4636 13.6552 32.1209 13.6552Z" fill="#42434D"></path>
      <path d="M32.1209 26.6896H3.87948C3.5367 26.6896 3.25879 26.4117 3.25879 26.0689C3.25879 25.7262 3.5367 25.4482 3.87948 25.4482H32.1209C32.4636 25.4482 32.7415 25.7262 32.7415 26.0689C32.7415 26.4117 32.4636 26.6896 32.1209 26.6896Z" fill="#42434D"></path>
      <path d="M18 26.6897C21.9422 26.6897 25.1379 23.4939 25.1379 19.5517C25.1379 15.6096 21.9422 12.4138 18 12.4138C14.0578 12.4138 10.8621 15.6096 10.8621 19.5517C10.8621 23.4939 14.0578 26.6897 18 26.6897Z" fill="#CBE3FA"></path>
      <path d="M20.2096 18.1249C22.1585 20.1065 20.7014 23.5055 17.8796 23.3985C15.2316 23.2976 13.9251 20.1003 15.7421 18.1761C16.182 17.7106 16.5296 17.1629 16.7166 16.5499C17.0696 15.39 18.9061 15.4513 19.2816 16.5484C19.4826 17.1334 19.7758 17.6842 20.2096 18.1249Z" fill="#585966"></path>
      <path d="M17.4191 15.8054C18.2696 15.4589 19.0262 16.427 18.5451 17.2093C18.4949 17.2909 18.4537 17.3814 18.4236 17.4809C18.2366 18.0938 17.889 18.6416 17.4491 19.1071C17.1264 19.4488 16.9023 19.8306 16.7666 20.2281C16.3911 21.328 14.746 20.9026 14.9425 19.7571C15.0386 19.1966 15.2965 18.648 15.7422 18.1761C16.1821 17.7105 16.5297 17.1628 16.7167 16.5499C16.8254 16.1929 17.0925 15.9386 17.4191 15.8054Z" fill="#6E6F80"></path>
      <path d="M12.9792 22.5358C13.1851 23.2844 12.1521 23.7188 11.7719 23.0418C11.172 21.9735 10.839 20.7352 10.8633 19.4174C10.9338 15.5876 14.0763 12.4369 17.9569 12.414C18.7379 12.4093 18.8782 13.5207 18.1213 13.714C14.2218 14.7097 11.9158 18.6704 12.9792 22.5358V22.5358Z" fill="#EEF7FF"></path>
      <path d="M31.7389 31.9684C32.7217 32.0337 32.6467 33.5173 31.6618 33.5173H6.67248C5.98685 33.5173 5.4311 34.073 5.4311 34.7587V35.2237C5.4311 35.6525 5.08352 36 4.65477 36H4.34489C3.65927 36 3.10352 35.4443 3.10352 34.7587V33.207C3.10352 32.5213 3.65927 31.9656 4.34489 31.9656C4.34489 31.9656 31.7112 31.9665 31.7389 31.9684V31.9684Z" fill="#6E6F80"></path>
      <path d="M31.7389 3.10631C32.7217 3.17164 32.6467 4.65524 31.6618 4.65524H6.67248C5.98685 4.65524 5.4311 5.21099 5.4311 5.89662V6.36167C5.4311 6.79041 5.0839 7.138 4.65516 7.138H4.34489C3.65927 7.138 3.10352 6.58225 3.10352 5.89662V4.3449C3.10352 3.65927 3.65927 3.10352 4.34489 3.10352C4.34489 3.10352 31.7112 3.10445 31.7389 3.10631V3.10631Z" fill="#6E6F80"></path>
      <path d="M31.345 7.13794V7.75863C31.345 8.1014 31.0671 8.37932 30.7243 8.37932H5.27604C4.93326 8.37932 4.65527 8.1014 4.65527 7.75863V7.13794H31.345Z" fill="#42434D"></path>
      <path d="M13.2952 1.08621H10.0864C9.40073 1.08621 8.84498 1.64196 8.84498 2.32759V2.56034C8.84498 2.86029 8.60182 3.10345 8.30187 3.10345H6.98291V1.24138C6.98291 0.55575 7.53866 0 8.22429 0C8.22429 0 13.32 0.000853448 13.3459 0.00248276C14.0356 0.0455431 13.9863 1.08621 13.2952 1.08621Z" fill="#EEF7FF"></path>
    </g>
    <defs>
      <clipPath id="clip0_135_1226">
        <rect width="36" height="36" fill="white"></rect>
      </clipPath>
    </defs>
  </symbol>
  <symbol fill="none" xmlns="http://www.w3.org/2000/svg" viewBox="0 0 36 36" id="icon_12">
    <g clip-path="url(#clip0_135_1366)">
      <path d="M35.3793 25.1379H0.620718C0.398527 25.1388 0.192811 25.0209 0.0813324 24.8286C-0.0301461 24.6364 -0.0303804 24.3993 0.0807181 24.2069L1.8621 21.1034C1.97341 20.9106 2.17947 20.7922 2.4021 20.7931H33.598C33.8206 20.7922 34.0266 20.9106 34.138 21.1034L35.9193 24.2069C36.0304 24.3993 36.0302 24.6364 35.9187 24.8286C35.8072 25.0209 35.6015 25.1388 35.3793 25.1379V25.1379Z" fill="#805333"></path>
      <path d="M27.9126 12.1035H8.08776C7.86557 12.1044 7.65985 11.9864 7.54837 11.7942C7.4369 11.602 7.43666 11.3649 7.54776 11.1725L8.26155 9.93108C8.37287 9.73827 8.57892 9.61985 8.80155 9.62073H27.1988C27.4214 9.61985 27.6275 9.73827 27.7388 9.93108L28.4526 11.1725C28.5637 11.3649 28.5635 11.602 28.452 11.7942C28.3405 11.9864 28.1348 12.1044 27.9126 12.1035V12.1035Z" fill="#805333"></path>
      <path d="M31.1089 17.6896H4.89098C4.66879 17.6905 4.46307 17.5726 4.3516 17.3804C4.24012 17.1882 4.23988 16.951 4.35098 16.7586L5.41857 14.8965C5.52988 14.7037 5.73594 14.5853 5.95857 14.5862H30.0413C30.264 14.5853 30.47 14.7037 30.5813 14.8965L31.6489 16.7586C31.76 16.951 31.7598 17.1882 31.6483 17.3804C31.5368 17.5726 31.3311 17.6905 31.1089 17.6896V17.6896Z" fill="#805333"></path>
      <path d="M30.718 28.8621H28.6635C28.1043 28.8625 27.6138 28.4889 27.4656 27.9497L26.6898 25.1379L25.4856 20.7931L23.7725 14.5862L23.0835 12.1035L22.4008 9.62071H22.3946L21.9291 7.92622C21.8767 7.73951 21.9146 7.53905 22.0316 7.38435C22.1485 7.22966 22.331 7.1385 22.5249 7.13795H23.1456C23.3984 7.13668 23.6268 7.2889 23.7229 7.52277L24.5918 9.62071L25.6222 12.1035L26.6525 14.5862L27.9435 17.6897L29.2284 20.7931L31.0346 25.1379L31.8663 27.1428C32.0263 27.5263 31.9838 27.9645 31.7529 28.3102C31.5221 28.6558 31.1336 28.8629 30.718 28.8621Z" fill="#BDC3C7"></path>
      <path d="M14.071 7.92622L13.6055 9.62071H13.5993L12.9165 12.1035L12.2276 14.5862L10.5145 20.7931L9.31033 25.1379L8.53447 27.9497C8.38627 28.4889 7.89579 28.8625 7.33654 28.8621H5.28206C4.86645 28.8629 4.47798 28.6558 4.24715 28.3102C4.01633 27.9645 3.97377 27.5263 4.13378 27.1428L4.96551 25.1379L6.77171 20.7931L8.05654 17.6897L9.34757 14.5862L10.3779 12.1035L11.4083 9.62071L12.2772 7.52277C12.3733 7.2889 12.6016 7.13668 12.8545 7.13795H13.4752C13.6691 7.1385 13.8516 7.22966 13.9685 7.38435C14.0855 7.53905 14.1234 7.73951 14.071 7.92622V7.92622Z" fill="#BDC3C7"></path>
    </g>
    <defs>
      <clipPath id="clip0_135_1366">
        <rect width="36" height="36" fill="white"></rect>
      </clipPath>
    </defs>
  </symbol>
  <symbol fill="none" xmlns="http://www.w3.org/2000/svg" viewBox="0 0 36 36" id="icon_11">
    <g clip-path="url(#clip0_135_1184)">
      <path d="M13.054 21.5508H18V2.47302C18 1.10715 16.8929 0 15.527 0C14.1611 0 13.054 1.10715 13.054 2.47302V21.5508Z" fill="#FFF35C"></path>
      <path d="M18 21.5508H22.946V2.47302C22.946 1.10715 21.8389 0 20.473 0C19.1071 0 18 1.10715 18 2.47302V21.5508Z" fill="#FFD236"></path>
      <path d="M20.8085 33.2307C20.7901 34.7784 19.5206 36.0182 17.9729 35.9998L17.9531 35.9995C16.4054 35.9814 15.1656 34.7116 15.184 33.1639L15.225 29.709L20.8494 29.7757L20.8085 33.2307Z" fill="#82A0D2"></path>
      <path d="M18.0151 35.9992C19.5433 35.9948 20.7903 34.7643 20.8084 33.2306L20.8493 29.7757L18.0151 29.7419V35.9992Z" fill="#5877A6"></path>
      <path d="M14.0625 29.6367V25.4784H21.9375V29.6364C21.9375 30.8015 20.9932 31.7458 19.8281 31.7458H16.1719C15.0068 31.7461 14.0625 30.8015 14.0625 29.6367Z" fill="#C9DFF7"></path>
      <path d="M18.0151 31.7461H19.8282C20.993 31.7461 21.9375 30.8015 21.9375 29.6367V25.4784H18.0151V31.7461Z" fill="#9EBBDB"></path>
      <path d="M21.8941 26.4627H14.1058C13.6779 26.4627 13.2934 26.2012 13.136 25.8033L11.4672 21.584C11.34 21.2626 11.3804 20.8995 11.5746 20.6139C11.7685 20.3282 12.0918 20.1571 12.437 20.1571H23.5631C23.9084 20.1571 24.2314 20.3282 24.4256 20.6139C24.6198 20.8995 24.6601 21.2626 24.533 21.584L22.8641 25.8033C22.7065 26.2012 22.322 26.4627 21.8941 26.4627V26.4627Z" fill="#DFEEFA"></path>
      <path d="M23.563 20.1575H18.0151V26.4628H21.8941C22.3221 26.4628 22.7066 26.2016 22.864 25.8036L24.5328 21.584C24.6599 21.263 24.6198 20.8996 24.4257 20.614C24.2315 20.3283 23.9085 20.1575 23.563 20.1575V20.1575Z" fill="#C9DFF7"></path>
      <path d="M6.65305 12.1691H3.51563C2.93308 12.1691 2.46094 11.6969 2.46094 11.1144C2.46094 10.5318 2.93308 10.0597 3.51563 10.0597H6.65305C7.2356 10.0597 7.70773 10.5318 7.70773 11.1144C7.70773 11.6969 7.2356 12.1691 6.65305 12.1691Z" fill="#FFF35C"></path>
      <path d="M8.70277 5.81232C8.43278 5.81232 8.16279 5.7096 7.95679 5.5036L5.84687 3.39368C5.43516 2.98169 5.43516 2.314 5.84687 1.90201C6.25886 1.49002 6.92655 1.49002 7.33854 1.90201L9.44846 4.01193C9.86045 4.42392 9.86045 5.09161 9.44846 5.5036C9.24247 5.7096 8.97248 5.81232 8.70277 5.81232Z" fill="#FFF35C"></path>
      <path d="M6.58378 20.7194C6.31406 20.7194 6.04408 20.6164 5.83808 20.4104C5.42637 19.9987 5.42637 19.3307 5.83808 18.919L7.9763 16.7808C8.38828 16.3688 9.05598 16.3688 9.46796 16.7808C9.87968 17.1925 9.87968 17.8605 9.46796 18.2722L7.32975 20.4104C7.12376 20.6164 6.85377 20.7194 6.58378 20.7194Z" fill="#FFF35C"></path>
      <path d="M32.4844 12.2528H29.3467C28.7644 12.2528 28.292 11.7807 28.292 11.1981C28.292 10.6158 28.7644 10.1434 29.3467 10.1434H32.4844C33.0669 10.1434 33.5391 10.6158 33.5391 11.1981C33.5391 11.7807 33.0669 12.2528 32.4844 12.2528Z" fill="#FFD236"></path>
      <path d="M29.407 20.7194C29.1373 20.7194 28.8673 20.6164 28.6613 20.4104L26.5514 18.3005C26.1394 17.8885 26.1394 17.2208 26.5514 16.8088C26.9634 16.3971 27.6311 16.3971 28.0428 16.8088L30.153 18.919C30.5647 19.3307 30.5647 19.9987 30.153 20.4104C29.947 20.6164 29.677 20.7194 29.407 20.7194Z" fill="#FFD236"></path>
      <path d="M27.2781 5.84061C27.0081 5.84061 26.7381 5.73789 26.5324 5.53189C26.1204 5.1199 26.1204 4.45221 26.5324 4.04022L28.6706 1.90201C29.0823 1.49002 29.75 1.49002 30.162 1.90201C30.574 2.314 30.574 2.98169 30.162 3.39368L28.0238 5.53189C27.8178 5.73761 27.5478 5.84061 27.2781 5.84061V5.84061Z" fill="#FFD236"></path>
    </g>
    <defs>
      <clipPath id="clip0_135_1184">
        <rect width="36" height="36" fill="white"></rect>
      </clipPath>
    </defs>
  </symbol>
  <symbol fill="none" xmlns="http://www.w3.org/2000/svg" viewBox="0 0 36 36" id="icon_13">
    <path d="M11.9622 34.9135H24.0378V36H11.9622V34.9135Z" fill="#D6A826"></path>
    <path d="M12.4233 35.9999H10.6731C10.0049 35.9999 9.46313 35.4582 9.46313 34.7899V32.3748H12.4233V35.9999Z" fill="#F8C52D"></path>
    <path d="M25.3266 35.9999H23.5764V32.3748H26.5366V34.7899C26.5366 35.4582 25.9948 35.9999 25.3266 35.9999Z" fill="#F8C52D"></path>
    <path d="M13.0308 0.796753H22.969V8.69784H13.0308V0.796753Z" fill="#F8C52D"></path>
    <path d="M20.1055 0.796753H22.9689V8.69784H20.1055V0.796753Z" fill="#D6A826"></path>
    <path d="M12.9455 0H13.1092C13.4008 0 13.6372 0.236391 13.6372 0.527977V8.69787H10.0205V2.925C10.0205 1.30957 11.3301 0 12.9455 0V0Z" fill="#FDE784"></path>
    <path d="M13.6371 0.528047V8.69794H11.8292V0.528047C11.8292 0.428063 11.8009 0.333914 11.7517 0.25425C12.116 0.0905625 12.5202 0 12.9454 0H13.1091C13.401 0 13.6371 0.236109 13.6371 0.528047V0.528047Z" fill="#FDDD45"></path>
    <path d="M25.9792 2.92605V8.69787H22.3625V0.527977C22.3625 0.236391 22.5989 0 22.8905 0H23.0532C24.6691 0 25.9792 1.31006 25.9792 2.92605Z" fill="#FDE784"></path>
    <path d="M25.9793 2.92634V8.69794H24.1706V2.92634C24.1706 1.73623 23.46 0.711281 22.4395 0.25425C22.5314 0.101391 22.6995 0 22.8907 0H23.053C24.669 0 25.9793 1.31034 25.9793 2.92634Z" fill="#FDDD45"></path>
    <path d="M28.0169 28.248V9.762C28.0169 8.15543 26.7145 6.85303 25.1079 6.85303H10.8919C9.28531 6.85303 7.98291 8.15543 7.98291 9.762V28.2479H28.0169V28.248Z" fill="#FDE784"></path>
    <path d="M7.98291 29.675V30.6051C7.98291 32.2117 9.28531 33.5141 10.8919 33.5141H25.1079C26.7145 33.5141 28.0168 32.2117 28.0168 30.6051V29.675H7.98291Z" fill="#FDE784"></path>
    <path d="M25.678 9.762V28.2479H28.0162V9.762C28.0162 8.15543 26.7146 6.85303 25.1079 6.85303H22.769C24.3757 6.85303 25.678 8.15543 25.678 9.762Z" fill="#FDDD45"></path>
    <path d="M25.678 29.675V30.6051C25.678 32.2117 24.3756 33.5134 22.769 33.5134H25.1079C26.7146 33.5134 28.0162 32.2118 28.0162 30.6051V29.675H25.678Z" fill="#FDDD45"></path>
    <path d="M7.98291 27.7947H28.0169V30.0315H7.98291V27.7947Z" fill="#5A5A5A"></path>
    <path d="M25.678 27.7947H28.0169V30.0315H25.678V27.7947Z" fill="#444444"></path>
    <path d="M7.98291 25.4492H28.0169V26.5358H7.98291V25.4492Z" fill="#FB6A3B"></path>
    <path d="M25.678 25.4492H28.0169V26.5358H25.678V25.4492Z" fill="#FB5532"></path>
    <path d="M11.7138 22.1485H10.5237C10.2236 22.1485 9.98047 21.9053 9.98047 21.6052C9.98047 21.3052 10.2237 21.062 10.5237 21.062H11.7138C12.0139 21.062 12.257 21.3052 12.257 21.6052C12.257 21.9053 12.0138 22.1485 11.7138 22.1485Z" fill="#5A5A5A"></path>
    <path d="M13.5339 23.7936H10.5237C10.2236 23.7936 9.98047 23.5504 9.98047 23.2504C9.98047 22.9504 10.2237 22.7072 10.5237 22.7072H13.5339C13.8339 22.7072 14.0771 22.9504 14.0771 23.2504C14.0771 23.5504 13.8339 23.7936 13.5339 23.7936Z" fill="#5A5A5A"></path>
  </symbol>
  <symbol fill="none" xmlns="http://www.w3.org/2000/svg" viewBox="0 0 36 36" id="icon_14">
    <path d="M23.8655 33.75H6.50959C6.11465 33.7499 5.72416 33.6667 5.36353 33.5057C5.0029 33.3447 4.68022 33.1096 4.41649 32.8156C4.15277 32.5216 3.95391 32.1754 3.83286 31.7995C3.71182 31.4236 3.67131 31.0264 3.71396 30.6337L5.21513 16.8223C5.46866 14.4894 6.53203 12.3193 8.22022 10.6894C9.90841 9.05954 12.1146 8.07311 14.4549 7.90172C14.6968 7.88414 14.9415 7.875 15.1876 7.875C15.4336 7.875 15.6783 7.88414 15.9202 7.90172C18.2605 8.07307 20.4667 9.05949 22.1549 10.6894C23.8431 12.3192 24.9065 14.4894 25.16 16.8223L26.6612 30.6337C26.7038 31.0264 26.6633 31.4236 26.5422 31.7995C26.4212 32.1754 26.2223 32.5216 25.9586 32.8156C25.6949 33.1096 25.3722 33.3447 25.0116 33.5057C24.651 33.6667 24.2605 33.7499 23.8655 33.75V33.75Z" fill="#E3E4E2"></path>
    <path d="M12.8914 9.56159L10.9211 2.25H19.3586L17.2441 9.56159H12.8914Z" fill="#E3E4E2"></path>
    <path d="M19.125 12.9376C19.0073 13.0291 18.8581 13.0701 18.7101 13.0516C18.5622 13.0332 18.4276 12.9567 18.336 12.8391L15.75 9.51474V14.0626C15.75 14.2117 15.6907 14.3548 15.5852 14.4603C15.4797 14.5658 15.3367 14.6251 15.1875 14.6251C15.0383 14.6251 14.8952 14.5658 14.7897 14.4603C14.6842 14.3548 14.625 14.2117 14.625 14.0626V9.51474L12.0389 12.8391C11.9473 12.9567 11.8127 13.0331 11.6648 13.0516C11.5169 13.07 11.3677 13.029 11.25 12.9376C11.1324 12.8459 11.056 12.7114 11.0375 12.5635C11.0191 12.4156 11.0601 12.2664 11.1515 12.1487L14.455 7.90184C14.6968 7.88426 14.9415 7.87512 15.1876 7.87512C15.4337 7.87512 15.6784 7.88426 15.9203 7.90184L19.2237 12.1487C19.3151 12.2665 19.3561 12.4157 19.3376 12.5636C19.3191 12.7115 19.2426 12.846 19.125 12.9376Z" fill="#C9C9C7"></path>
    <path d="M29.5172 33.75H19.9829C19.5899 33.75 19.2013 33.6678 18.8421 33.5084C18.4829 33.3491 18.1611 33.1162 17.8974 32.8248C17.6337 32.5335 17.434 32.1901 17.3112 31.8168C17.1884 31.4435 17.1452 31.0486 17.1844 30.6576L17.9466 23.0315C18.1154 21.3444 18.905 19.7802 20.1622 18.6425C21.4194 17.5048 23.0545 16.8748 24.7501 16.8748C26.4456 16.8748 28.0807 17.5048 29.3379 18.6425C30.5951 19.7802 31.3847 21.3444 31.5535 23.0315L32.3157 30.6576C32.3549 31.0486 32.3117 31.4435 32.1889 31.8168C32.0661 32.1901 31.8664 32.5335 31.6027 32.8248C31.339 33.1162 31.0172 33.3491 30.658 33.5084C30.2988 33.6678 29.9102 33.75 29.5172 33.75V33.75Z" fill="#0093B9"></path>
    <path d="M23.3712 17.9556L21.9375 12.9375H27.5625L26.1288 17.9556H23.3712Z" fill="#0093B9"></path>
    <path d="M28.1251 20.8125C28.069 20.8606 28.004 20.8972 27.9338 20.9202C27.8636 20.9432 27.7895 20.9521 27.7158 20.9465C27.6421 20.9409 27.5703 20.9208 27.5044 20.8874C27.4385 20.8539 27.3798 20.8079 27.3317 20.7518L25.3126 18.3958V21.375C25.3126 21.5241 25.2533 21.6672 25.1478 21.7727C25.0423 21.8782 24.8993 21.9375 24.7501 21.9375C24.6009 21.9375 24.4578 21.8782 24.3523 21.7727C24.2468 21.6672 24.1876 21.5241 24.1876 21.375V18.3958L22.1682 20.7513C22.0711 20.8646 21.9331 20.9347 21.7843 20.9461C21.6356 20.9576 21.4884 20.9095 21.3751 20.8125C21.2619 20.7153 21.192 20.5773 21.1806 20.4286C21.1692 20.2799 21.2173 20.1328 21.3143 20.0196L23.9713 16.9195C24.489 16.8605 25.0117 16.8605 25.5294 16.9195L28.1864 20.0196C28.2833 20.1329 28.3314 20.2801 28.3199 20.4287C28.3084 20.5774 28.2383 20.7154 28.1251 20.8125V20.8125Z" fill="#006E87"></path>
    <path d="M15.4962 24.1431L14.0625 19.125H19.6875L18.2538 24.1431H15.4962Z" fill="#56C3C1"></path>
    <path d="M20.3336 33.75H13.4162C13.0098 33.75 12.6082 33.6619 12.239 33.4918C11.8699 33.3217 11.542 33.0735 11.278 32.7645C11.014 32.4555 10.8201 32.093 10.7096 31.7018C10.5992 31.3107 10.5748 30.9002 10.6382 30.4988L11.0228 28.0631C11.2234 26.792 11.8325 25.6207 12.7579 24.7265C13.6834 23.8323 14.8748 23.2637 16.1521 23.1068C16.6322 23.0477 17.1177 23.0477 17.5977 23.1068C18.875 23.2637 20.0665 23.8322 20.9919 24.7265C21.9173 25.6207 22.5264 26.792 22.727 28.0631L23.1116 30.4988C23.175 30.9002 23.1507 31.3107 23.0402 31.7018C22.9297 32.093 22.7358 32.4555 22.4718 32.7645C22.2078 33.0735 21.8799 33.3217 21.5108 33.4918C21.1416 33.6619 20.74 33.75 20.3336 33.75V33.75Z" fill="#56C3C1"></path>
    <path d="M19.6875 27C19.6274 27.0429 19.5594 27.0736 19.4874 27.0903C19.4155 27.1069 19.3409 27.1093 19.268 27.0971C19.1952 27.085 19.1254 27.0586 19.0627 27.0195C19.0001 26.9804 18.9457 26.9293 18.9028 26.8692L17.4375 24.8175V27C17.4375 27.1492 17.3782 27.2923 17.2727 27.3977C17.1672 27.5032 17.0242 27.5625 16.875 27.5625C16.7258 27.5625 16.5827 27.5032 16.4772 27.3977C16.3717 27.2923 16.3125 27.1492 16.3125 27V24.8175L14.8472 26.8692C14.8042 26.9293 14.7499 26.9804 14.6872 27.0195C14.6245 27.0586 14.5548 27.085 14.4819 27.0971C14.409 27.1093 14.3345 27.1069 14.2625 27.0903C14.1906 27.0736 14.1226 27.0429 14.0625 27C14.0024 26.9571 13.9513 26.9027 13.9122 26.84C13.8731 26.7774 13.8467 26.7076 13.8346 26.6347C13.8224 26.5619 13.8247 26.4873 13.8414 26.4154C13.8581 26.3434 13.8887 26.2754 13.9317 26.2153L16.1522 23.1068C16.6322 23.0477 17.1177 23.0477 17.5978 23.1068L19.8183 26.2153C19.8612 26.2754 19.8919 26.3434 19.9085 26.4154C19.9252 26.4873 19.9275 26.5619 19.9154 26.6347C19.9032 26.7076 19.8769 26.7774 19.8378 26.84C19.7987 26.9027 19.7476 26.9571 19.6875 27V27Z" fill="#1AA7A1"></path>
  </symbol>
  <symbol fill="none" xmlns="http://www.w3.org/2000/svg" viewBox="0 0 36 36" id="icon_15">
    <path d="M4.448 3.22974V30.8037C4.448 32.5874 7.9053 34.0335 12.1702 34.0335C16.4351 34.0335 19.8924 32.5874 19.8924 30.8037V3.22974H4.448Z" fill="#EFD8BC"></path>
    <path d="M17.4678 23.0355C17.4678 23.468 17.5887 23.892 17.8169 24.2594C18.286 25.0147 18.3719 25.9468 18.0489 26.7752C17.3492 28.5696 17.4678 27.8822 17.4678 30.8036C17.4678 32.3937 14.7206 33.7153 11.103 33.9836C15.3768 34.3009 19.8923 32.8729 19.8923 30.8037V3.22974H17.4678V23.0355H17.4678Z" fill="#E1C6A4"></path>
    <path d="M12.1702 6.45953C16.4351 6.45953 19.8924 5.01352 19.8924 3.22977C19.8924 1.44602 16.4351 0 12.1702 0C7.90535 0 4.448 1.44602 4.448 3.22977C4.448 5.01352 7.90535 6.45953 12.1702 6.45953Z" fill="#E1C6A4"></path>
    <path d="M12.1701 4.22562C13.6695 4.22562 14.8849 3.72223 14.8849 3.10128C14.8849 2.48032 13.6695 1.97693 12.1701 1.97693C10.6708 1.97693 9.45532 2.48032 9.45532 3.10128C9.45532 3.72223 10.6708 4.22562 12.1701 4.22562Z" fill="#C19A68"></path>
    <path d="M15.6397 17.0858H13.3754V14.8178C13.3754 14.4348 13.0654 14.1243 12.683 14.1243H11.5912C11.2088 14.1243 10.8988 14.4348 10.8988 14.8178V17.0858H8.63456C8.25213 17.0858 7.94214 17.3963 7.94214 17.7794V18.8729C7.94214 19.256 8.25213 19.5665 8.63456 19.5665H10.8988V21.8345C10.8988 22.2176 11.2088 22.5281 11.5912 22.5281H12.683C13.0654 22.5281 13.3754 22.2176 13.3754 21.8345V19.5665H15.6397C16.0221 19.5665 16.3321 19.256 16.3321 18.8729V17.7794C16.3322 17.3964 16.0221 17.0858 15.6397 17.0858V17.0858Z" fill="#FF5A7F"></path>
    <path d="M27.2461 8.71813C21.5552 6.88475 19.8923 3.22974 19.8923 3.22974V30.7774C19.8923 30.7774 21.3482 33.9773 26.1971 35.8908C27.2094 36.2903 28.3063 35.5443 28.3063 34.4544V10.1851C28.3063 9.51812 27.88 8.92238 27.2461 8.71813V8.71813Z" fill="#EFD8BC"></path>
    <path d="M25.1275 12.6496C27.3409 14.5531 31.2981 13.1247 31.2981 13.1247L30.563 15.2574L31.5521 16.3902L30.747 17.9328L31.3707 19.4981C31.3707 19.4981 27.2776 20.8944 24.6136 18.7582C24.5181 18.6816 24.4622 18.5658 24.4622 18.4434V12.9478C24.4621 12.6029 24.8659 12.4246 25.1275 12.6496V12.6496Z" fill="#D4DEFF"></path>
    <path d="M26.2366 13.3025C25.8401 13.1505 25.4637 12.9387 25.1276 12.6496C24.866 12.4246 24.4622 12.6029 24.4622 12.9479V18.4435C24.4622 18.5659 24.5181 18.6817 24.6136 18.7583C25.1161 19.1612 25.6695 19.4383 26.2365 19.623V13.3025H26.2366Z" fill="#ABB8FF"></path>
    <path d="M25.1275 24.1703C27.3409 26.0739 31.2981 24.6455 31.2981 24.6455L30.563 26.7055L31.4069 27.9109L30.747 29.3809L31.3707 31.0188C31.3707 31.0188 27.2776 32.4151 24.6136 30.2789C24.5181 30.2023 24.4622 30.0865 24.4622 29.9641V24.4686C24.4621 24.1237 24.8659 23.9454 25.1275 24.1703V24.1703Z" fill="#D4DEFF"></path>
    <path d="M26.2366 24.8232C25.8401 24.6712 25.4637 24.4593 25.1276 24.1703C24.866 23.9454 24.4622 24.1236 24.4622 24.4687V29.9642C24.4622 30.0867 24.5181 30.2024 24.6136 30.279C25.1161 30.6819 25.6695 30.959 26.2365 31.1437V24.8232H26.2366Z" fill="#ABB8FF"></path>
  </symbol>
  <symbol fill="none" xmlns="http://www.w3.org/2000/svg" viewBox="0 0 36 36" id="recycle-sign 3">
    <g clip-path="url(#clip0_135_1023)">
      <path d="M32.6589 4.86164C32.4903 4.77997 32.2933 4.7817 32.1261 4.86644L29.5404 6.1779L27.5168 2.70187C26.8241 1.40354 25.4697 0.595277 23.9982 0.602101H13.9985C12.5054 0.605701 11.1223 1.38742 10.3491 2.66468L8.48925 5.68715C8.31737 5.96642 8.40151 6.33193 8.67823 6.50786L15.2775 10.7074C15.3737 10.7685 15.4852 10.8009 15.5991 10.801C15.6489 10.8011 15.6984 10.7948 15.7467 10.7824C15.9068 10.7418 16.0431 10.637 16.1234 10.4926L18.6432 5.95892L21.4029 11.1784L18.8903 12.686C18.6697 12.8183 18.558 13.0765 18.6126 13.3279C18.6669 13.5792 18.8754 13.7679 19.1309 13.7971L28.0597 14.8122C28.0822 14.8146 28.1049 14.8158 28.1275 14.8158C28.3575 14.8158 28.5672 14.6844 28.6675 14.4774L32.9372 5.66315C33.0816 5.36491 32.9571 5.00607 32.6589 4.86164ZM15.3837 9.35268L9.82051 5.81306L11.3743 3.28854C11.9294 2.36861 12.9241 1.80505 13.9985 1.8019H16.4342L17.9208 4.78657L15.3837 9.35268ZM27.773 13.572L21.0249 12.8047L22.5073 11.915C22.7802 11.7509 22.8774 11.4023 22.7287 11.1207L17.8014 1.8019H23.9982C25.0402 1.8004 25.9966 2.37843 26.4795 3.30173L28.7881 7.2691C28.9483 7.54327 29.2944 7.64504 29.5776 7.50128L31.081 6.73936L27.773 13.572Z" fill="#609B44"></path>
      <path d="M35.4748 17.4026L33.5358 13.5294C33.3877 13.233 33.0274 13.1128 32.731 13.2608C32.719 13.2667 32.7073 13.2731 32.6959 13.2799L25.4966 17.4794C25.2145 17.6439 25.1159 18.0039 25.2747 18.2893L27.7776 22.7996H22.1982V20.3999C22.1984 20.0686 21.9298 19.7999 21.5985 19.7997C21.4294 19.7997 21.2681 19.871 21.1543 19.9961L15.155 26.5954C14.9595 26.8106 14.9463 27.1349 15.1238 27.3651L21.1231 35.1643C21.3254 35.4267 21.7021 35.4754 21.9645 35.2732C22.1118 35.1596 22.1981 34.9843 22.1982 34.7983V32.9985H26.3977C27.877 33.035 29.2457 32.2181 29.9158 30.8988L34.1153 23.7031L35.3632 21.6874C36.1703 20.3838 36.213 18.7465 35.4748 17.4026ZM28.8725 30.3084C28.4102 31.2466 27.4432 31.8289 26.3977 31.7987H21.5983C21.267 31.7987 20.9983 32.0673 20.9983 32.3986V33.0345L16.3788 27.0316L20.9983 21.9513V23.3996C20.9983 23.7309 21.267 23.9995 21.5983 23.9995H32.5525L28.8725 30.3084ZM34.3403 21.0586L33.2604 22.7984H29.1502L26.6077 18.2227L32.7469 14.6405L34.4117 17.9642C34.9491 18.9327 34.9218 20.1159 34.3403 21.0586Z" fill="#609B44"></path>
      <path d="M14.3439 18.3487L10.7443 10.5496C10.6408 10.3241 10.4093 10.1855 10.1617 10.201L0.562789 10.8009C0.232075 10.8215 -0.019373 11.1061 0.0011748 11.4369C0.0132485 11.6309 0.118537 11.8072 0.283819 11.9096L0.284419 11.9108L3.2505 13.7502L1.27071 17.7146C0.553115 19.0183 0.55724 20.5997 1.28151 21.8997L4.62015 27.6651L6.44575 30.8274C7.22979 32.1592 8.65411 32.9831 10.1995 32.9985H12.5993C12.9306 32.9985 13.1992 32.7299 13.1992 32.3986V23.9995C13.1992 23.6682 12.9306 23.3996 12.5993 23.3996H8.11717L11.1096 18.2071L13.5838 19.1598C13.893 19.2787 14.2402 19.1243 14.359 18.8151C14.4172 18.664 14.4117 18.4958 14.3439 18.3487ZM11.9993 24.5994V31.7987H10.1995C9.08156 31.7879 8.05095 31.192 7.48364 30.2286L5.83682 27.3753L7.53583 24.5994H11.9993ZM11.0617 16.9029C10.786 16.797 10.4742 16.9074 10.3267 17.1632L5.13729 26.1671L2.32 21.2998C1.8021 20.3535 1.80983 19.2069 2.3404 18.2677L4.57155 13.7958C4.71126 13.5179 4.61542 13.1793 4.35078 13.0159L2.51558 11.8808L9.82698 11.4255L12.6347 17.5088L11.0617 16.9029Z" fill="#609B44"></path>
    </g>
    <defs>
      <clipPath id="clip0_135_1023">
        <rect width="36" height="36" fill="white"></rect>
      </clipPath>
    </defs>
  </symbol>
    <symbol xmlns="http://www.w3.org/2000/svg" viewBox="0 0 30 16" id="arrow">
    <path fill-rule="evenodd" clip-rule="evenodd" d="M0.707107 15.2374C0.316582 14.8469 0.316582 14.2137 0.707107 13.8232L13.5304 0.999897C14.3114 0.218849 15.5778 0.218846 16.3588 0.999896L29.1821 13.8232C29.5726 14.2137 29.5726 14.8469 29.1821 15.2374C28.7916 15.6279 28.1584 15.6279 27.7679 15.2374L14.9446 2.41411L2.12132 15.2374C1.7308 15.6279 1.09763 15.6279 0.707107 15.2374Z"></path>
  </symbol>
</svg>